<?xml version="1.0" standalone="no"?>
<!DOCTYPE svg PUBLIC "-//W3C//DTD SVG 1.1//EN" "http://www.w3.org/Graphics/SVG/1.1/DTD/svg11.dtd" >
<svg>
<metadata>
Created by FontForge 20090622 at Thu Apr 25 05:25:44 2019
 By deploy user
Digitized data copyright 2000-2004 mickeyavenue.com :: Some rights reserved :: For personal, noncommercial use only :: Released under Creative Commons NonCommercial-ShareAlike license http://creativecommons.org/licenses/nc-sa/1.0/
</metadata>
<defs>
<font id="WaltographUI-Bold" horiz-adv-x="700" >
  <font-face 
    font-family="Waltograph UI"
    font-weight="700"
    font-stretch="normal"
    units-per-em="1000"
    panose-1="3 8 6 2 0 0 0 0 0 0"
    ascent="800"
    descent="-200"
    cap-height="720"
    bbox="-64 -279 3776 946"
    underline-thickness="35"
    underline-position="-6"
    unicode-range="U+0020-U+2122"
  />
<missing-glyph horiz-adv-x="863" 
d="M559 507q-14 33 -14 64q0 56 38 96q20 19 44.5 28t50.5 9q32 0 63 -13t57 -39t39 -56.5t13 -62.5q0 -26 -9 -50.5t-28 -44.5q-20 -20 -45 -29t-51 -9q-30 0 -60 12q17 -29 26 -62t9 -69q0 -53 -20.5 -100.5t-56 -82.5t-82.5 -55.5t-100 -20.5q-54 0 -101.5 20.5t-83 55.5
t-56 82.5t-20.5 100.5q0 36 9.5 69t26.5 62q-30 -12 -60 -12q-26 0 -50.5 9t-44.5 29q-38 40 -38 95q0 32 13 62.5t39 56.5t57.5 39t63.5 13q26 0 50.5 -9t44.5 -28q19 -20 28 -44.5t9 -50.5q0 -34 -13 -64q56 32 126 32t126 -33z" />
    <glyph glyph-name=".notdef" horiz-adv-x="863" 
d="M559 507q-14 33 -14 64q0 56 38 96q20 19 44.5 28t50.5 9q32 0 63 -13t57 -39t39 -56.5t13 -62.5q0 -26 -9 -50.5t-28 -44.5q-20 -20 -45 -29t-51 -9q-30 0 -60 12q17 -29 26 -62t9 -69q0 -53 -20.5 -100.5t-56 -82.5t-82.5 -55.5t-100 -20.5q-54 0 -101.5 20.5t-83 55.5
t-56 82.5t-20.5 100.5q0 36 9.5 69t26.5 62q-30 -12 -60 -12q-26 0 -50.5 9t-44.5 29q-38 40 -38 95q0 32 13 62.5t39 56.5t57.5 39t63.5 13q26 0 50.5 -9t44.5 -28q19 -20 28 -44.5t9 -50.5q0 -34 -13 -64q56 32 126 32t126 -33z" />
    <glyph glyph-name="space" unicode=" " horiz-adv-x="500" 
 />
    <glyph glyph-name="numbersign" unicode="#" horiz-adv-x="531" 
d="M72 241q-16 12 -23.5 27.5t-7.5 31.5q0 14 6.5 26.5t17.5 19.5q7 4 16 5.5t17 1.5l57 -3v58q-35 5 -73 15q-29 8 -40.5 24.5t-11.5 34.5q0 20 18.5 36.5t47.5 22.5q1 -12 2.5 -14.5t3.5 -2.5q28 -8 56 -12v37t-2 39q1 7 8 12.5t15 9.5t17 6t15 2l16 1q15 0 24.5 -5.5
t9.5 -22.5q1 -14 1.5 -28t0.5 -28v-26h22q12 0 23 2l3 1v80q5 12 23.5 19.5t37.5 7.5q17 0 30.5 -7t18.5 -22v-70q14 2 28 2q15 0 29 1q5 1 18 1q19 0 31 -9q10 -17 10 -37q0 -19 -8 -39t-25 -28q-22 4 -39.5 5t-33.5 1l-12 -1v-69l23.5 2t25.5 3h-1q5 1 10 1h12
q18 0 31 -6.5t15 -25.5q-2 -5 -3 -13t-3 -14l-1 -5q-4 -20 -10 -35t-27 -15h-25q-14 -1 -24.5 -1.5t-19.5 -0.5q1 -34 6 -74h24q-14 -32 -24.5 -47.5t-35.5 -15.5q-26 0 -48 16t-25 38q-3 9 -4.5 19.5t-3.5 20.5v41h-53q3 -34 12 -71q1 -6 1.5 -9.5t0.5 -9.5
q0 -22 -11.5 -31.5t-28.5 -9.5q-12 0 -25 4.5t-21 9.5q-17 8 -22 32q-4 21 -5.5 42t-3.5 43q-6 0 -12 0.5t-13 1.5h-48zM311 348v62l-52 -3q-2 -16 -3 -31.5t-1 -31.5h55z" />
    <glyph glyph-name="dollar" unicode="$" horiz-adv-x="733" 
d="M335 793q42 -2 63 -31.5t26 -83.5q67 -1 125 -12t103 -22q10 -2 15 -7t5 -22q-1 -18 -13 -28.5t-27 -16.5l-30.5 -5.5l-30.5 -5.5q-14 -2 -53.5 -4.5t-89.5 -6.5q1 -24 1.5 -48.5t0.5 -49.5q57 -7 103.5 -17.5t79.5 -31.5t51 -56.5t18 -91.5t-25 -94t-62.5 -63.5
t-80.5 -39t-78 -19.5v-24q0 -14 -2.5 -29t-8.5 -27t-16.5 -19.5t-26.5 -7.5q-10 0 -24 4t-25 9q-6 3 -11 13t-8.5 23.5t-6.5 29t-5 29.5q-47 9 -87.5 28.5t-70.5 44.5t-47 52t-17 53q0 36 16 59.5t40.5 37t54 19t56.5 5.5q23 0 52 -3l6 -1v18t1 18q-5 1 -9 1h-7
q-80 2 -127 8t-72.5 18.5t-33 33t-7.5 51.5q0 46 27 79t67.5 54.5t87.5 34.5t88 19q2 26 3 52t3 55q1 18 9 18zM488 269q0 -9 -3 -12q-7 -7 -20 -15t-30 -14v-50q26 6 49 15t40.5 20.5t27.5 26t10 31.5q0 14 -11 26t-29 22t-41.5 18t-48.5 14q1 -13 1 -26v-25q25 -10 52 -24
q3 -3 3 -7zM220 185q31 -14 82 -17v75q-20 5 -40 9.5t-37 4.5q-21 0 -34.5 -8.5t-13.5 -30.5q0 -7 11.5 -16t31.5 -17zM177 492q0 -6 12 -11t30.5 -8.5t42 -6t47.5 -4.5l4 75q-28 -3 -53 -7.5t-43.5 -10t-29 -12.5t-10.5 -15z" />
    <glyph glyph-name="percent" unicode="%" horiz-adv-x="718" 
d="M223 680q26 0 55.5 -21.5t50.5 -56.5q51 6 103.5 28.5t91.5 57.5q12 10 26 10q10 0 22 -6.5t22.5 -16.5t18 -21.5t7.5 -21.5q0 -8 -1 -12t-6 -9l-58 -74l-61 -80l-67.5 -89l-76.5 -102l-78 -104l-80 -102q-6 -7 -15.5 -11.5t-19.5 -4.5q-11 0 -22.5 6t-21.5 15t-16.5 20
t-6.5 21q0 17 12 29q84 81 153.5 175l137.5 193l-1 -1q2 4 5 7.5t5 7.5q2 3 3.5 6.5t4.5 6.5q-14 -3 -28 -5.5t-28 -4.5v-10q0 -33 -13 -60t-34 -46.5t-47.5 -30.5t-54.5 -11q-78 0 -121 41.5t-43 106.5q0 18 2.5 33.5t9 30.5t17.5 31t28 36q13 15 38 22t53 11zM368 205
q0 19 4.5 43.5t18.5 47.5t40 41t68 25q12 5 26 7t24 2q29 0 53.5 -15.5t42 -39.5t27.5 -53.5t10 -57.5q0 -33 -14 -60.5t-36.5 -47.5t-50.5 -31t-56 -11q-79 0 -118 42.5t-39 107.5zM462 211q0 -26 15.5 -43t43.5 -17q11 0 23 5t22 14t16.5 20.5t6.5 24.5q0 27 -12.5 45.5
t-27.5 18.5l-7 -1zM161 572q-10 -11 -17.5 -25.5t-7.5 -37.5q0 -27 19.5 -41t48.5 -14q21 0 38 16.5t17 41.5q0 7 -1 11q-14 2 -27.5 7l-27.5 10l3 17z" />
    <glyph glyph-name="quotesingle" unicode="'" horiz-adv-x="246" 
d="M90 822q36 0 61.5 -15t42 -36t24.5 -44.5t8 -40.5q0 -26 -11.5 -48t-29 -39.5t-38.5 -30.5t-39.5 -21.5t-32.5 -12.5t-17 -4q-9 0 -14.5 6.5t-5.5 15.5q0 16 8 27t17 20l17 16.5t8 16.5q0 19 -8.5 27l-18.5 17.5t-18.5 26.5t-8.5 55q0 6 1.5 16.5t7.5 21t17 18.5t30 8z
" />
    <glyph glyph-name="parenleft" unicode="(" horiz-adv-x="301" 
d="M271 -86l-57 -47l-45 22q-44 49 -73 118t-46.5 139.5t-25 135t-7.5 105.5q0 66 8 120.5t26 109t48.5 116.5t75.5 145l32 5q37 -18 42 -53q-54 -94 -80 -198t-26 -219q0 -45 7 -103.5t22 -117t37.5 -109.5t53.5 -80l10 -11l6 -10z" />
    <glyph glyph-name="parenright" unicode=")" horiz-adv-x="306" 
d="M70 -126l-40 59l8 47q27 22 48 57t36.5 77.5t26 90t17 93.5t9 88t2.5 74q0 46 -4.5 91.5t-17 86t-34.5 74.5t-58 57l-50 32l26 58q54 -9 94 -34.5t68.5 -60.5t46 -76.5t27.5 -82.5t13.5 -78.5t3.5 -64.5q0 -69 -3 -148t-17 -158t-43 -152t-81 -131l-23 -2z" />
    <glyph glyph-name="asterisk" unicode="*" horiz-adv-x="321" 
d="M217 487l94 -79l3 -26l-19 -29q-8 -4 -12 -4.5t-8 -0.5q-3 0 -7.5 0.5t-10.5 3.5l-6 6q-5 4 -9.5 8.5l-11 10.5t-16.5 14.5l-26 21.5l-4 -80q-5 -23 -27 -23q-25 0 -33.5 5t-10.5 20l-3 69q-11 -10 -19.5 -18.5t-18.5 -20.5q-6 -9 -16.5 -13t-21.5 -4q-28 17 -35.5 29.5
t-7.5 26.5q0 19 8 31q10 10 26.5 23.5t44.5 33.5q-11 5 -27.5 16l-43.5 28q-8 8 -9 12t-1 8q0 8 7 19.5t28 34.5q9 7 14 9t11 2q7 0 18 -7t40 -30q0 7 2.5 19t10.5 41l65 23l14 -4q9 -5 15.5 -12t6.5 -24v-6t-2 -10l-2 -9l-4 -12.5t-4 -14.5l20 8.5l28 11.5l33 15l32 -21
l5 -36z" />
    <glyph glyph-name="plus" unicode="+" horiz-adv-x="480" 
d="M292 428q20 3 41.5 4t44.5 4q5 1 13 1q7 0 15.5 -3t16.5 -11q5 -13 5 -36q0 -20 -7 -42.5t-21 -30.5q-35 7 -57 7q-7 0 -17.5 -1t-40.5 -3q0 -23 3 -47.5t13 -51.5q2 -4 2 -8v-5q0 -20 -12.5 -28t-30.5 -8q-13 0 -26 3.5t-21 6.5q-20 6 -26 27q-6 26 -8.5 51.5t-2.5 51.5
q-49 0 -99 20q-22 8 -31.5 26t-9.5 36q0 20 17 39t45 27v-22q13 -6 37.5 -10.5t44.5 -5.5v46q0 6 -0.5 12t-1.5 13v35q5 13 25.5 19.5t34.5 6.5h14q15 0 27.5 -4.5t13.5 -21.5q1 -9 1 -19v-19q0 -15 -0.5 -30t-1.5 -29z" />
    <glyph glyph-name="comma" unicode="," horiz-adv-x="288" 
d="M40 -92q22 0 44 7.5t39.5 21t28 33t10.5 42.5q0 15 -6.5 23t-15.5 11q-11 0 -16 -8q-16 -16 -38 -16q-11 0 -22.5 5t-20.5 12.5t-15 17.5t-6 21q0 21 3.5 42.5t15.5 39.5t34.5 29t60.5 11q39 0 64 -21.5t40 -50t20.5 -57.5t5.5 -43q0 -34 -11 -65t-31 -55t-48.5 -38
t-63.5 -14q-27 0 -49 11.5t-33 40.5h10z" />
    <glyph glyph-name="hyphen" unicode="-" horiz-adv-x="336" 
d="M202 402q18 4 38.5 6.5t41.5 2.5q8 0 15.5 -3.5t12.5 -11.5q5 -13 5 -35q0 -19 -6 -40.5t-19 -32.5q-25 7 -42 7q-9 0 -25 -2t-34 -4.5t-36.5 -4.5t-32.5 -2q-18 0 -36.5 6t-37.5 16q-17 8 -24 26t-7 35q0 20 15 39t41 30v-24q18 -10 34 -13t33 -3q15 0 31 2.5t33 5.5z
" />
    <glyph glyph-name="hyphen" unicode="&#xad;" horiz-adv-x="336" 
d="M202 402q18 4 38.5 6.5t41.5 2.5q8 0 15.5 -3.5t12.5 -11.5q5 -13 5 -35q0 -19 -6 -40.5t-19 -32.5q-25 7 -42 7q-9 0 -25 -2t-34 -4.5t-36.5 -4.5t-32.5 -2q-18 0 -36.5 6t-37.5 16q-17 8 -24 26t-7 35q0 20 15 39t41 30v-24q18 -10 34 -13t33 -3q15 0 31 2.5t33 5.5z
" />
    <glyph glyph-name="period" unicode="." horiz-adv-x="258" 
d="M131 173q19 0 37 -8t31 -21.5t21 -31.5t8 -38q0 -19 -8 -36.5t-21 -31t-30 -21.5t-35 -8q-20 0 -39 6.5t-33.5 18.5t-23 28.5t-8.5 36.5q0 46 28 76t73 30z" />
    <glyph glyph-name="slash" unicode="/" horiz-adv-x="399" 
d="M376 571q-20 -33 -45.5 -80.5l-54 -102.5l-58 -114.5l-56.5 -118t-49 -113t-36 -98.5q-3 -8 -11.5 -16.5t-22.5 -8.5q-12 0 -26 7t-26.5 18t-22.5 24t-14 24q-3 9 -3 14t1 8l66.5 131.5l58.5 114.5l70 133l60 117t53 115t50 127q5 13 12.5 17t18.5 4q13 0 29 -5t30.5 -13
t25.5 -17t16 -18q6 -11 6 -19q0 -6 -3 -12z" />
    <glyph glyph-name="zero" unicode="0" 
d="M31 370q0 81 27.5 152t74 123.5t108 83t129.5 30.5q62 0 116.5 -31t95 -82.5t63.5 -118t23 -138.5q0 -77 -24.5 -147.5t-67.5 -124t-101 -85.5t-125 -32q-62 0 -119.5 29.5t-102 80t-71 117.5t-26.5 143zM151 380q0 -44 15 -86t41.5 -74.5t63 -52t79.5 -19.5t79.5 21
t62 57t40 82.5t14.5 97.5q0 56 -14.5 95.5t-49.5 73.5q5 -21 8.5 -50t3.5 -72q-21 28 -45 54.5t-48 47.5t-47.5 33.5t-42.5 12.5q-14 0 -27 -5.5t-25 -11.5l-4 -2t-5 -2q-22 0 -28 13q-11 -16 -23 -39t-23 -51t-18 -59t-7 -64z" />
    <glyph glyph-name="one" unicode="1" 
d="M602 -4q-23 4 -40.5 5t-33.5 1q-26 0 -52 -2l-52 -4q-53 -6 -108 -6q-33 0 -61.5 3.5t-61.5 14.5q-29 10 -41 31.5t-12 44.5q0 34 30 56q10 -7 19.5 -11t22.5 -6t32.5 -2.5t50.5 -0.5h22q-2 98 -5 194.5t-7 194.5l-87 -31q-18 0 -31.5 7.5t-24 18t-19.5 21.5t-17 19
q-4 5 -5 10t-1 12q0 5 1.5 11t10.5 16l40 19.5t49 30t42 38.5t21 45q9 20 24 28t32 8q10 0 26.5 -3t33 -9t30 -14t16.5 -18q1 -122 4 -246l6 -247q1 -22 1.5 -45.5t0.5 -47.5q29 2 61.5 4.5t70.5 2.5q8 0 15 -1.5t15 -6.5q6 -11 8.5 -25t2.5 -28q0 -24 -7 -49t-22 -33z" />
    <glyph glyph-name="two" unicode="2" 
d="M360 390l30.5 34.5t36.5 47t30.5 52t12.5 47.5q0 13 -7.5 25t-18.5 21.5t-24 15t-23 5.5q-41 0 -66.5 -6t-43 -16.5t-28.5 -25l-22 -30.5q0 -2 -1 -7t-2 -11q-1 -2 -1 -5q-3 -10 -6.5 -20t-10 -17.5t-17 -12.5t-26.5 -5q-17 1 -28 9.5t-17 20.5t-8.5 25.5t-2.5 26.5
q0 23 2 31v-1q5 47 28.5 79t58.5 51.5t76.5 28t82.5 8.5q24 0 39 -3q35 -5 70 -21t62.5 -42t45 -62.5t17.5 -83.5q0 -51 -29.5 -102t-72 -100.5t-89.5 -97t-83 -92.5q18 -11 47 -19t80 -8q55 0 104.5 15.5t72.5 49.5q14 -3 23 -12t14 -21t7 -26t2 -27q-18 -24 -43.5 -44.5
t-54.5 -35.5t-60 -23t-60 -8q-33 0 -62.5 4t-58.5 9t-58.5 9t-61.5 4q-18 0 -33.5 -7.5t-31 -16t-33 -16t-38.5 -7.5q-23 0 -39 18t-16 42z" />
    <glyph glyph-name="three" unicode="3" 
d="M224 623q-10 -4 -14 -5q4 -6 13 -14.5l20 -18.5t23 -19.5l21 -16.5q-11 1 -20 1h-15q-16 0 -24.5 -1t-14.5 -2l-12 -2t-16 -1q-40 0 -57 24t-17 59q0 38 17.5 72.5t49.5 45.5t59 16.5t64 5.5q56 0 109 -10t94.5 -34.5t67 -67t27.5 -107.5q0 -16 -4.5 -35.5t-12 -40
t-18.5 -40.5t-26 -35q21 -13 35.5 -27.5t23.5 -34t13 -46.5t4 -65q0 -69 -26 -112.5t-66.5 -68.5t-90.5 -34t-97 -9q-61 0 -107.5 19.5t-77.5 47.5t-47 59.5t-16 56.5q0 38 5.5 56t30.5 18q10 0 25.5 -7t29.5 -29q27 -42 67.5 -66.5t95.5 -24.5q17 0 40 5t43.5 17t35 31
t14.5 47q0 15 -2 25.5t-8 19.5t-16.5 17t-27.5 17q-29 -10 -62 -14t-64 -4q-32 0 -59 6.5t-47.5 18t-32 27t-11.5 33.5q0 31 23 49.5t52 28t55.5 12.5t33.5 3q51 0 105 -14q12 3 21 14.5t15 25.5t9 29t3 25q0 27 -14.5 43.5t-38 26t-52 13t-56.5 3.5q-18 0 -38.5 -3
t-36.5 -9z" />
    <glyph glyph-name="four" unicode="4" 
d="M479 -41q-14 0 -30 3t-30 9t-25 14.5t-14 19.5q-2 10 -4.5 29.5t-4.5 45t-3.5 55t-1.5 59.5v30q-33 1 -74 6t-81 16.5t-75.5 30.5t-58.5 47q-7 23 -9.5 44.5t-2.5 44.5q0 38 8 79.5t21.5 82.5t31.5 80.5t39 72.5q11 17 18.5 23t23.5 6q20 0 31.5 -13.5t11.5 -34.5
q0 -20 -7.5 -42.5t-12.5 -35.5q-17 -44 -27.5 -93.5t-10.5 -94.5q0 -37 7 -64q12 -9 34.5 -16t47.5 -12t48.5 -7.5t35.5 -3.5q0 4 0.5 13t0.5 43q0 30 0.5 69.5t3 81.5t9 82.5t17.5 72t28 51t42 19.5q39 0 64.5 -26t39.5 -67.5t19.5 -93t5.5 -102.5q0 -48 -2.5 -84.5
t-11.5 -65t-27 -50t-49 -37.5q0 -15 1 -39.5t3.5 -53t7 -58t12.5 -54.5l3.5 -9t1.5 -9q0 -16 -9.5 -35.5t-32.5 -28.5h-13zM513 455q0 52 -1.5 105t-12.5 96q-3 -19 -6 -46.5t-5 -58.5t-3 -62.5t-1 -57.5q0 -18 0.5 -32.5t1.5 -22.5q7 4 12.5 14.5t8.5 22.5t4.5 24t1.5 18z
" />
    <glyph glyph-name="five" unicode="5" 
d="M556 765q8 0 16 -1t16 -9h-1q20 -14 30.5 -42t12.5 -58q-8 -8 -19 -15t-22 -9q-9 -1 -26.5 -1.5t-39 -1.5t-45 -1.5t-45.5 -0.5q-15 0 -30.5 -0.5t-37 -1.5t-52 -1.5t-76.5 -1.5q-7 -17 -9.5 -45t-2.5 -54v-14q21 3 49.5 5t63.5 2q52 0 107 -10t99 -37.5t72.5 -78
t28.5 -131.5q0 -47 -14.5 -84.5t-38.5 -66t-54 -48.5t-61 -32.5t-61 -18.5t-52 -6q-25 0 -57.5 5.5t-67 17t-68 29t-59.5 40.5t-42 51.5t-16 62.5q0 58 33 87.5t82 29.5q22 0 50.5 -1t60 -6.5t62.5 -16.5t58 -32q0 -15 -4 -29.5t-11.5 -26t-18 -18.5t-22.5 -7
q-11 0 -21.5 2.5t-18.5 12.5q-13 15 -38.5 22.5t-48.5 7.5q-20 0 -34 -5.5t-14 -16.5q0 -23 20 -38.5t46.5 -25.5t53 -14.5t39.5 -4.5q59 0 94.5 17t55 41t26 50.5t6.5 44.5q0 34 -18 55.5t-48 32.5t-68 15t-78 4q-21 0 -39.5 -1l-38.5 -2q-3 0 -7 -1t-5 -2
q-12 -9 -23.5 -13t-20.5 -4l-16 -2q-10 0 -20.5 4t-29.5 18v22q-4 27 -6 53t-2 52q0 29 3.5 60.5t12.5 64.5q-19 14 -32 37.5t-20 46.5l28 22l39 8q42 1 100 2t117.5 2.5t114.5 3.5t92 6h11z" />
    <glyph glyph-name="six" unicode="6" 
d="M638 387q0 -39 -12.5 -80t-36 -81.5t-57 -79.5t-75.5 -73l4 -10t3 -11l1 -10q0 -17 -6.5 -33.5t-17.5 -30t-25.5 -21.5t-29.5 -8q-16 0 -32 10.5t-26 34.5q-15 -5 -32 -6t-34 -1q-54 0 -92 20t-62.5 54t-35.5 79t-11 94q0 74 17.5 148t51 142t81.5 126.5t109 102.5
q14 11 32.5 18t32.5 7q20 0 32 -9t12 -32q0 -20 -14.5 -41.5t-33.5 -43t-38.5 -41t-28.5 -33.5q-51 -76 -82 -170t-31 -191q0 -18 4 -40t12 -41t20.5 -31.5t30.5 -12.5q11 0 27 8q-3 12 -5.5 33.5t-4.5 44t-3.5 43t-1.5 31.5q0 46 13 99t39.5 98.5t67.5 75.5t97 30
q36 0 62.5 -15.5t44 -39.5t26 -54t8.5 -59zM426 278q0 -12 1 -24.5t3 -24.5q31 33 53 73.5t22 81.5q0 36 -8.5 51t-14.5 17q-25 -35 -40.5 -79t-15.5 -95z" />
    <glyph glyph-name="seven" unicode="7" 
d="M415 584l-133 15.5t-133 18.5q-6 -14 -14 -25t-24 -11q-10 0 -18.5 16.5t-15 36.5t-10 38.5t-3.5 21.5q0 12 7.5 24t19.5 22t26.5 16t28.5 6h8q38 -2 74.5 -10.5t73.5 -18.5q36 -9 72 -16t74 -10q11 -1 18 -0.5t16 -1.5q6 10 13 19.5t16.5 16t24 10.5t35.5 4q26 0 45 -20
t19 -46q0 -19 -4.5 -38t-22.5 -34q-13 -8 -24.5 -13l-20.5 -9q-73 -108 -113 -236.5t-52 -257.5q-2 -15 -9.5 -32t-18.5 -31.5t-25 -24.5t-29 -10q-29 0 -50.5 16t-21.5 51q0 61 14 126.5t38 131.5t55 130.5t64 124.5z" />
    <glyph glyph-name="eight" unicode="8" 
d="M75 226q0 29 12.5 54t34 46.5t50 40t60.5 35.5q-60 31 -95.5 70.5t-35.5 88.5q0 47 20.5 85.5t55 65.5t79.5 42t95 15q54 0 103.5 -15t86.5 -42t59 -63t22 -78q0 -29 -11 -53t-29.5 -44t-44.5 -36t-56 -30q30 -12 56 -27.5t45.5 -37t30.5 -51.5t11 -72q0 -49 -19.5 -88
t-54.5 -66t-83.5 -41.5t-107.5 -14.5q-64 0 -116 15.5t-89.5 44t-58 68.5t-20.5 88zM485 214q0 24 -14 44.5t-35 37.5t-45.5 30l-46.5 24q-29 -13 -53.5 -26.5t-43.5 -28.5t-29.5 -32.5t-10.5 -37.5q0 -15 9.5 -30t29 -26.5t50.5 -19t73 -7.5q13 0 33 4t38.5 13t31.5 22.5
t13 32.5zM270 626q-14 0 -20 3q-14 -17 -17.5 -39t-3.5 -31t10 -21t26.5 -25t39 -27t46.5 -27l53.5 29.5t44.5 28.5t30.5 27.5t11.5 27.5q0 15 -11.5 34t-31.5 33q4 -9 4 -24v-61l-35.5 30t-39 29.5t-37 22.5t-30.5 9q-3 0 -9.5 -6.5t-8.5 -7.5q-8 -5 -22 -5z" />
    <glyph glyph-name="nine" unicode="9" 
d="M258 -5q-13 6 -15 14t-2 19q0 7 3.5 18t9 23.5t12 24t13.5 19.5q43 50 78.5 108.5t58.5 125.5q-29 -27 -64.5 -45.5t-81.5 -18.5q-45 0 -78.5 19.5t-55.5 50.5t-33 70.5t-11 78.5q0 63 27 114.5t68 88t90 56.5t94 20q54 0 95.5 -20t69 -54t42 -78.5t14.5 -92.5
q0 -74 -17.5 -147.5t-50.5 -141t-81 -126.5t-108 -103q-14 -11 -32.5 -18t-34.5 -7zM452 553q0 27 -8 48t-20.5 35.5t-28 22t-30.5 7.5q-72 0 -111.5 -40t-39.5 -128q0 -16 4 -33.5t12 -32.5t20 -24.5t27 -9.5q33 0 53.5 6t34 18.5t22.5 31t19 43.5q2 6 11 15.5t35 17.5v23z
" />
    <glyph glyph-name="colon" unicode=":" horiz-adv-x="324" 
d="M244 82q-32 -38 -78 -38q-23 0 -44 7.5t-37 21t-25.5 33t-9.5 42.5q0 25 8.5 46.5t23.5 37.5t36 25t46 9q44 0 76 -32q34 -34 34 -78t-30 -74zM244 416q-28 -34 -78 -34q-23 0 -44 7t-37 20.5t-25.5 32.5t-9.5 42q0 25 8.5 46.5t23.5 37.5t36 25t46 9q47 0 78.5 -31
t31.5 -81q0 -44 -30 -74z" />
    <glyph glyph-name="semicolon" unicode=";" horiz-adv-x="310" 
d="M62 -176q22 0 44 7.5t39.5 21t28 33t10.5 42.5q0 15 -6.5 23t-15.5 11q-11 0 -16 -8q-16 -16 -38 -16q-11 0 -22.5 5t-20.5 12.5t-15 17.5t-6 21q0 21 3.5 42.5t15.5 39.5t34.5 29t60.5 11q39 0 64 -21.5t40 -50t20.5 -57.5t5.5 -43q0 -34 -11 -65t-31 -55t-48.5 -38
t-63.5 -14q-27 0 -49 11.5t-33 40.5h10zM164 618q22 0 41.5 -9t34.5 -24t23.5 -35t8.5 -42q0 -21 -8.5 -41t-23.5 -35t-34 -24.5t-40 -9.5q-23 0 -44 8t-37 21.5t-25.5 32t-9.5 40.5q0 51 31.5 84.5t82.5 33.5z" />
    <glyph glyph-name="question" unicode="?" horiz-adv-x="506" 
d="M176 557q-31 -14 -55 -14q-23 0 -42 9.5t-32.5 24.5t-21 32t-7.5 32q0 34 22.5 60.5t57 45t76 28t80.5 9.5q43 0 85 -14.5t74 -41t52 -62t20 -77.5q0 -33 -13.5 -62.5t-34.5 -57t-45.5 -54t-46 -53.5t-37 -55t-17.5 -59q0 -25 29 -25h28l8 -53l-21 -27l-15 -5
q-11 -4 -19.5 -5t-13.5 -1q-23 0 -47.5 7.5t-45 22.5t-34 36.5t-13.5 49.5q0 36 14.5 70.5t35.5 67t46.5 62l46.5 55.5t35.5 48.5t14.5 41.5q0 9 -4 20t-13.5 20t-24.5 15.5t-36 6.5q-5 0 -25.5 -0.5t-42.5 -3t-39.5 -6.5t-17.5 -10q0 -9 9 -17t30 -19v-42zM261 80
q16 0 31 -6.5t26.5 -18t18 -26.5t6.5 -31q0 -15 -7 -29.5t-18 -26t-25.5 -18t-30.5 -6.5t-31.5 5.5t-27.5 16t-19 24t-7 30.5q0 36 23 61t61 25z" />
    <glyph glyph-name="at" unicode="@" horiz-adv-x="661" 
d="M195 395q0 20 9 46t31.5 50.5t59.5 43t93 24.5q10 5 18 5q25 0 42.5 -13t29 -35.5t17 -52.5t5.5 -65q0 -43 -14 -83q3 -2 10 -2q27 0 35.5 22t8.5 61q0 64 -14.5 110t-40 76t-59 44.5t-70.5 14.5q-47 0 -87 -17.5t-69 -50.5t-46 -80t-17 -106q0 -51 14.5 -96.5t42 -79.5
t67 -53.5t89.5 -19.5q17 0 41.5 3.5t50 11t49 20.5t37.5 31q16 9 28 12.5t21 3.5q20 0 31.5 -10.5t11.5 -25.5q0 -2 -0.5 -5.5t-2.5 -8.5v2q-22 -47 -57 -74.5t-73.5 -42.5t-76.5 -19.5t-66 -4.5q-69 0 -127 28t-100 76.5t-65.5 115t-23.5 144.5q0 66 27.5 128.5t73.5 111.5
t105 79t121 30q76 0 129.5 -28.5t88 -77.5t50.5 -113.5t16 -136.5q0 -18 -5.5 -44t-20 -50t-40 -41t-64.5 -17q-34 0 -64 14q-17 -17 -40 -26t-51 -9q-79 0 -119 49t-40 131zM381 315q-20 35 -30 77.5t-11 81.5q-8 -5 -17.5 -12t-17.5 -16.5t-13.5 -22t-5.5 -28.5
q0 -90 67 -90q17 0 28 10zM392 484q-3 -20 -1 -40.5t7 -39t11.5 -34.5t12.5 -26q2 9 3 20.5t1 23.5q0 14 -0.5 26t-1.5 21q-1 12 -6 20.5t-10.5 14.5t-10.5 9.5t-5 4.5z" />
    <glyph glyph-name="bracketleft" unicode="[" horiz-adv-x="245" 
d="M-8 -33q0 21 12.5 34.5t32.5 22.5v685q-16 9 -28 22.5t-12 36.5q0 29 13.5 38t37.5 11q2 1 6 1q5 0 10 2q4 1 8.5 2t9.5 2h-1q17 4 43.5 6.5t59.5 2.5q6 0 15.5 -2l32.5 -7q7 -7 11 -13q0 -1 0.5 -1.5t0.5 -1.5v-1l2 -2q8 -11 16.5 -24t8.5 -29q0 -10 -7.5 -19.5t-19 -17
t-24 -12.5t-21.5 -6q-11 -1 -22 -1h-16q1 -17 1.5 -44t0.5 -63q0 -60 0.5 -134l1 -147.5t1 -138.5t0.5 -108v-21q5 0 12 -0.5t16 -0.5q10 -1 22.5 -6t23.5 -13t19 -17.5t8 -18.5q0 -19 -9 -32.5t-18 -24.5q-2 -2 -4 -5l-9 -10q-20 -7 -30.5 -8.5t-16.5 -1.5q-35 0 -60 2.5
t-41 6.5q-2 1 -5.5 1.5t-5.5 1.5q-8 2 -14.5 3t-11.5 2q-25 2 -37.5 10t-12.5 38z" />
    <glyph glyph-name="backslash" unicode="\" horiz-adv-x="399" 
d="M-46 689q-2 3 -2.5 6.5t-0.5 5.5q0 6 1 9q1 2 2 4.5t3 5.5q4 9 16 18.5t27 17.5t31 13t29 5h7l4 -2h-3q8 -2 14.5 -5t6.5 -14v-4q25 -62 50.5 -119l53.5 -115l59.5 -120l69.5 -135l58.5 -114.5l66.5 -131.5q1 -3 1 -8t-3 -14q-2 -7 -6 -12q-6 -9 -15.5 -20t-20.5 -20
t-23 -15t-23 -6q-5 0 -7 1l-7 1q-8 3 -15 9t-7 19l1 -5q-19 49 -44 105l-51.5 114.5l-55 117l-55 112l-50.5 99l-43 79.5h2z" />
    <glyph glyph-name="bracketright" unicode="]" horiz-adv-x="245" 
d="M281 767q0 -20 -12.5 -33.5t-32.5 -22.5v-686q16 -9 28.5 -21.5t12.5 -37.5q0 -30 -13 -38t-37 -10q-5 -1 -11.5 -2t-14.5 -3l2 1l-23 -4q-16 -4 -36 -6.5t-54 -2.5q-8 0 -18.5 1.5t-30.5 8.5l-14 16l-1 1q-8 11 -16 24t-8 31q0 10 7.5 19.5t19 17t24 12.5t22.5 6
q11 1 20 1h16v106q0 60 -0.5 134.5l-1 148t-1 138.5t-0.5 108v21h-14q-6 0 -15 1q-10 1 -22.5 6t-23.5 13t-18.5 17.5t-7.5 18.5q0 17 7.5 30t16.5 25q2 2 6 8t6 8q24 7 34 8.5t17 1.5q32 0 53.5 -2.5t38.5 -6.5q11 -2 25 -4t19 -3q25 -2 38 -11t13 -38z" />
    <glyph glyph-name="asciicircum" unicode="^" horiz-adv-x="332" 
d="M265 423q-26 1 -51 8.5t-45 21.5q-5 -5 -10 -9l-10 -8q-14 -8 -29.5 -14t-37.5 -6q-17 0 -30 7.5t-23 19.5t-15 25.5t-5 25.5q0 11 6.5 24t24.5 35q22 -11 26.5 -12.5t6.5 -1.5q5 0 10.5 6.5l13.5 15.5q2 3 3.5 6t4.5 12q4 25 24.5 40.5t42.5 15.5q20 0 38.5 -10.5
t25.5 -36.5q2 -5 2.5 -8.5t1.5 -7.5q2 -5 4 -11t7 -11v1q0 -1 5 -2t10 -1q29 0 43 -18.5t14 -40.5q0 -10 -3.5 -21.5t-11 -21.5t-18 -16.5t-25.5 -6.5z" />
    <glyph glyph-name="underscore" unicode="_" horiz-adv-x="335" 
d="M0 -90v85h335v-85h-335z" />
    <glyph glyph-name="c" unicode="C" horiz-adv-x="617" 
d="M558 174q13 -11 21.5 -26t8.5 -38q0 -24 -14 -42.5t-38 -32t-54 -22.5t-63 -14t-65 -7t-59 -2q-53 0 -103 31t-88 79.5t-61 108.5t-23 119q0 79 28 148t80.5 119.5t128 79.5t170.5 29q15 0 34.5 -1t38 -5.5t34.5 -13t24 -24.5q6 -13 10.5 -20.5t7 -14t3.5 -13.5t1 -18
q0 -14 -2 -28t-7 -32q-17 -8 -32.5 -13t-30.5 -5q-58 0 -96 62l-93 -26q-29 -8 -58 -24.5t-52.5 -44.5t-38 -67.5t-14.5 -93.5q0 -26 11.5 -59t33 -62t53 -49t71.5 -20q35 0 77.5 12t97.5 30h58z" />
    <glyph glyph-name="c" unicode="c" horiz-adv-x="617" 
d="M558 174q13 -11 21.5 -26t8.5 -38q0 -24 -14 -42.5t-38 -32t-54 -22.5t-63 -14t-65 -7t-59 -2q-53 0 -103 31t-88 79.5t-61 108.5t-23 119q0 79 28 148t80.5 119.5t128 79.5t170.5 29q15 0 34.5 -1t38 -5.5t34.5 -13t24 -24.5q6 -13 10.5 -20.5t7 -14t3.5 -13.5t1 -18
q0 -14 -2 -28t-7 -32q-17 -8 -32.5 -13t-30.5 -5q-58 0 -96 62l-93 -26q-29 -8 -58 -24.5t-52.5 -44.5t-38 -67.5t-14.5 -93.5q0 -26 11.5 -59t33 -62t53 -49t71.5 -20q35 0 77.5 12t97.5 30h58z" />
    <glyph glyph-name="d" unicode="D" horiz-adv-x="766" 
d="M52 626q-2 6 -2 11v11q0 35 25.5 55t76.5 31q18 2 28 2h28q110 0 206.5 -33t168 -92t112.5 -141t41 -180q0 -63 -34.5 -117t-89.5 -94t-123.5 -62.5t-136.5 -22.5h-12q-11 -26 -54 -50h-16q-38 0 -55 19.5t-17 60.5v8q-134 86 -134 170q0 41 24 80q17 -23 40.5 -40
t55.5 -32q-1 8 -1.5 31.5t-0.5 49.5v48v31q0 59 7 100.5t21.5 67t35.5 37t50 11.5h14q8 -51 9 -97t1 -97v-236q21 -9 45 -10.5t39 -1.5q30 0 64 15t63 37.5t48 49t19 50.5q0 73 -38 134.5t-101 106.5t-144.5 70t-168.5 25h-24l-44 -42z" />
    <glyph glyph-name="d" unicode="d" horiz-adv-x="766" 
d="M52 626q-2 6 -2 11v11q0 35 25.5 55t76.5 31q18 2 28 2h28q110 0 206.5 -33t168 -92t112.5 -141t41 -180q0 -63 -34.5 -117t-89.5 -94t-123.5 -62.5t-136.5 -22.5h-12q-11 -26 -54 -50h-16q-38 0 -55 19.5t-17 60.5v8q-134 86 -134 170q0 41 24 80q17 -23 40.5 -40
t55.5 -32q-1 8 -1.5 31.5t-0.5 49.5v48v31q0 59 7 100.5t21.5 67t35.5 37t50 11.5h14q8 -51 9 -97t1 -97v-236q21 -9 45 -10.5t39 -1.5q30 0 64 15t63 37.5t48 49t19 50.5q0 73 -38 134.5t-101 106.5t-144.5 70t-168.5 25h-24l-44 -42z" />
    <glyph glyph-name="e" unicode="E" horiz-adv-x="610" 
d="M549 148q1 -4 1 -11q0 -14 -8 -19q-18 -16 -47 -39t-66 -44.5t-82 -37t-94 -15.5q-43 0 -77.5 16t-58.5 42.5t-37 60.5t-13 70q0 32 9.5 70.5t17.5 78.5q-6 15 -15 27t-9 33q0 8 1.5 15l3.5 17q11 5 23.5 9.5t26.5 6.5l32 110l-40.5 17.5t-41.5 20.5t-32 25t-13 32
q0 14 12.5 18.5t35.5 6.5q31 1 65 7.5l74.5 14t89.5 13t111 5.5q14 0 32.5 -2.5t51.5 -11.5q8 -8 21 -19.5t26 -25t22 -27.5t9 -27q0 -8 -10.5 -15t-26.5 -13t-33.5 -10t-31.5 -5q-32 -2 -53 -3t-38 -1.5t-33 -0.5q-15 0 -35 -1h-15t-14 -2q-4 -5 -9.5 -18t-5.5 -36
q0 -14 3 -30q1 -6 5.5 -13t15.5 -7h148l28 -4q9 -11 13.5 -27.5t6.5 -30.5q1 -5 1 -16t-3 -21t-13 -11q-13 -1 -36 -2t-52.5 -2t-64.5 -1.5t-72 -0.5q-3 0 -6 -1t-5 -7l-19 -61.5t-11 -66.5q0 -10 1 -15q1 -8 6 -14t16 -6q18 0 48 10l65 22.5t72 22.5t69 10q9 0 18.5 -5.5
t18 -14.5t14 -19.5t7.5 -20.5z" />
    <glyph glyph-name="e" unicode="e" horiz-adv-x="610" 
d="M549 148q1 -4 1 -11q0 -14 -8 -19q-18 -16 -47 -39t-66 -44.5t-82 -37t-94 -15.5q-43 0 -77.5 16t-58.5 42.5t-37 60.5t-13 70q0 32 9.5 70.5t17.5 78.5q-6 15 -15 27t-9 33q0 8 1.5 15l3.5 17q11 5 23.5 9.5t26.5 6.5l32 110l-40.5 17.5t-41.5 20.5t-32 25t-13 32
q0 14 12.5 18.5t35.5 6.5q31 1 65 7.5l74.5 14t89.5 13t111 5.5q14 0 32.5 -2.5t51.5 -11.5q8 -8 21 -19.5t26 -25t22 -27.5t9 -27q0 -8 -10.5 -15t-26.5 -13t-33.5 -10t-31.5 -5q-32 -2 -53 -3t-38 -1.5t-33 -0.5q-15 0 -35 -1h-15t-14 -2q-4 -5 -9.5 -18t-5.5 -36
q0 -14 3 -30q1 -6 5.5 -13t15.5 -7h148l28 -4q9 -11 13.5 -27.5t6.5 -30.5q1 -5 1 -16t-3 -21t-13 -11q-13 -1 -36 -2t-52.5 -2t-64.5 -1.5t-72 -0.5q-3 0 -6 -1t-5 -7l-19 -61.5t-11 -66.5q0 -10 1 -15q1 -8 6 -14t16 -6q18 0 48 10l65 22.5t72 22.5t69 10q9 0 18.5 -5.5
t18 -14.5t14 -19.5t7.5 -20.5z" />
    <glyph glyph-name="f" unicode="F" horiz-adv-x="662" 
d="M232 8q-24 -6 -47.5 -10t-40.5 -4q-18 0 -31 5.5t-21 20.5q-11 15 -14.5 40.5t-3.5 63.5q0 34 4 79t12.5 99t21.5 115.5t32 126.5q-39 6 -56.5 21.5t-25.5 32.5l-2 6q-3 8 -5.5 18t-2.5 20l2 14q52 4 101 10l98 12.5t100 12.5t107 9q59 0 91.5 -0.5t49.5 -2.5t24.5 -6
t16.5 -10q2 -1 6 -5q14 -11 20 -26.5t6 -29.5t-9 -23t-24 -14t-34 -7t-39 -2q-26 0 -50 2t-38 2t-29 -1.5t-34.5 -4.5t-45 -8l-59.5 -12q-15 -29 -24.5 -62.5t-15.5 -69.5q90 0 140 0.5t76 1.5t36 1.5t20 2.5q11 -11 14.5 -23.5t3.5 -26.5q0 -15 -4 -34t-18 -36
q-29 -3 -54 -3.5t-48 -0.5h-52q-18 0 -34 -0.5t-32.5 -2.5t-34 -6t-39.5 -11q-8 -30 -10.5 -66t-2.5 -74q0 -28 0.5 -55t0.5 -51v-15t-2 -13z" />
    <glyph glyph-name="f" unicode="f" horiz-adv-x="662" 
d="M232 8q-24 -6 -47.5 -10t-40.5 -4q-18 0 -31 5.5t-21 20.5q-11 15 -14.5 40.5t-3.5 63.5q0 34 4 79t12.5 99t21.5 115.5t32 126.5q-39 6 -56.5 21.5t-25.5 32.5l-2 6q-3 8 -5.5 18t-2.5 20l2 14q52 4 101 10l98 12.5t100 12.5t107 9q59 0 91.5 -0.5t49.5 -2.5t24.5 -6
t16.5 -10q2 -1 6 -5q14 -11 20 -26.5t6 -29.5t-9 -23t-24 -14t-34 -7t-39 -2q-26 0 -50 2t-38 2t-29 -1.5t-34.5 -4.5t-45 -8l-59.5 -12q-15 -29 -24.5 -62.5t-15.5 -69.5q90 0 140 0.5t76 1.5t36 1.5t20 2.5q11 -11 14.5 -23.5t3.5 -26.5q0 -15 -4 -34t-18 -36
q-29 -3 -54 -3.5t-48 -0.5h-52q-18 0 -34 -0.5t-32.5 -2.5t-34 -6t-39.5 -11q-8 -30 -10.5 -66t-2.5 -74q0 -28 0.5 -55t0.5 -51v-15t-2 -13z" />
    <glyph glyph-name="g" unicode="G" horiz-adv-x="674" 
d="M554 512q-18 -12 -40 -17t-46 -5q9 17 13.5 30.5t4.5 21.5q0 6 -5 11t-19 5q-9 0 -22.5 -2.5t-31.5 -7.5q-52 -12 -97 -36t-78.5 -60t-53 -83.5t-19.5 -106.5q0 -66 37.5 -101t118.5 -35q18 0 51 4t65 18.5t56 42.5t24 77q0 10 -10 15.5t-24.5 8.5t-30.5 3.5t-29 0.5
q-42 0 -71.5 -21.5t-52.5 -62.5q-33 10 -39.5 24t-6.5 38q0 32 14 54t36.5 37t51.5 23t59 12t58.5 5t50.5 1q34 0 60.5 -11t45 -29t28.5 -41.5t10 -48.5q0 -68 -24.5 -120.5t-71 -88.5t-114.5 -54.5t-154 -18.5q-76 0 -129 17t-86.5 51.5t-49 85t-15.5 118.5q0 65 20.5 123
t53.5 107t76.5 87.5t89.5 66t91 42t83 14.5q150 0 150 -100q0 -20 -6 -43t-18 -47z" />
    <glyph glyph-name="g" unicode="g" horiz-adv-x="674" 
d="M554 512q-18 -12 -40 -17t-46 -5q9 17 13.5 30.5t4.5 21.5q0 6 -5 11t-19 5q-9 0 -22.5 -2.5t-31.5 -7.5q-52 -12 -97 -36t-78.5 -60t-53 -83.5t-19.5 -106.5q0 -66 37.5 -101t118.5 -35q18 0 51 4t65 18.5t56 42.5t24 77q0 10 -10 15.5t-24.5 8.5t-30.5 3.5t-29 0.5
q-42 0 -71.5 -21.5t-52.5 -62.5q-33 10 -39.5 24t-6.5 38q0 32 14 54t36.5 37t51.5 23t59 12t58.5 5t50.5 1q34 0 60.5 -11t45 -29t28.5 -41.5t10 -48.5q0 -68 -24.5 -120.5t-71 -88.5t-114.5 -54.5t-154 -18.5q-76 0 -129 17t-86.5 51.5t-49 85t-15.5 118.5q0 65 20.5 123
t53.5 107t76.5 87.5t89.5 66t91 42t83 14.5q150 0 150 -100q0 -20 -6 -43t-18 -47z" />
    <glyph glyph-name="h" unicode="H" horiz-adv-x="612" 
d="M396 662q9 35 46 56h28q12 0 34.5 -3t39.5 -11v-25q0 -15 2 -33q0 -11 1 -23.5t1 -26.5l14 -256q0 -29 3.5 -54.5t8.5 -51.5l1 -5q5 -27 8 -54t3 -57q0 -11 -0.5 -26.5t-2.5 -31t-6.5 -29.5t-12.5 -23q-14 -5 -24 -7.5t-22 -2.5q-11 0 -24.5 3.5t-25.5 10.5t-21 17
t-11 23l-8 156h-6q-20 -2 -36.5 -3t-31.5 -1q-21 0 -46 1.5t-60 4.5q1 -18 2 -42t1.5 -47.5t0.5 -42.5v-26q0 -15 -2 -23.5t-8.5 -13t-19 -7t-32.5 -4.5q-20 0 -37.5 3.5t-40.5 20.5l-16 58q-3 8 -5.5 30.5t-4 48t-2 48.5t-0.5 33q-18 8 -40 28.5t-30 43.5q-2 5 -4 17
t-3.5 26.5l-3 29.5t-1.5 27q0 3 1 4.5t1 3.5v18q27 -17 50.5 -27t41.5 -15l14 266l32 16q18 6 40 6q7 0 17.5 -1.5t22 -4t21.5 -6.5t15 -8q0 -12 -1 -18l-3 -18q-3 -26 -6.5 -75t-3.5 -111v-92q16 -3 28.5 -5t26 -3t30.5 -1.5t43 -0.5q14 0 22.5 0.5t23.5 3.5z" />
    <glyph glyph-name="h" unicode="h" horiz-adv-x="612" 
d="M396 662q9 35 46 56h28q12 0 34.5 -3t39.5 -11v-25q0 -15 2 -33q0 -11 1 -23.5t1 -26.5l14 -256q0 -29 3.5 -54.5t8.5 -51.5l1 -5q5 -27 8 -54t3 -57q0 -11 -0.5 -26.5t-2.5 -31t-6.5 -29.5t-12.5 -23q-14 -5 -24 -7.5t-22 -2.5q-11 0 -24.5 3.5t-25.5 10.5t-21 17
t-11 23l-8 156h-6q-20 -2 -36.5 -3t-31.5 -1q-21 0 -46 1.5t-60 4.5q1 -18 2 -42t1.5 -47.5t0.5 -42.5v-26q0 -15 -2 -23.5t-8.5 -13t-19 -7t-32.5 -4.5q-20 0 -37.5 3.5t-40.5 20.5l-16 58q-3 8 -5.5 30.5t-4 48t-2 48.5t-0.5 33q-18 8 -40 28.5t-30 43.5q-2 5 -4 17
t-3.5 26.5l-3 29.5t-1.5 27q0 3 1 4.5t1 3.5v18q27 -17 50.5 -27t41.5 -15l14 266l32 16q18 6 40 6q7 0 17.5 -1.5t22 -4t21.5 -6.5t15 -8q0 -12 -1 -18l-3 -18q-3 -26 -6.5 -75t-3.5 -111v-92q16 -3 28.5 -5t26 -3t30.5 -1.5t43 -0.5q14 0 22.5 0.5t23.5 3.5z" />
    <glyph glyph-name="i" unicode="I" horiz-adv-x="319" 
d="M126 720q54 -2 78.5 -32.5t26.5 -87.5q2 -61 4 -129t3.5 -137.5t2.5 -137.5t1 -128q0 -12 -2.5 -24.5t-9.5 -22.5t-19 -16.5t-31 -6.5q-12 0 -28 3.5t-28 8.5q-10 3 -17 17t-12 31.5t-7.5 33.5t-3.5 24q0 24 0.5 45.5t1.5 45.5t2.5 54.5l3.5 74.5q1 15 1 48q0 34 1.5 83
t6 109.5t13.5 129.5q2 8 4 11t8 3z" />
    <glyph glyph-name="i" unicode="i" horiz-adv-x="319" 
d="M126 720q54 -2 78.5 -32.5t26.5 -87.5q2 -61 4 -129t3.5 -137.5t2.5 -137.5t1 -128q0 -12 -2.5 -24.5t-9.5 -22.5t-19 -16.5t-31 -6.5q-12 0 -28 3.5t-28 8.5q-10 3 -17 17t-12 31.5t-7.5 33.5t-3.5 24q0 24 0.5 45.5t1.5 45.5t2.5 54.5l3.5 74.5q1 15 1 48q0 34 1.5 83
t6 109.5t13.5 129.5q2 8 4 11t8 3z" />
    <glyph glyph-name="k" unicode="K" horiz-adv-x="612" 
d="M72 692q9 8 18.5 11t15.5 3q35 0 57.5 -57.5t22.5 -164.5v-24q0 -9 -2 -26q49 18 86.5 39t70.5 50.5t65.5 69.5t71.5 97q7 10 18 10q8 0 24 -10t31.5 -23.5t27 -26.5t11.5 -20v-4q-28 -55 -59 -96t-66 -74t-73 -61.5l-80 -58.5q5 -9 26.5 -28t55.5 -44t78.5 -54t97.5 -58
q16 -9 24 -29t8 -40q0 -18 -6 -31q-6 -15 -17.5 -28.5t-34.5 -15.5q-60 20 -108.5 48.5t-90.5 61t-81 67.5l-80 69l10 -222q-18 -14 -38.5 -20t-41.5 -6q-15 0 -29.5 1.5t-28.5 6.5q-6 21 -8 42.5t-2 45.5q0 91 -6 178t-6 174v216z" />
    <glyph glyph-name="k" unicode="k" horiz-adv-x="612" 
d="M72 692q9 8 18.5 11t15.5 3q35 0 57.5 -57.5t22.5 -164.5v-24q0 -9 -2 -26q49 18 86.5 39t70.5 50.5t65.5 69.5t71.5 97q7 10 18 10q8 0 24 -10t31.5 -23.5t27 -26.5t11.5 -20v-4q-28 -55 -59 -96t-66 -74t-73 -61.5l-80 -58.5q5 -9 26.5 -28t55.5 -44t78.5 -54t97.5 -58
q16 -9 24 -29t8 -40q0 -18 -6 -31q-6 -15 -17.5 -28.5t-34.5 -15.5q-60 20 -108.5 48.5t-90.5 61t-81 67.5l-80 69l10 -222q-18 -14 -38.5 -20t-41.5 -6q-15 0 -29.5 1.5t-28.5 6.5q-6 21 -8 42.5t-2 45.5q0 91 -6 178t-6 174v216z" />
    <glyph glyph-name="l" unicode="L" horiz-adv-x="500" 
d="M242 728q44 0 44 -44q-1 -54 -11 -99t-24 -98t-30 -123t-29 -174v-8q0 -14 6.5 -24t15.5 -10q10 0 28.5 4t41 11l47 15t47.5 17q23 8 49 19.5t41 11.5q7 0 11.5 -5.5t7 -13t3 -15.5t0.5 -12q0 -32 -29.5 -69.5t-72 -69.5t-90 -53.5t-84.5 -21.5q-50 0 -83.5 22t-53 56
t-27.5 75t-8 79q0 56 14 127.5t33.5 141t41.5 128t39 89.5q9 17 27 26t45 18z" />
    <glyph glyph-name="l" unicode="l" horiz-adv-x="500" 
d="M242 728q44 0 44 -44q-1 -54 -11 -99t-24 -98t-30 -123t-29 -174v-8q0 -14 6.5 -24t15.5 -10q10 0 28.5 4t41 11l47 15t47.5 17q23 8 49 19.5t41 11.5q7 0 11.5 -5.5t7 -13t3 -15.5t0.5 -12q0 -32 -29.5 -69.5t-72 -69.5t-90 -53.5t-84.5 -21.5q-50 0 -83.5 22t-53 56
t-27.5 75t-8 79q0 56 14 127.5t33.5 141t41.5 128t39 89.5q9 17 27 26t45 18z" />
    <glyph glyph-name="m" unicode="M" horiz-adv-x="938" 
d="M220 552q1 1 3 5l23.5 38.5t42 53t59 47t72.5 20.5q20 0 32.5 -13.5t20 -35.5t10.5 -50t4 -57q2 -48 4 -89t5 -61q7 17 20 43.5t33 56t45.5 59t56 53t65.5 38t74 14.5q22 0 40.5 -10t32.5 -25.5t22.5 -34t9.5 -34.5q1 -14 3 -46t3.5 -75t2.5 -93t1 -101
q0 -54 -1.5 -105.5t-6 -91t-12 -64t-19.5 -24.5h-6q-37 0 -59 24.5t-33.5 56.5t-15 62.5t-4.5 43.5v3q-1 13 -1.5 37.5t-1 56t-1 66.5t-0.5 68q0 45 1.5 81t4.5 47q-24 -10 -47 -38.5t-43.5 -68.5t-38.5 -86.5t-33.5 -92l-28.5 -87t-23 -69.5q-5 -14 -21 -21t-31 -7h-1
q-26 0 -45.5 33t-34.5 84t-25 111.5t-16.5 115.5t-9 97t-2.5 55q-18 -11 -34 -29t-30 -39.5t-26.5 -44t-22.5 -43.5q-11 -22 -19 -44t-13.5 -49.5t-8 -63.5t-2.5 -87v-14q0 -30 -1.5 -56.5t-8.5 -46.5t-21 -32t-39 -13h-6q-20 0 -34 12t-24 44q-5 16 -9.5 49.5t-7.5 71
t-5 73.5t-2 58q0 62 5.5 124.5t16.5 115.5q2 5 3 10.5l2 10.5l11.5 48t14.5 37.5t24 24.5t39 9q21 0 33.5 -14t19.5 -33t10 -38.5t5 -30.5z" />
    <glyph glyph-name="m" unicode="m" horiz-adv-x="938" 
d="M220 552q1 1 3 5l23.5 38.5t42 53t59 47t72.5 20.5q20 0 32.5 -13.5t20 -35.5t10.5 -50t4 -57q2 -48 4 -89t5 -61q7 17 20 43.5t33 56t45.5 59t56 53t65.5 38t74 14.5q22 0 40.5 -10t32.5 -25.5t22.5 -34t9.5 -34.5q1 -14 3 -46t3.5 -75t2.5 -93t1 -101
q0 -54 -1.5 -105.5t-6 -91t-12 -64t-19.5 -24.5h-6q-37 0 -59 24.5t-33.5 56.5t-15 62.5t-4.5 43.5v3q-1 13 -1.5 37.5t-1 56t-1 66.5t-0.5 68q0 45 1.5 81t4.5 47q-24 -10 -47 -38.5t-43.5 -68.5t-38.5 -86.5t-33.5 -92l-28.5 -87t-23 -69.5q-5 -14 -21 -21t-31 -7h-1
q-26 0 -45.5 33t-34.5 84t-25 111.5t-16.5 115.5t-9 97t-2.5 55q-18 -11 -34 -29t-30 -39.5t-26.5 -44t-22.5 -43.5q-11 -22 -19 -44t-13.5 -49.5t-8 -63.5t-2.5 -87v-14q0 -30 -1.5 -56.5t-8.5 -46.5t-21 -32t-39 -13h-6q-20 0 -34 12t-24 44q-5 16 -9.5 49.5t-7.5 71
t-5 73.5t-2 58q0 62 5.5 124.5t16.5 115.5q2 5 3 10.5l2 10.5l11.5 48t14.5 37.5t24 24.5t39 9q21 0 33.5 -14t19.5 -33t10 -38.5t5 -30.5z" />
    <glyph glyph-name="n" unicode="N" horiz-adv-x="664" 
d="M390 746q0 12 3 27t17 15t35.5 -16t45.5 -45.5t48 -72t43.5 -95.5t31.5 -115.5t12 -131.5q0 -46 -10.5 -93.5t-30 -86.5t-48 -63.5t-65.5 -24.5q-29 0 -58 27.5t-56.5 69t-51.5 89.5l-44 89.5t-34.5 69t-21.5 27.5q-3 0 -7 -5t-7 -17q-2 -6 -3 -26t-2.5 -47.5t-3 -60
l-3 -63.5t-4 -57.5t-4.5 -41.5l-1 -7q-2 -12 -6 -27t-10.5 -28.5t-17 -22.5t-25.5 -9q-24 0 -39 18t-24 43t-12 52t-3 45q0 26 4 71t12.5 97.5t20.5 106.5t27 98t33.5 71.5t40.5 27.5q15 0 34.5 -19t42.5 -50.5t48.5 -72l52.5 -83l54 -83.5t54 -74q6 -6 9 -11t5 -5
q9 0 10.5 13t1.5 39q0 46 -3 82.5t-8.5 68t-13.5 61t-18 61.5l-21.5 69t-23.5 84l-6 24v8z" />
    <glyph glyph-name="n" unicode="n" horiz-adv-x="664" 
d="M390 746q0 12 3 27t17 15t35.5 -16t45.5 -45.5t48 -72t43.5 -95.5t31.5 -115.5t12 -131.5q0 -46 -10.5 -93.5t-30 -86.5t-48 -63.5t-65.5 -24.5q-29 0 -58 27.5t-56.5 69t-51.5 89.5l-44 89.5t-34.5 69t-21.5 27.5q-3 0 -7 -5t-7 -17q-2 -6 -3 -26t-2.5 -47.5t-3 -60
l-3 -63.5t-4 -57.5t-4.5 -41.5l-1 -7q-2 -12 -6 -27t-10.5 -28.5t-17 -22.5t-25.5 -9q-24 0 -39 18t-24 43t-12 52t-3 45q0 26 4 71t12.5 97.5t20.5 106.5t27 98t33.5 71.5t40.5 27.5q15 0 34.5 -19t42.5 -50.5t48.5 -72l52.5 -83l54 -83.5t54 -74q6 -6 9 -11t5 -5
q9 0 10.5 13t1.5 39q0 46 -3 82.5t-8.5 68t-13.5 61t-18 61.5l-21.5 69t-23.5 84l-6 24v8z" />
    <glyph glyph-name="o" unicode="O" horiz-adv-x="736" 
d="M96 78q-41 68 -58.5 132t-17.5 124q0 80 32 148.5t85 118t122.5 77.5t144.5 28q66 0 106 -17q50 -20 50 -39q0 -12 -15 -18t-29 -8h4q33 0 68.5 -8.5t67.5 -29.5q13 -8 24 -26.5t19 -41.5t12.5 -47.5t4.5 -44.5q0 -92 -45 -168t-117 -130.5t-162 -86t-180 -35.5
q-6 -18 -22 -32.5l-34 -31.5q-30 39 -45 73.5t-15 58.5v4zM524 502q-40 0 -74 -23t-64 -65.5t-58 -103t-56 -134.5h26q26 0 59 9.5t67 27t66.5 42t57.5 53.5t40.5 62t15.5 68q0 32 -22 48t-58 16zM431 609q18 5 35 9t36 6q-30 -3 -63.5 -11t-60.5 -17q-63 -15 -108.5 -47
t-75.5 -74t-44 -89.5t-14 -93.5q0 -15 1.5 -30t6.5 -30q32 82 63.5 146t64.5 110.5t69.5 75.5t78.5 42z" />
    <glyph glyph-name="o" unicode="o" horiz-adv-x="736" 
d="M96 78q-41 68 -58.5 132t-17.5 124q0 80 32 148.5t85 118t122.5 77.5t144.5 28q66 0 106 -17q50 -20 50 -39q0 -12 -15 -18t-29 -8h4q33 0 68.5 -8.5t67.5 -29.5q13 -8 24 -26.5t19 -41.5t12.5 -47.5t4.5 -44.5q0 -92 -45 -168t-117 -130.5t-162 -86t-180 -35.5
q-6 -18 -22 -32.5l-34 -31.5q-30 39 -45 73.5t-15 58.5v4zM524 502q-40 0 -74 -23t-64 -65.5t-58 -103t-56 -134.5h26q26 0 59 9.5t67 27t66.5 42t57.5 53.5t40.5 62t15.5 68q0 32 -22 48t-58 16zM431 609q18 5 35 9t36 6q-30 -3 -63.5 -11t-60.5 -17q-63 -15 -108.5 -47
t-75.5 -74t-44 -89.5t-14 -93.5q0 -15 1.5 -30t6.5 -30q32 82 63.5 146t64.5 110.5t69.5 75.5t78.5 42z" />
    <glyph glyph-name="s" unicode="S" horiz-adv-x="733" 
d="M498 258q0 -9 -4 -13q-12 -13 -44 -28t-70 -15q-5 0 -23 6.5l-43 15t-52 15t-50 6.5t-38 -9.5t-15 -33.5q0 -8 13 -18t34 -19q23 -9 54 -14t66 -5q43 0 88 7.5t81.5 22t59.5 35.5t23 49q0 19 -16 34t-41.5 27t-58 21t-65.5 14.5t-63.5 8.5t-51.5 4q-86 2 -137.5 9
t-78.5 20.5t-35.5 36t-8.5 56.5q0 50 28 86t71 60t93.5 38t94.5 21.5t75 9.5t36 2q75 0 140.5 -11.5t115.5 -25.5q11 -2 16.5 -8t5.5 -24q-2 -20 -14.5 -31.5t-29.5 -17.5q-12 -3 -33 -7t-33 -6q-14 -2 -51 -4.5l-84.5 -6t-99 -8t-94.5 -12t-71 -18t-28 -24.5q0 -11 26 -17
t62 -10.5t74.5 -7t62.5 -5.5q72 -9 131.5 -19.5t102 -33t66 -63t23.5 -108.5q0 -52 -20.5 -90.5t-52 -65.5t-70.5 -44t-76 -27t-68 -13.5t-47 -3.5q-64 0 -122 19.5t-102 49.5t-70 66t-26 69q0 39 17 65t44 41t59 21t62 6q28 0 60.5 -4t66 -12.5t67 -21t64.5 -29.5
q4 -4 4 -8z" />
    <glyph glyph-name="s" unicode="s" horiz-adv-x="733" 
d="M498 258q0 -9 -4 -13q-12 -13 -44 -28t-70 -15q-5 0 -23 6.5l-43 15t-52 15t-50 6.5t-38 -9.5t-15 -33.5q0 -8 13 -18t34 -19q23 -9 54 -14t66 -5q43 0 88 7.5t81.5 22t59.5 35.5t23 49q0 19 -16 34t-41.5 27t-58 21t-65.5 14.5t-63.5 8.5t-51.5 4q-86 2 -137.5 9
t-78.5 20.5t-35.5 36t-8.5 56.5q0 50 28 86t71 60t93.5 38t94.5 21.5t75 9.5t36 2q75 0 140.5 -11.5t115.5 -25.5q11 -2 16.5 -8t5.5 -24q-2 -20 -14.5 -31.5t-29.5 -17.5q-12 -3 -33 -7t-33 -6q-14 -2 -51 -4.5l-84.5 -6t-99 -8t-94.5 -12t-71 -18t-28 -24.5q0 -11 26 -17
t62 -10.5t74.5 -7t62.5 -5.5q72 -9 131.5 -19.5t102 -33t66 -63t23.5 -108.5q0 -52 -20.5 -90.5t-52 -65.5t-70.5 -44t-76 -27t-68 -13.5t-47 -3.5q-64 0 -122 19.5t-102 49.5t-70 66t-26 69q0 39 17 65t44 41t59 21t62 6q28 0 60.5 -4t66 -12.5t67 -21t64.5 -29.5
q4 -4 4 -8z" />
    <glyph glyph-name="t" unicode="T" horiz-adv-x="622" 
d="M332 -138q-14 -12 -23.5 -16t-32.5 -4q-14 0 -28 6.5t-26 16.5t-21.5 21.5t-15.5 21.5q-12 20 -18.5 45.5t-10.5 52.5t-5 54t-1 50q0 64 4.5 116.5t12 97.5t18 84.5t23.5 79.5q-103 41 -155.5 89t-52.5 107q0 10 2 23.5t6.5 26.5t12.5 23.5t19 14.5q10 0 13 -8t3.5 -18.5
t1.5 -21t6 -14.5q51 -42 103.5 -59.5t114.5 -26.5q13 13 31 33t41.5 39.5t53 33.5t66.5 14q20 0 44 -5t45 -21.5t35 -48.5t14 -87q0 -43 -26.5 -69t-63.5 -40.5t-76.5 -19.5t-65.5 -5h-12q-13 -48 -22.5 -92.5t-15.5 -89t-9 -90t-3 -94.5q0 -59 6 -114.5t8 -105.5zM410 610
q8 -2 15.5 -3t16.5 -1q12 0 26.5 4t26.5 11t20.5 16t8.5 19q0 11 -4 16.5t-16 5.5q-15 0 -31.5 -3.5t-30 -11.5t-22.5 -21t-10 -32z" />
    <glyph glyph-name="t" unicode="t" horiz-adv-x="622" 
d="M332 -138q-14 -12 -23.5 -16t-32.5 -4q-14 0 -28 6.5t-26 16.5t-21.5 21.5t-15.5 21.5q-12 20 -18.5 45.5t-10.5 52.5t-5 54t-1 50q0 64 4.5 116.5t12 97.5t18 84.5t23.5 79.5q-103 41 -155.5 89t-52.5 107q0 10 2 23.5t6.5 26.5t12.5 23.5t19 14.5q10 0 13 -8t3.5 -18.5
t1.5 -21t6 -14.5q51 -42 103.5 -59.5t114.5 -26.5q13 13 31 33t41.5 39.5t53 33.5t66.5 14q20 0 44 -5t45 -21.5t35 -48.5t14 -87q0 -43 -26.5 -69t-63.5 -40.5t-76.5 -19.5t-65.5 -5h-12q-13 -48 -22.5 -92.5t-15.5 -89t-9 -90t-3 -94.5q0 -59 6 -114.5t8 -105.5zM410 610
q8 -2 15.5 -3t16.5 -1q12 0 26.5 4t26.5 11t20.5 16t8.5 19q0 11 -4 16.5t-16 5.5q-15 0 -31.5 -3.5t-30 -11.5t-22.5 -21t-10 -32z" />
    <glyph glyph-name="u" unicode="U" 
d="M76 90q-14 45 -20 89.5t-6 86.5q0 122 48.5 241t143.5 235q6 5 14.5 7.5t13.5 2.5q22 0 28 -40q-29 -95 -54 -188.5t-41 -191.5q-4 -24 -6.5 -47t-2.5 -43q0 -48 12.5 -76t51.5 -28q34 0 60 33t48.5 88.5t44 126.5t47.5 148q36 88 62 88q8 0 16.5 -11t17.5 -37
q25 -67 41.5 -121.5t27.5 -100t17 -84.5t10 -74l10 -98v-20q0 -41 -15 -62.5t-47 -21.5q-14 0 -25 2.5l-25 5.5q-12 17 -18 35.5t-6 36.5q0 26 -2.5 55.5t-7.5 58.5l-8 80q-20 -70 -48 -120t-62.5 -82.5t-75.5 -48t-86 -15.5h-2q-57 2 -95 25t-61 65z" />
    <glyph glyph-name="u" unicode="u" 
d="M76 90q-14 45 -20 89.5t-6 86.5q0 122 48.5 241t143.5 235q6 5 14.5 7.5t13.5 2.5q22 0 28 -40q-29 -95 -54 -188.5t-41 -191.5q-4 -24 -6.5 -47t-2.5 -43q0 -48 12.5 -76t51.5 -28q34 0 60 33t48.5 88.5t44 126.5t47.5 148q36 88 62 88q8 0 16.5 -11t17.5 -37
q25 -67 41.5 -121.5t27.5 -100t17 -84.5t10 -74l10 -98v-20q0 -41 -15 -62.5t-47 -21.5q-14 0 -25 2.5l-25 5.5q-12 17 -18 35.5t-6 36.5q0 26 -2.5 55.5t-7.5 58.5l-8 80q-20 -70 -48 -120t-62.5 -82.5t-75.5 -48t-86 -15.5h-2q-57 2 -95 25t-61 65z" />
    <glyph glyph-name="w" unicode="W" horiz-adv-x="861" 
d="M474 -16q-26 0 -53 1.5t-52.5 8.5t-48.5 21.5t-39 39.5q-19 -5 -37.5 -6.5t-35.5 -1.5q-87 0 -137.5 53.5t-50.5 146.5q0 62 18.5 121t47.5 111.5t64.5 96.5t71 75.5t66.5 49t50 17.5q9 0 18 -1t17 -3q8 -4 10.5 -11.5t2.5 -18.5l-2 -33q-39 -39 -78.5 -83.5t-71 -94.5
t-51 -106.5t-19.5 -117.5q0 -17 3 -36t11 -34.5t23 -25.5t38 -10h15q-9 35 -16 72t-7 72q0 44 15 87.5t43.5 78.5t69.5 57t92 22q30 0 52.5 -12t37.5 -32.5t23 -47.5t8 -57q0 -80 -37.5 -143.5t-106.5 -117.5q12 -6 24 -10.5t22 -4.5q52 0 91.5 37t66.5 90.5t41 112.5
t14 103q0 79 -31 149t-103 138v14q0 11 3 21t10 15h18q9 0 19 -1.5t25 -8t36.5 -20.5t53.5 -39q31 -25 53 -60.5t35 -76.5t19 -87t6 -92q0 -83 -20 -158.5t-63.5 -133.5t-111 -92t-162.5 -34zM438 373q0 14 -4 24t-11 18q-23 -13 -40.5 -37t-17.5 -66q0 -6 0.5 -17t2 -24
t4 -25.5t5.5 -21.5q13 9 24 27.5t19 40.5t13 43.5t5 37.5z" />
    <glyph glyph-name="w" unicode="w" horiz-adv-x="861" 
d="M474 -16q-26 0 -53 1.5t-52.5 8.5t-48.5 21.5t-39 39.5q-19 -5 -37.5 -6.5t-35.5 -1.5q-87 0 -137.5 53.5t-50.5 146.5q0 62 18.5 121t47.5 111.5t64.5 96.5t71 75.5t66.5 49t50 17.5q9 0 18 -1t17 -3q8 -4 10.5 -11.5t2.5 -18.5l-2 -33q-39 -39 -78.5 -83.5t-71 -94.5
t-51 -106.5t-19.5 -117.5q0 -17 3 -36t11 -34.5t23 -25.5t38 -10h15q-9 35 -16 72t-7 72q0 44 15 87.5t43.5 78.5t69.5 57t92 22q30 0 52.5 -12t37.5 -32.5t23 -47.5t8 -57q0 -80 -37.5 -143.5t-106.5 -117.5q12 -6 24 -10.5t22 -4.5q52 0 91.5 37t66.5 90.5t41 112.5
t14 103q0 79 -31 149t-103 138v14q0 11 3 21t10 15h18q9 0 19 -1.5t25 -8t36.5 -20.5t53.5 -39q31 -25 53 -60.5t35 -76.5t19 -87t6 -92q0 -83 -20 -158.5t-63.5 -133.5t-111 -92t-162.5 -34zM438 373q0 14 -4 24t-11 18q-23 -13 -40.5 -37t-17.5 -66q0 -6 0.5 -17t2 -24
t4 -25.5t5.5 -21.5q13 9 24 27.5t19 40.5t13 43.5t5 37.5z" />
    <glyph glyph-name="x" unicode="X" horiz-adv-x="668" 
d="M206 364l-48 67.5t-37.5 58t-34 58.5t-36.5 70q-6 8 -8 17.5t-2 20.5t2 19.5t8 14.5q49 32 116 32q12 -12 23.5 -28.5t22.5 -39.5l80 -144q17 24 45.5 56.5t60 62.5t63.5 50.5t57 20.5q13 0 27.5 -6.5t27.5 -22.5t23 -43.5t14 -69.5q-6 10 -24.5 14t-27.5 4
q-23 0 -48 -19.5l-52 -42.5q-24 -23 -45.5 -54t-44.5 -72l45.5 -67.5t53.5 -74t52 -60t41 -24.5q13 0 22.5 1.5t16 7t11.5 16t10 29.5q8 -24 11 -51t3 -51q0 -31 -5.5 -58t-17 -47.5t-28.5 -32.5t-39 -12q-16 0 -35.5 15t-47.5 46.5l-67.5 79.5l-96.5 115
q-29 -68 -47.5 -116.5t-29.5 -81.5q-8 -25 -25.5 -41t-38.5 -25.5t-42 -13.5t-36 -4q-11 0 -14.5 13t-3.5 31q0 17 2.5 34.5t7.5 31.5q20 78 57.5 159.5t78.5 156.5z" />
    <glyph glyph-name="x" unicode="x" horiz-adv-x="668" 
d="M206 364l-48 67.5t-37.5 58t-34 58.5t-36.5 70q-6 8 -8 17.5t-2 20.5t2 19.5t8 14.5q49 32 116 32q12 -12 23.5 -28.5t22.5 -39.5l80 -144q17 24 45.5 56.5t60 62.5t63.5 50.5t57 20.5q13 0 27.5 -6.5t27.5 -22.5t23 -43.5t14 -69.5q-6 10 -24.5 14t-27.5 4
q-23 0 -48 -19.5l-52 -42.5q-24 -23 -45.5 -54t-44.5 -72l45.5 -67.5t53.5 -74t52 -60t41 -24.5q13 0 22.5 1.5t16 7t11.5 16t10 29.5q8 -24 11 -51t3 -51q0 -31 -5.5 -58t-17 -47.5t-28.5 -32.5t-39 -12q-16 0 -35.5 15t-47.5 46.5l-67.5 79.5l-96.5 115
q-29 -68 -47.5 -116.5t-29.5 -81.5q-8 -25 -25.5 -41t-38.5 -25.5t-42 -13.5t-36 -4q-11 0 -14.5 13t-3.5 31q0 17 2.5 34.5t7.5 31.5q20 78 57.5 159.5t78.5 156.5z" />
    <glyph glyph-name="y" unicode="Y" horiz-adv-x="674" 
d="M279 -250q-9 -2 -19 -4.5t-27 -2.5q-38 0 -62 18t-37.5 46.5t-19 65t-5.5 72.5q0 29 2 56.5t6.5 57.5t11.5 65t18 78q-22 9 -45 28t-41.5 44t-30 52.5t-11.5 52.5q0 56 18.5 115t44.5 108t53 80t45 31q15 0 29 -14t14 -36t-10.5 -50.5l-23 -61t-23 -68t-10.5 -70.5
q0 -44 37 -76q11 36 27.5 81.5t37.5 92.5t47 91.5t56 79.5t63 56t69 21q47 0 79 -19.5t52 -48.5t29 -63t9 -64q0 -66 -27 -131t-74 -118.5t-110 -91.5t-135 -51q-8 -48 -14.5 -91t-11 -87t-7 -92.5t-2.5 -107.5v-31zM340 326q47 21 86 54.5t74 78.5q43 55 43 116
q0 10 -1.5 21.5t-6 21.5t-12.5 17t-21 7q-11 0 -27 -20.5t-33.5 -52.5t-34.5 -70l-31.5 -73t-24 -62.5t-11.5 -37.5z" />
    <glyph glyph-name="y" unicode="y" horiz-adv-x="674" 
d="M279 -250q-9 -2 -19 -4.5t-27 -2.5q-38 0 -62 18t-37.5 46.5t-19 65t-5.5 72.5q0 29 2 56.5t6.5 57.5t11.5 65t18 78q-22 9 -45 28t-41.5 44t-30 52.5t-11.5 52.5q0 56 18.5 115t44.5 108t53 80t45 31q15 0 29 -14t14 -36t-10.5 -50.5l-23 -61t-23 -68t-10.5 -70.5
q0 -44 37 -76q11 36 27.5 81.5t37.5 92.5t47 91.5t56 79.5t63 56t69 21q47 0 79 -19.5t52 -48.5t29 -63t9 -64q0 -66 -27 -131t-74 -118.5t-110 -91.5t-135 -51q-8 -48 -14.5 -91t-11 -87t-7 -92.5t-2.5 -107.5v-31zM340 326q47 21 86 54.5t74 78.5q43 55 43 116
q0 10 -1.5 21.5t-6 21.5t-12.5 17t-21 7q-11 0 -27 -20.5t-33.5 -52.5t-34.5 -70l-31.5 -73t-24 -62.5t-11.5 -37.5z" />
    <glyph glyph-name="z" unicode="Z" horiz-adv-x="646" 
d="M388 26q-53 -5 -103.5 -11.5t-100.5 -6.5q-44 0 -92 6q-30 6 -47 26t-17 44q0 27 22 52q40 52 87 101l94.5 98.5l92 100.5t80.5 108q-24 -8 -49.5 -12t-46.5 -4q-37 0 -86 6.5t-93.5 22.5t-75.5 43t-31 68q0 8 1.5 18.5t4.5 21.5q40 -2 77 -8.5l71.5 -13t68 -11.5
t67.5 -5q39 0 79 7.5t85 30.5q8 3 16.5 5.5t17.5 2.5q26 0 45.5 -16.5t22.5 -45.5l4 -38q-9 -73 -41 -134.5t-77 -116.5t-98.5 -105.5l-105.5 -99.5q62 5 121 13.5t121 8.5h26q13 0 28 -2q36 -2 53 -23.5t17 -48.5t-18.5 -50.5t-57.5 -23.5h-4q-11 2 -22 2h-22
q-29 0 -56.5 -3.5t-57.5 -6.5z" />
    <glyph glyph-name="z" unicode="z" horiz-adv-x="646" 
d="M388 26q-53 -5 -103.5 -11.5t-100.5 -6.5q-44 0 -92 6q-30 6 -47 26t-17 44q0 27 22 52q40 52 87 101l94.5 98.5l92 100.5t80.5 108q-24 -8 -49.5 -12t-46.5 -4q-37 0 -86 6.5t-93.5 22.5t-75.5 43t-31 68q0 8 1.5 18.5t4.5 21.5q40 -2 77 -8.5l71.5 -13t68 -11.5
t67.5 -5q39 0 79 7.5t85 30.5q8 3 16.5 5.5t17.5 2.5q26 0 45.5 -16.5t22.5 -45.5l4 -38q-9 -73 -41 -134.5t-77 -116.5t-98.5 -105.5l-105.5 -99.5q62 5 121 13.5t121 8.5h26q13 0 28 -2q36 -2 53 -23.5t17 -48.5t-18.5 -50.5t-57.5 -23.5h-4q-11 2 -22 2h-22
q-29 0 -56.5 -3.5t-57.5 -6.5z" />
    <glyph glyph-name="asciitilde" unicode="~" horiz-adv-x="516" 
d="M492 353q-19 -27 -33.5 -45t-22.5 -26q-25 -25 -73 -25q-57 0 -127 37h1q-32 16 -52.5 24.5t-30.5 8.5q-21 0 -36 -20t-32 -60q-31 21 -49 41.5t-18 43.5q27 54 58 86.5t82 32.5q40 0 117 -45h-1q67 -38 83 -38q8 0 18 3.5t19 8.5t15.5 12t6.5 13l-3 6q-2 5 -6.5 14
l-12.5 26q19 -6 38 -15t33 -19t23 -21.5t9 -23.5l-1 -5z" />
    <glyph glyph-name="ellipsis" unicode="&#x2026;" horiz-adv-x="662" 
d="M112 130q17 0 32.5 -7t27.5 -19t19 -28t7 -34q0 -17 -7 -32.5t-18.5 -27.5t-27 -19t-31.5 -7q-18 0 -34.5 6t-29.5 16.5t-20.5 25.5t-7.5 32q0 41 24.5 67.5t65.5 26.5zM330 130q17 0 32.5 -7t27.5 -19t19 -28t7 -34q0 -17 -7 -32.5t-18.5 -27.5t-27 -19t-31.5 -7
q-18 0 -34.5 6t-29.5 16.5t-20.5 25.5t-7.5 32q0 41 24.5 67.5t65.5 26.5zM549 130q17 0 32.5 -7t27.5 -19t19 -28t7 -34q0 -17 -7 -32.5t-18.5 -27.5t-27 -19t-31.5 -7q-18 0 -34.5 6t-29.5 16.5t-20.5 25.5t-7.5 32q0 41 24.5 67.5t65.5 26.5z" />
    <glyph glyph-name="circumflex" unicode="&#x2c6;" horiz-adv-x="351" 
d="M190 747q-3 2 -6 4.5t-6 4.5q-14 -17 -33 -30q-17 -11 -30.5 -16t-35.5 -5q-14 0 -25 6.5t-18.5 17t-12 23t-4.5 23.5q0 8 4 17.5t15 25.5q16 -8 21.5 -9.5t10.5 -1.5q13 0 21.5 8t18.5 22q7 8 10 16l9 25q4 20 20.5 32.5t33.5 12.5q16 0 30 -8.5t20 -26.5q2 -5 3.5 -9.5
t2.5 -10.5l-1 2q2 -10 5.5 -20t11.5 -21q2 -4 13.5 -7.5t21.5 -3.5q22 0 32.5 -15t10.5 -34q0 -9 -2.5 -19t-8 -18.5t-13.5 -14t-19 -5.5q-24 0 -51.5 9.5t-43.5 21.5q-3 3 -5 4z" />
    <glyph glyph-name="quoteleft" unicode="&#x2018;" horiz-adv-x="336" 
d="M275 685q-23 0 -44.5 -7.5t-39 -21t-28 -33t-10.5 -42.5q0 -15 6.5 -23t15.5 -11q11 0 16 8q16 16 38 16q11 0 22.5 -5t20.5 -12.5t15 -18t6 -20.5q0 -21 -3.5 -42.5t-15.5 -39.5t-34.5 -29t-60.5 -11q-39 0 -64 21.5t-40 50t-20.5 57.5t-5.5 43q0 34 11 65t31 55
t48.5 38t63.5 14q27 0 49 -11.5t33 -40.5h-10z" />
    <glyph glyph-name="quotedblleft" unicode="&#x201c;" horiz-adv-x="623" 
d="M565 685q-23 0 -44.5 -7.5t-39 -21t-28 -33t-10.5 -42.5q0 -15 6.5 -23t15.5 -11q11 0 16 8q16 16 38 16q11 0 22.5 -5t20.5 -12.5t15 -18t6 -20.5q0 -21 -3.5 -42.5t-15.5 -39.5t-34.5 -29t-60.5 -11q-39 0 -64 21.5t-40 50t-20.5 57.5t-5.5 43q0 34 11 65t31 55
t48.5 38t63.5 14q27 0 49 -11.5t33 -40.5h-10zM275 685q-23 0 -44.5 -7.5t-39 -21t-28 -33t-10.5 -42.5q0 -15 6.5 -23t15.5 -11q11 0 16 8q16 16 38 16q11 0 22.5 -5t20.5 -12.5t15 -18t6 -20.5q0 -21 -3.5 -42.5t-15.5 -39.5t-34.5 -29t-60.5 -11q-39 0 -64 21.5t-40 50
t-20.5 57.5t-5.5 43q0 34 11 65t31 55t48.5 38t63.5 14q27 0 49 -11.5t33 -40.5h-10z" />
    <glyph glyph-name="quotedblright" unicode="&#x201d;" horiz-adv-x="623" 
d="M67 445q22 0 44 7.5t39.5 21t28 33t10.5 42.5q0 15 -6.5 23t-15.5 11q-11 0 -16 -8q-16 -16 -38 -16q-11 0 -22.5 5t-20.5 12.5t-15 17.5t-6 21q0 21 3.5 42.5t15.5 39.5t34.5 29t60.5 11q39 0 64 -21.5t40 -50t20.5 -57.5t5.5 -43q0 -34 -11 -65t-31 -55t-48.5 -38
t-63.5 -14q-27 0 -49 11.5t-33 40.5h10zM357 445q22 0 44 7.5t39.5 21t28 33t10.5 42.5q0 15 -6.5 23t-15.5 11q-11 0 -16 -8q-16 -16 -38 -16q-11 0 -22.5 5t-20.5 12.5t-15 17.5t-6 21q0 21 3.5 42.5t15.5 39.5t34.5 29t60.5 11q39 0 64 -21.5t40 -50t20.5 -57.5t5.5 -43
q0 -34 -11 -65t-31 -55t-48.5 -38t-63.5 -14q-27 0 -49 11.5t-33 40.5h10z" />
    <glyph glyph-name="bullet" unicode="&#x2022;" horiz-adv-x="231" 
d="M116 462q19 0 36.5 -7.5t30.5 -20t20.5 -30t7.5 -37.5q0 -18 -7.5 -35.5t-20 -30.5t-29.5 -21t-35 -8q-20 0 -38 7t-31.5 19t-21.5 28.5t-8 34.5q0 42 27 71.5t69 29.5z" />
    <glyph glyph-name="endash" unicode="&#x2013;" horiz-adv-x="529" 
d="M82 340q0 -4 0.5 -7.5t1.5 -3.5q34 -8 67 -11.5t65 -3.5q13 0 29 0.5t40.5 2t61 3.5t91.5 6q10 1 20 1.5t21 1.5q9 0 18 -1.5t17 -8.5q5 -8 8 -19t3 -22q0 -20 -8 -42t-28 -30q-19 3 -40 4.5t-35 1.5q-52 -3 -107 -7t-107 -4q-34 0 -68.5 3.5t-69.5 13.5q-31 9 -44 27
t-13 37q0 22 21 39t56 19z" />
    <glyph glyph-name="emdash" unicode="&#x2014;" horiz-adv-x="787" 
d="M108 345q-3 -5 -3 -9q0 -8 14 -13t34.5 -7t44 -2.5t42.5 -0.5q37 0 69 0.5t62.5 1.5t62 2.5t66.5 3.5q45 3 95 5.5t112 2.5q11 0 20.5 -1t20.5 -6q8 -8 12 -20t4 -24q0 -21 -11 -42.5t-34 -29.5q-33 4 -59.5 5t-49.5 1q-39 0 -77.5 -2l-77.5 -4q-40 -2 -79.5 -3.5
t-81.5 -1.5q-51 0 -100.5 3t-100.5 13h1q-42 8 -59.5 26.5t-17.5 38.5q0 21 24.5 39.5t66.5 23.5z" />
    <glyph glyph-name="tilde" unicode="&#x2dc;" horiz-adv-x="413" 
d="M51 713q-17 14 -28.5 28t-11.5 34q7 40 20.5 64.5t31 38t37 18t37.5 4.5q19 0 39.5 -11.5t40 -25t38 -25t34.5 -11.5q14 0 26 5t12 19q0 10 -4 24t-11 25q40 -6 65.5 -27t25.5 -50q0 -25 -9.5 -46.5t-25.5 -37t-37.5 -24.5t-46.5 -9q-17 0 -37 11t-40.5 24l-39.5 24
t-35 11q-17 0 -26 -13.5t-19 -39.5z" />
    <glyph glyph-name="trademark" unicode="&#x2122;" horiz-adv-x="797" 
d="M424 652q6 20 15.5 40.5t29.5 34.5q6 4 21 10t22 6q13 0 21 -7.5t12.5 -20t6.5 -28t3 -31.5v-20t1 -19q10 16 24 34.5t32 34t38.5 25.5t43.5 10q12 0 23 -5.5t19 -14.5t13 -19.5t6 -19.5q0 -7 1 -22.5t2 -37t1.5 -46t0.5 -49.5q0 -29 -1.5 -56t-5 -48t-9.5 -33.5
t-16 -12.5q-20 0 -32.5 12.5t-19 29t-9 34t-3.5 26.5q0 7 -0.5 20t-1 29t-0.5 32v32q0 14 -0.5 21.5t-0.5 12.5t1 7q-11 -12 -21 -31.5t-19 -43t-17 -47.5l-15 -45l-13 -36q-3 -8 -13.5 -12t-20.5 -4q-19 0 -32.5 28t-22 66t-13 77.5t-5.5 62.5q-12 -12 -21.5 -29l-17.5 -32
q-10 -21 -15 -44.5t-5 -71.5v-7q0 -34 -7 -57.5t-40 -24.5q-14 0 -23 7t-15 27q-3 8 -5 24.5t-3.5 35.5t-2.5 37t-1 29q0 32 2.5 62.5t7.5 53.5q4 15 7 29.5t8 26t14.5 18t26.5 6.5q12 0 20 -6t12.5 -14.5t6.5 -18.5t4 -18zM188 306q-9 -8 -15 -10t-20 -2q-17 0 -32 13
t-22 24q-11 20 -14 49.5t-3 54.5q0 57 7 102t18 78q-49 22 -74 46.5t-25 55.5q0 6 1.5 14t5 15.5t9 14t13.5 9.5q13 0 15 -8.5t2 -17.5q0 -8 12 -15t28.5 -13.5t33 -11t25.5 -7.5q4 6 7 9q14 15 36.5 32.5t54.5 17.5q11 0 24.5 -2.5t25 -11.5t19.5 -27t8 -48
q0 -24 -13.5 -39t-33 -23t-40.5 -11t-35 -3q-11 -45 -16.5 -85t-5.5 -85q0 -15 1 -31.5t3 -31.5l2 -23t1 -22zM265 704q-10 0 -20.5 -3.5t-14.5 -12.5h4q10 0 20.5 4.5t10.5 10.5v1z" />
    <glyph glyph-name="nonbreakingspace" unicode="&#xa0;" horiz-adv-x="520" 
 />
    <glyph glyph-name="exclamdown" unicode="&#xa1;" horiz-adv-x="297" 
d="M92 125q11 39 18 78.5t10 79.5q2 30 3.5 67.5t1.5 92.5v17v14q0 7 -0.5 15.5t-1.5 22.5q6 19 20 26.5t29 12.5q2 1 11.5 3.5t11.5 3.5q7 -5 9.5 -6.5t4.5 -2.5q8 -5 15.5 -11t12.5 -20l4 -33v-81v-34q0 -15 1 -29q0 -12 1 -24t1 -23v-38q0 -13 -1 -27.5t-1 -31.5v-34
q0 -17 2 -39q0 -14 -4 -31.5t-16 -51.5q-8 -14 -19 -22t-37 -12q-29 6 -55.5 18.5t-38.5 35.5zM172 586q-32 0 -55 23.5t-23 56.5q0 15 6.5 29t17 25.5t24.5 18t29 6.5q16 0 31 -5.5t26.5 -15.5t18.5 -24t7 -30q0 -36 -22.5 -60t-59.5 -24z" />
    <glyph glyph-name="cent" unicode="&#xa2;" horiz-adv-x="668" 
d="M506 243q10 -8 16.5 -19t6.5 -27q0 -18 -12 -31.5t-32 -22.5t-45.5 -14t-52.5 -8q0 -11 0.5 -23.5t1.5 -32.5q-6 -26 -18 -36t-26 -16q-2 -1 -10 -4.5t-10 -4.5q-6 7 -8 8.5t-4 3.5q-8 5 -14 13t-11 28l-3 43v18q-100 4 -148 52.5t-48 139.5q0 44 13 88t38.5 83t62 70
t83.5 49q0 11 -0.5 23.5t-0.5 32.5q5 25 17 35.5t26 16.5q2 1 10 4.5t10 4.5q6 -7 8 -8.5t4 -3.5q8 -6 14 -14t11 -27l4 -43q4 0 7.5 0.5t8.5 0.5q11 0 26 -0.5t29.5 -3.5t27 -9.5t18.5 -17.5l8.5 -15t5.5 -10.5t3 -9.5t1 -13q0 -9 -2 -19t-6 -24q-13 -5 -25 -8.5t-24 -3.5
q-43 0 -74 44l-4 -1v-101q0 -16 1 -31.5t1 -30.5q-2 -31 -3 -66.5t-1 -83.5q17 5 35 11.5l39 13.5h45zM282 353q1 29 2 63.5t2 79.5q-18 -12 -34.5 -32t-29 -44.5t-20 -53.5t-7.5 -60q0 -38 19 -64.5t71 -34.5v1v43q0 21 -1 40q0 16 -1 31.5t-1 30.5z" />
    <glyph glyph-name="sterling" unicode="&#xa3;" horiz-adv-x="557" 
d="M466 -57q-9 0 -29 4.5t-36 14.5q-21 12 -43.5 30l-44.5 37q-17 14 -29 23l-27 20q-22 -45 -57.5 -69t-80.5 -24q-18 0 -36 7.5t-31.5 21t-22 32.5t-8.5 41q0 26 11.5 50.5t29 43t38.5 30t41 11.5q22 0 35 -1.5t26 -5.5q6 20 10 42.5t9 45.5h-6q-14 0 -29 2t-41 9
q-30 10 -43.5 27.5t-13.5 37.5q0 21 14 38.5t39 18.5l48 -14t42 -6v3q5 42 3.5 87t-3.5 89q0 30 2.5 55.5t10.5 40.5q11 20 22.5 31.5t24.5 17.5t27 7.5t29 1.5q8 0 23 -3.5t31 -8.5t30.5 -10.5t20.5 -8.5q10 -6 21 -18t19.5 -26t14 -28.5t5.5 -25.5q0 -21 -32 -45
q-7 7 -19 16t-24.5 17.5t-24.5 14t-19 5.5q-13 0 -20.5 -4t-11.5 -16t-6 -33.5t-3 -55.5l-4 -46.5t-5 -46.5q20 3 43 4.5t55 2.5l13 2q8 0 17.5 -2.5t17.5 -9.5q12 -17 12 -43q0 -20 -9 -41.5t-26 -28.5l-41 3.5t-29 1.5q-20 0 -33 -1.5l-31 -3.5q-8 -33 -14 -65t-17 -67
q59 -30 119 -68.5t104 -96.5q9 -13 9 -26q0 -23 -20.5 -30.5t-46.5 -7.5zM123 75q11 0 24.5 8.5t23.5 33.5q-6 3 -11.5 3.5t-10.5 0.5q-9 0 -18.5 -9t-9.5 -25q0 -12 2 -12z" />
    <glyph glyph-name="currency" unicode="&#xa4;" horiz-adv-x="490" 
d="M79 239q-17 37 -17 85q0 19 4 43.5t16 49.5q-15 10 -26.5 24.5t-11.5 37.5t15 35.5t33 12.5q10 0 16 -5t12 -13q5 -7 12.5 -13t15.5 -9q14 8 33 14t39 8q14 7 30 8.5t27 1.5q38 0 72 -25q10 4 15 10t9 12t9 10t17 4q19 0 33.5 -13t14.5 -34q0 -9 -5 -21q-8 -17 -17 -23.5
l-20 -14.5q11 -23 17.5 -49t6.5 -51q0 -43 -20 -80l10 -11.5l10 -10.5q15 -17 15 -34q0 -9 -5 -17.5t-13 -15t-17 -10.5t-18 -4q-15 0 -26 13.5t-22 22.5q-23 -15 -46.5 -21.5t-49.5 -6.5q-32 0 -57 5t-45 16q-12 -9 -25 -20t-29 -11q-27 0 -39 10.5t-12 24.5q0 7 4.5 20.5
t9.5 21.5q8 13 25 23zM175 363l5 46q-14 -11 -23 -27.5t-9 -47.5q0 -43 25 -70.5t69 -27.5q14 0 29.5 6t30.5 17q4 9 16 13q28 28 28 65q0 18 -5.5 35t-13.5 30q-9 6 -16 19q-17 15 -34 15q-7 0 -10.5 -1.5t-4.5 -2.5z" />
    <glyph glyph-name="section" unicode="&#xa7;" horiz-adv-x="530" 
d="M172 100q3 -2 6 -5t3 -8q0 -8 -8 -19.5t-17 -16.5q-1 0 7 -1.5t20 -2.5t27 -2t29 -1q44 1 75.5 10.5t31.5 30.5q0 19 -12 30.5t-31.5 20t-44.5 14t-50 12.5q-32 8 -63 20t-56.5 28.5t-41 39.5t-15.5 53q0 21 8 43t21.5 44t31.5 41t38 34q-63 43 -63 106q0 34 20 59.5
t51.5 43t71 26.5t78.5 9q53 0 88.5 -9t56.5 -24t30 -36t9 -45q0 -14 -5.5 -24t-14 -17t-18.5 -10.5t-19 -3.5q-11 0 -21 9t-20 25q-6 9 -20 16t-31.5 12.5t-35.5 8.5t-30 3q-8 0 -20 -2.5t-23.5 -7t-20 -11t-8.5 -14.5t6 -13q7 -6 19 -14t41 -19l62 -24l58 -24h-1
q66 -25 92.5 -56.5t26.5 -73.5q0 -36 -21.5 -73.5t-60.5 -79.5q59 -35 59 -93q0 -39 -18 -69.5t-49 -52t-72.5 -32.5t-87.5 -11q-16 0 -49.5 4.5t-67.5 14t-59.5 24.5t-25.5 36q0 19 10.5 35t32.5 27q21 11 35 14t37 7zM374 343q0 14 -13 27t-44 24l-72 27
q-14 -8 -30.5 -20.5t-30 -27t-22.5 -30t-9 -28.5q0 -10 10.5 -21t29.5 -21t46.5 -18.5t61.5 -13.5l9 9q23 23 43.5 48t20.5 45z" />
    <glyph glyph-name="dieresis" unicode="&#xa8;" horiz-adv-x="474" 
d="M340 845q16 0 31 -6.5t26.5 -18t18 -26.5t6.5 -32q0 -16 -6.5 -30.5t-17.5 -26t-25.5 -18.5t-29.5 -7q-17 0 -33 5.5t-28 16t-19.5 24t-7.5 30.5q0 38 23.5 63.5t61.5 25.5zM114 845q16 0 31 -6.5t26.5 -18t18 -26.5t6.5 -32q0 -16 -6.5 -30.5t-17.5 -26t-25.5 -18.5
t-30.5 -7q-17 0 -32.5 5.5t-27.5 16t-19.5 24t-7.5 30.5q0 38 23.5 63.5t61.5 25.5z" />
    <glyph glyph-name="copyright" unicode="&#xa9;" horiz-adv-x="672" 
d="M19 377q0 68 27.5 127.5t74 103.5t108.5 69.5t130 25.5q61 0 114.5 -26t93 -68.5t62.5 -98t23 -114.5q0 -65 -24.5 -124t-67 -104t-100.5 -71.5t-124 -26.5q-61 0 -118 24.5t-101.5 66.5t-71 97.5t-26.5 118.5zM84 405q0 -51 20.5 -96.5t55 -80t80 -54.5t96.5 -20
q52 0 96.5 21t76.5 56.5t50.5 81.5t18.5 97q0 56 -21 96.5t-63 75.5l-19 13l-24 15.5l-21 13t-11 5.5h-9l23.5 -15t20.5 -15t14.5 -19.5t5.5 -29.5q-32 35 -81.5 47.5t-98.5 12.5q-21 0 -36 -7t-34 -12q-3 0 -3 2t2.5 6t3.5 9h-7q-31 0 -56 -22.5t-43 -54.5t-27.5 -67
t-9.5 -59zM447 299q7 -5 11.5 -13t4.5 -19q0 -18 -16.5 -29t-40.5 -17t-51 -7.5t-49 -1.5q-21 0 -46.5 13.5t-48 36.5t-37.5 52.5t-15 61.5q0 40 15 74t43 59.5t68.5 40t91.5 14.5q8 0 18.5 -0.5t20.5 -2.5t18.5 -6.5t12.5 -12.5l9.5 -17.5t2.5 -15.5q0 -7 -1.5 -14
l-3.5 -16q-9 -4 -17.5 -6.5t-16.5 -2.5q-30 0 -51 31l-50 -13q-15 -4 -30.5 -12t-28 -22t-20.5 -34t-8 -47q0 -18 8.5 -36t22 -32t29 -23t30.5 -9q19 0 42 8.5t52 17.5h31z" />
    <glyph glyph-name="registered" unicode="&#xae;" horiz-adv-x="672" 
d="M19 377q0 68 27.5 127.5t74 103.5t108.5 69.5t130 25.5q61 0 114.5 -26t93 -68.5t62.5 -98t23 -114.5q0 -65 -24.5 -124t-67 -104t-100.5 -71.5t-124 -26.5q-61 0 -118 24.5t-101.5 66.5t-71 97.5t-26.5 118.5zM84 405q0 -51 20.5 -96.5t55 -80t80 -54.5t96.5 -20
q52 0 96.5 21t76.5 56.5t50.5 81.5t18.5 97q0 56 -21 96.5t-63 75.5l-19 13l-24 15.5l-21 13t-11 5.5h-9q10 -5 20.5 -11t19 -15t14 -21.5t5.5 -30.5q-15 18 -35 29.5t-43 18t-48 9t-49 2.5q-21 0 -36 -7t-34 -12q-3 0 -3 2t2.5 6t3.5 9h-7q-31 0 -56 -22.5t-43 -54.5
t-27.5 -67t-9.5 -59zM232 212q-3 71 -3.5 141.5t-0.5 142.5q-1 -1 -2 -1q-1 -1 -2 -1q-11 -5 -13.5 -7.5l-4 -4t-5 -2t-14.5 -0.5q-31 0 -31 25q0 6 3 9l31 20l37 19t30 13t32 7.5t42 2.5q15 0 37.5 -4t43.5 -13t36 -23t15 -34q0 -8 -2 -26t-14 -33q-15 -20 -34.5 -34.5
t-38.5 -31.5q25 -23 42.5 -42t33.5 -40q2 -2 8 -11t9 -14l7 -17t4 -18q0 -6 -4.5 -7.5t-9.5 -1.5q-11 0 -25 6.5t-22 16.5l-72 79q-9 9 -24.5 13t-26.5 5h-1q-3 0 -4 -3t-1 -5v-71q0 -10 -1 -21t-5 -20.5t-12 -15.5t-21 -6q-12 0 -17 8zM293 400q14 4 31 13t31.5 21.5t24 28
t9.5 33.5q0 16 -10.5 21.5t-24.5 5.5q-6 0 -12 -0.5t-13 -2.5l-10.5 -2.5l-12.5 -3t-10.5 -3t-5.5 -1.5l-2 -1v-86q0 -2 0.5 -11.5t1.5 -11.5h3z" />
    <glyph glyph-name="macron" unicode="&#xaf;" horiz-adv-x="336" 
d="M275 814q2 1 7 1q7 0 10 -4q3 -8 3 -24q0 -14 -2 -27.5t-7 -17.5q-8 1 -15 1h-13q-34 0 -66 -3.5t-69 -3.5q-16 0 -32.5 1t-34.5 4q-14 2 -19.5 12.5t-5.5 23.5q0 12 4.5 22.5t11.5 13.5q1 -6 15 -7q31 -3 58 -3q39 0 75 4t80 7z" />
    <glyph glyph-name="acute" unicode="&#xb4;" horiz-adv-x="300" 
d="M47 781q9 0 17.5 6t22.5 19q32 29 55.5 44.5t39.5 23t25 9t12 1.5q29 0 43 -20.5t14 -41.5q0 -20 -11 -34.5t-31 -14.5q-15 0 -34 -9.5t-40 -22l-42 -24.5t-41 -16q-17 0 -27.5 7.5t-16.5 19t-9 25.5t-5 28h28z" />
    <glyph glyph-name="periodcentered" unicode="&#xb7;" horiz-adv-x="181" 
d="M91 446q32 0 55.5 -23t23.5 -56q0 -31 -23 -55t-54 -24q-33 0 -57.5 21.5t-24.5 52.5q0 35 22.5 59.5t57.5 24.5z" />
    <glyph glyph-name="periodcentered" unicode="&#x22c5;" horiz-adv-x="181" 
d="M91 446q32 0 55.5 -23t23.5 -56q0 -31 -23 -55t-54 -24q-33 0 -57.5 21.5t-24.5 52.5q0 35 22.5 59.5t57.5 24.5z" />
    <glyph glyph-name="cedilla" unicode="&#xb8;" horiz-adv-x="171" 
d="M64 53q8 4 24 4q20 0 39.5 -9.5t22.5 -29.5q-4 -14 -9.5 -23t-11.5 -17q17 -21 30 -46.5t13 -54.5q0 -6 -0.5 -11t-2.5 -13l1 1q-8 -34 -31.5 -49t-52.5 -15q-23 0 -51.5 5t-45.5 22q-9 9 -12.5 19t-3.5 20q0 18 17 36t40 29q3 -27 15 -31.5t23 -4.5h3q-2 11 -12.5 23
t-21.5 22l-11 11q-15 15 -15 34q0 21 15 35q10 10 16 16.5t13 17.5z" />
    <glyph glyph-name="questiondown" unicode="&#xbf;" horiz-adv-x="506" 
d="M326 145q31 14 55 14q23 0 42 -9.5t32.5 -24.5t21 -32t7.5 -32q0 -34 -22.5 -60.5t-57 -45t-76 -28t-80.5 -9.5q-44 0 -85.5 14.5t-73.5 41t-52 62t-20 77.5q0 33 13.5 61.5t34.5 55t45.5 51.5t46 51t36.5 53.5t18 58.5q0 25 -29 25h-28l-8 53l21 27l15 5q11 4 19.5 5
t13.5 1q22 0 47 -7.5t45.5 -22.5t34 -36.5t13.5 -49.5q0 -36 -14.5 -70t-35.5 -65t-46.5 -59t-46.5 -53.5t-35.5 -47.5t-14.5 -40q0 -9 4 -20t13.5 -20t24.5 -15.5t36 -6.5q5 0 25.5 0.5t42.5 3t39.5 6.5t17.5 10q0 9 -9 17t-30 19v42zM241 622q-17 0 -31.5 6.5t-26 18
t-18 26t-6.5 31.5q0 15 6.5 29.5t18 26t26 18t30.5 6.5t31.5 -5.5t27.5 -16t19 -24.5t7 -30q0 -36 -23 -61t-61 -25z" />
    <glyph glyph-name="exclam" unicode="!" horiz-adv-x="297" 
d="M236 627q-22 -78 -27 -158q-2 -30 -4 -67.5t-2 -92.5v-18v-14q0 -6 0.5 -15t1.5 -22q-6 -19 -20 -26.5t-29 -12.5q-24 0 -29.5 0.5t-7.5 1.5q-8 5 -15.5 11t-12.5 20l-4 33v81q0 18 -0.5 33.5t-2.5 29.5v85q0 13 1 27.5t1 31.5v33q0 18 -2 40q0 14 4 31.5t16 51.5
q8 14 19 22t37 12q29 -6 55.5 -18.5t38.5 -35.5zM156 166q32 0 55 -23.5t23 -56.5q0 -15 -6.5 -29t-17 -25.5t-24.5 -18t-29 -6.5q-16 0 -31 5.5t-26.5 15.5t-18.5 24t-7 30q0 36 22.5 60t59.5 24z" />
    <glyph glyph-name="quotedbl" unicode="&#x22;" horiz-adv-x="404" 
d="M178 749q-6 -44 -11 -76t-11.5 -64.5t-16 -72t-25.5 -97.5q-9 -6 -18 -6t-18 6t-14 20l-38 290q6 16 15.5 25.5t20 14t22 5.5t22.5 1q7 0 18.5 -2t22.5 -7.5t20 -14.5t11 -22zM368 749q-6 -44 -11 -76t-11.5 -64.5t-16 -72t-25.5 -97.5q-9 -6 -18 -6t-18 6t-14 20
l-38 290q6 16 15.5 25.5t20 14t22 5.5t22.5 1q7 0 18.5 -2t22.5 -7.5t20 -14.5t11 -22z" />
    <glyph glyph-name="b" unicode="B" horiz-adv-x="730" 
d="M128 20q-9 53 -12.5 101.5t-3.5 102.5v34q0 18 2 38q0 23 4.5 54.5t12 65t16.5 66.5t19 60q-23 -9 -44 -13.5t-36 -4.5q-16 0 -36 28q3 15 10.5 25l15.5 21q31 37 74.5 58t90 31.5t92.5 12.5t81 2q42 0 79 -14.5t65 -39.5t44 -58.5t16 -71.5q0 -23 -12.5 -48t-45.5 -52
q53 -12 86.5 -52t33.5 -100q0 -71 -20.5 -122.5t-57 -85t-86.5 -50t-108 -16.5q-22 2 -44 2.5l-44.5 1t-44 3t-41.5 9.5q-12 -5 -28.5 -7.5t-31.5 -2.5q-17 0 -28.5 4t-17.5 16v2zM390 314q-41 0 -76.5 -3.5t-49.5 -8.5l-10 -158q12 13 30 25.5t40 22.5t46.5 16t49.5 6
l30 -2v-10q0 -11 -14 -20.5l-32 -21.5l-33 -17.5t-21 -16.5q35 0 70 5t63 19t45.5 39.5t17.5 66.5q0 17 -13.5 28.5t-36 18t-50.5 9t-56 2.5zM388 582q-40 0 -88 -12q-2 -11 -4.5 -20l-5.5 -20l-12.5 -50t-9.5 -56q31 4 67.5 11t68 18t53 26.5t21.5 38.5q0 15 -2 26.5
t-9.5 19.5t-21.5 12.5t-37 5.5h-20z" />
    <glyph glyph-name="b" unicode="b" horiz-adv-x="730" 
d="M128 20q-9 53 -12.5 101.5t-3.5 102.5v34q0 18 2 38q0 23 4.5 54.5t12 65t16.5 66.5t19 60q-23 -9 -44 -13.5t-36 -4.5q-16 0 -36 28q3 15 10.5 25l15.5 21q31 37 74.5 58t90 31.5t92.5 12.5t81 2q42 0 79 -14.5t65 -39.5t44 -58.5t16 -71.5q0 -23 -12.5 -48t-45.5 -52
q53 -12 86.5 -52t33.5 -100q0 -71 -20.5 -122.5t-57 -85t-86.5 -50t-108 -16.5q-22 2 -44 2.5l-44.5 1t-44 3t-41.5 9.5q-12 -5 -28.5 -7.5t-31.5 -2.5q-17 0 -28.5 4t-17.5 16v2zM390 314q-41 0 -76.5 -3.5t-49.5 -8.5l-10 -158q12 13 30 25.5t40 22.5t46.5 16t49.5 6
l30 -2v-10q0 -11 -14 -20.5l-32 -21.5l-33 -17.5t-21 -16.5q35 0 70 5t63 19t45.5 39.5t17.5 66.5q0 17 -13.5 28.5t-36 18t-50.5 9t-56 2.5zM388 582q-40 0 -88 -12q-2 -11 -4.5 -20l-5.5 -20l-12.5 -50t-9.5 -56q31 4 67.5 11t68 18t53 26.5t21.5 38.5q0 15 -2 26.5
t-9.5 19.5t-21.5 12.5t-37 5.5h-20z" />
    <glyph glyph-name="r" unicode="R" horiz-adv-x="635" 
d="M478 -12q-2 3 -24.5 26.5l-53.5 56.5l-64 70t-57 67q-28 1 -49.5 4t-41.5 14q-2 -20 -4 -45t-3.5 -50t-3.5 -48t-3 -41q-2 -24 -17 -36t-35 -12q-17 0 -34 7t-30.5 19.5t-22.5 30t-9 39.5q0 128 21 246.5t60 241.5q-12 -2 -22 -4t-17 -2q-21 11 -30.5 22t-9.5 22
q0 18 28.5 35t66.5 30.5t76.5 22t58.5 8.5q90 0 153 -15t102 -47.5t57 -83.5t18 -124q0 -36 -14 -68t-37.5 -58.5t-54 -47t-62.5 -34.5q25 -14 54.5 -41.5t55 -56.5t42 -53.5t16.5 -32.5q0 -15 -10.5 -28t-25 -22t-29.5 -14.5t-25 -5.5q-12 0 -20 8zM244 596q-8 -33 -14 -62
t-11 -58.5t-9.5 -61t-8.5 -69.5q18 -3 41.5 -3.5t49.5 -0.5q19 0 45 4t50 15.5t40.5 32.5t16.5 55q0 54 -18 83.5t-47 44t-64.5 17.5t-70.5 5v-2z" />
    <glyph glyph-name="r" unicode="r" horiz-adv-x="635" 
d="M478 -12q-2 3 -24.5 26.5l-53.5 56.5l-64 70t-57 67q-28 1 -49.5 4t-41.5 14q-2 -20 -4 -45t-3.5 -50t-3.5 -48t-3 -41q-2 -24 -17 -36t-35 -12q-17 0 -34 7t-30.5 19.5t-22.5 30t-9 39.5q0 128 21 246.5t60 241.5q-12 -2 -22 -4t-17 -2q-21 11 -30.5 22t-9.5 22
q0 18 28.5 35t66.5 30.5t76.5 22t58.5 8.5q90 0 153 -15t102 -47.5t57 -83.5t18 -124q0 -36 -14 -68t-37.5 -58.5t-54 -47t-62.5 -34.5q25 -14 54.5 -41.5t55 -56.5t42 -53.5t16.5 -32.5q0 -15 -10.5 -28t-25 -22t-29.5 -14.5t-25 -5.5q-12 0 -20 8zM244 596q-8 -33 -14 -62
t-11 -58.5t-9.5 -61t-8.5 -69.5q18 -3 41.5 -3.5t49.5 -0.5q19 0 45 4t50 15.5t40.5 32.5t16.5 55q0 54 -18 83.5t-47 44t-64.5 17.5t-70.5 5v-2z" />
    <glyph glyph-name="quoteright" unicode="&#x2019;" horiz-adv-x="323" 
d="M67 445q22 0 44 7.5t39.5 21t28 33t10.5 42.5q0 15 -6.5 23t-15.5 11q-11 0 -16 -8q-16 -16 -38 -16q-11 0 -22.5 5t-20.5 12.5t-15 17.5t-6 21q0 21 3.5 42.5t15.5 39.5t34.5 29t60.5 11q39 0 64 -21.5t40 -50t20.5 -57.5t5.5 -43q0 -34 -11 -65t-31 -55t-48.5 -38
t-63.5 -14q-27 0 -49 11.5t-33 40.5h10z" />
    <glyph glyph-name="ampersand" unicode="&#x26;" horiz-adv-x="698" 
d="M535 -73q-12 -10 -20.5 -13.5t-26.5 -3.5q-11 0 -22 4.5t-20.5 11.5t-17.5 14.5t-12 13.5q-8 12 -12.5 26.5t-6.5 29.5q-59 -22 -126 -22q-61 0 -107.5 15.5t-78 44t-48 68.5t-16.5 89q0 46 15 86t40 72q-31 48 -31 110q0 47 23.5 88t61 71t83 47.5t89.5 17.5
q45 0 75.5 -11.5t48.5 -29.5t25.5 -39.5t7.5 -40.5q0 -11 -5.5 -23.5t-19.5 -22.5q-6 -4 -15.5 -8t-23.5 -8.5t-35 -10t-50 -11.5l47 92q-3 -3 -9.5 -5t-13.5 -3t-13 -1h-6q-26 0 -50 -8t-42 -21.5t-29 -33t-11 -41.5q0 -8 0.5 -14.5t1.5 -14.5q16 5 32 8.5t33 3.5
q46 0 73 -17.5t39 -37.5q5 5 10 9t13 7q15 0 24 -4t13.5 -10t5.5 -14t1 -16q12 -10 24 -14.5t27 -7.5q15 17 38.5 35t59.5 18q14 0 30.5 -3t31 -14t24 -32t9.5 -57q0 -26 -12 -42.5t-29.5 -27t-38 -15.5t-38.5 -6q-8 -38 -9.5 -77.5t-1.5 -76.5q0 -27 0.5 -51.5t0.5 -47.5z
M241 282q-37 0 -68 9q-15 -36 -15 -84q0 -19 10 -36t26 -29.5t37 -20t43 -7.5q23 0 47 6t43.5 19.5t32 35t12.5 52.5h6l3 8q-31 15 -48 33t-25 38q-16 -14 -42.5 -19t-61.5 -5z" />
    <glyph glyph-name="oe" unicode="&#x153;" horiz-adv-x="1083" 
d="M96 78q-41 68 -58.5 132t-17.5 124q0 80 32 148.5t85 118t122.5 77.5t144.5 28q66 0 106 -17q39 -17 48 -32q2 0 4 0.5t4 0.5q31 1 65 7.5l74.5 14t89.5 13t111 5.5q14 0 32.5 -2.5t51.5 -11.5q8 -8 21 -19.5t26 -25t22 -27.5t9 -27q0 -8 -10.5 -15t-26.5 -13t-33.5 -10
t-31.5 -5q-32 -2 -53 -3t-38 -1.5t-33 -0.5q-15 0 -35 -1h-15t-14 -2q-4 -5 -9.5 -18t-5.5 -36q0 -14 3 -30q1 -6 5.5 -13t15.5 -7h148l28 -4q9 -11 13.5 -27.5t6.5 -30.5q1 -5 1 -16t-3 -21t-13 -11q-13 -1 -36 -2t-52.5 -2t-64.5 -1.5t-72 -0.5q-3 0 -6 -1t-5 -7
l-19 -61.5t-11 -66.5q0 -10 1 -15q1 -8 6 -14t16 -6q18 0 48 10l65 22.5t72 22.5t69 10q9 0 18.5 -5.5t18 -14.5t14 -19.5t7.5 -20.5q1 -4 1 -11q0 -14 -8 -19q-18 -16 -47 -39t-66 -44.5t-82 -37t-94 -15.5q-37 0 -68 12t-54 32.5t-38.5 47.5t-21.5 57q-73 -57 -164 -89
t-183 -36q-6 -18 -22 -32.5l-34 -31.5q-30 39 -45 73.5t-15 58.5v4zM524 502q-40 0 -74 -23t-64 -65.5t-58 -103t-56 -134.5h26q26 0 59 9.5t67 27t66.5 42t57.5 53.5t40.5 62t15.5 68q0 32 -22 48t-58 16zM431 609q10 3 19.5 5.5t19.5 4.5q-24 -4 -48 -10t-44 -13
q-63 -15 -108.5 -47t-75.5 -74t-44 -89.5t-14 -93.5q0 -15 1.5 -30t6.5 -30q32 82 63.5 146t64.5 110.5t69.5 75.5t78.5 42z" />
    <glyph glyph-name="equal" unicode="=" horiz-adv-x="535" 
d="M321 316q63 7 133 9q8 0 16 -2t16 -8q5 -8 7 -18.5t2 -21.5q0 -20 -7.5 -42t-24.5 -30q-20 4 -37 5t-34 1q-23 0 -47.5 -2.5t-48.5 -3.5q-25 -1 -50.5 -3.5t-53.5 -2.5q-32 0 -64 4t-66 15q-27 8 -39 26.5t-12 36.5q0 20 19.5 38.5t49.5 25.5v-17q37 -11 67.5 -14.5
t59.5 -3.5q28 0 56.5 2.5t57.5 5.5zM331 478q28 3 57 5.5t61 2.5q12 0 23 -1.5t22 -7.5q5 -8 7 -18.5t2 -21.5q0 -20 -7.5 -42t-24.5 -30q-20 4 -37 5t-33 1q-23 0 -47 -2l-48 -4l-50.5 -4t-52.5 -2q-32 0 -64 4t-66 15q-27 8 -38.5 26t-11.5 37q0 20 18.5 38t49.5 26v-17
q33 -10 64.5 -14t62.5 -4q27 0 55.5 2.5t57.5 5.5z" />
    <glyph glyph-name="guilsinglleft" unicode="&#x2039;" horiz-adv-x="259" 
d="M175 399q21 -12 33 -31.5t10 -42.5q-4 -39 -18.5 -70t-37.5 -62q32 -34 53.5 -67t24.5 -80q0 -17 -5 -28.5t-12.5 -18.5t-17 -9.5t-18.5 -2.5q-12 0 -20.5 6t-15 14.5t-10.5 18.5l-7 18l-2 4q-10 24 -23 42.5t-26.5 32.5t-26.5 23.5l-22 16.5q-3 3 -13 11t-13 10
q17 35 29 48t23 22q13 10 27 25.5t30 47.5q5 7 5.5 11.5t2.5 9.5v-1q3 14 8 27.5t18 22.5z" />
    <glyph glyph-name="guilsinglright" unicode="&#x203a;" horiz-adv-x="267" 
d="M115 397q13 -9 18 -22.5t9 -27.5v1q2 -7 4 -13t2 -8q16 -32 30 -47t28 -26q11 -9 23 -22t29 -48q-3 -2 -13 -10l-14 -11l-22 -16.5t-26.5 -23.5t-26.5 -32.5t-23 -42.5v-1q0 -1 -0.5 -1.5t-0.5 -1.5l-7 -18t-10 -18.5t-15 -14.5t-21 -6q-9 0 -18 2.5t-16.5 9.5
t-12.5 18.5t-5 28.5q3 47 24 80t53 67q-23 31 -37.5 62t-18.5 70q-2 23 10 42.5t33 31.5z" />
    <glyph glyph-name="guillemotleft" unicode="&#xab;" horiz-adv-x="411" 
d="M165 399q21 -12 33 -31.5t10 -42.5q-4 -39 -25 -73.5t-44 -65.5l32 -34t29.5 -34.5t21.5 -35.5t8 -36q0 -17 -5 -28.5t-12.5 -18.5t-17 -9.5t-18.5 -2.5q-12 0 -20.5 6t-15 14.5t-10.5 18.5l-7 18l-2 4q-15 32 -32.5 54.5t-32.5 38.5t-26.5 26.5t-15.5 18.5
q14 16 25 30.5t21.5 30t21.5 35l25 45.5l7 21v-1q3 14 8 27.5t18 22.5zM329 401q28 -5 39.5 -29.5t9.5 -47.5q-5 -45 -19 -70.5t-30 -45.5q-2 -4 -4.5 -6.5t-4.5 -6.5q33 -35 52 -68t28 -82q-3 -21 -15.5 -39.5t-35.5 -18.5q-9 0 -17.5 7t-16.5 17t-14 20.5t-9 17.5
q-11 28 -25 47t-28.5 33.5l-28 28.5t-22.5 33q16 12 33 33t32.5 47t28 55.5t19.5 57.5z" />
    <glyph glyph-name="guillemotright" unicode="&#xbb;" horiz-adv-x="417" 
d="M279 397q13 -9 18 -22.5t8 -27.5v1q2 -7 3.5 -11t3.5 -10l13.5 -37t15.5 -35t21.5 -34t32.5 -35q-16 -12 -28 -22.5t-22.5 -25.5t-21.5 -36t-26 -54v-1q0 -1 -0.5 -1.5t-0.5 -1.5l-7 -18t-10 -18.5t-15 -14.5t-21 -6q-9 0 -18 2.5t-16.5 9.5t-12.5 18.5t-5 28.5
q3 47 24 80t53 67q-23 31 -37.5 62t-18.5 70q-2 23 10 42.5t33 31.5zM119 384q7 -28 17.5 -58t23.5 -57t28 -48.5t31 -33.5q-14 -13 -24.5 -24.5t-18.5 -22t-15 -21.5l-15 -24q-6 -10 -13.5 -28t-16.5 -36t-20 -31t-25 -13q-23 0 -35.5 18.5t-15.5 39.5q10 48 29 81.5
t51 68.5q-2 4 -4.5 6.5t-4.5 6.5q-16 20 -30 46t-19 70q-1 12 1.5 24.5t8.5 23t16 18.5t24 11z" />
    <glyph glyph-name="paragraph" unicode="&#xb6;" horiz-adv-x="557" 
d="M302 7q-1 -25 -6.5 -38t-31.5 -13q-9 0 -20.5 3.5t-22 10.5t-17.5 17t-7 24v2q2 38 5 72.5t5 69.5q1 19 2.5 35.5t2.5 32.5t1.5 33.5t1.5 40.5h-8q-32 0 -61.5 19t-52 48.5t-35.5 65.5t-13 70q0 39 10 77.5t29.5 70t49 54.5t68.5 31q27 -3 47.5 -5.5l40.5 -5t43.5 -4.5
t57.5 -2q8 2 31 6t44 4q19 0 32 -7.5t13 -26.5q0 -20 -18.5 -42t-57.5 -33q13 -93 18 -181t5 -185q0 -37 -0.5 -68l-1 -61t-2 -60.5t-3.5 -67.5q-2 -23 -11 -36.5t-31 -13.5q-9 0 -19.5 4t-20 11.5t-16 18t-6.5 22.5q2 31 3.5 57t2.5 51.5t1.5 52t0.5 58.5q0 94 -4.5 181
t-14.5 182q0 8 -1 14.5l-2 12.5q-11 1 -18.5 3l-15.5 4v-1q-2 0 -8 2q16 -62 22.5 -120t6.5 -125q0 -57 -2.5 -107.5t-6.5 -101.5q-6 -75 -9 -156zM149 528q0 -20 3.5 -41.5t11 -40t19.5 -30.5t29 -12h4q-2 58 -9 105t-23 101q-14 -14 -24.5 -36t-10.5 -46z" />
    <glyph glyph-name="logicalnot" unicode="&#xac;" horiz-adv-x="3812" 
d="M341 172q23 28 38 55t25 53q18 55 18 115q0 10 -0.5 21.5t-3 22t-7 17.5t-12.5 7q-12 0 -21 -15.5t-16.5 -39t-12.5 -52.5t-8 -56.5t-4.5 -50t-1.5 -33.5v-26q1 -15 6 -18zM543 786q13 0 28 -5t25 -15q36 -30 66.5 -72t53 -90t34.5 -98.5t12 -98.5q0 -77 -16.5 -140
t-43.5 -112.5t-62 -86.5t-73 -61t-75.5 -36t-68.5 -12q-33 0 -58.5 13t-44.5 29l-16.5 17t-12.5 16l-7 14t-3 9q-20 -8 -41.5 -13t-42.5 -5q-42 0 -71 17t-47 44.5t-26.5 63t-8.5 71.5q0 64 15.5 129t44.5 124q29 60 71 111t94 86q11 8 24 15.5t23 7.5q15 0 15 -12
q0 -8 -6 -13t-9 -8q-43 -44 -78 -97.5t-60 -112.5t-39 -121.5t-14 -124.5q0 -23 3.5 -47t13 -44t26 -33t41.5 -13q15 0 30 4.5t24 15.5q-1 1 -4 25t-6 54l-5.5 56t-1.5 31q0 32 4.5 58.5t15.5 49.5q22 45 47 73q16 14 31 23.5t29 16.5q30 14 48 14q24 0 39.5 -13.5t25.5 -33
t14 -42.5t4 -41q0 -71 -39 -139.5t-115 -133.5q11 -29 32 -43t57 -14t77 29q20 12 39 32.5t36 47.5q18 27 32 61t26 73q22 79 22 185q0 42 -8.5 85.5t-25 84t-41 76.5t-55.5 63zM866 204q4 -1 7 -1h7h14h14h8t7 1q0 7 -0.5 18t-2 23t-4 24t-7.5 20q-5 -2 -11 -11.5t-12 -23
t-11.5 -27.5t-8.5 -23zM902 411q2 6 7 6h3h7q5 0 10 -3t9 -7q4 -6 7 -11.5t4 -10.5q2 -6 5.5 -17.5t8 -25t8 -27t5.5 -24.5q4 -33 8 -59t6.5 -50.5t4 -49t1.5 -54.5v-37q-1 -5 -1 -10q0 -4 -1 -9q-5 -3 -11 -3q-15 0 -26.5 13.5t-19.5 33.5l-4 59h-34q-25 0 -36.5 0.5
t-17.5 0.5q-2 0 -2.5 -0.5t-1.5 -0.5h-2q-10 -4 -19 -30l-8 -25.5t-9 -26.5l-11 -28q-3 -5 -9.5 -6.5t-14.5 -1.5h-10q-4 0 -10 2q-11 11 -16 22t-5 28t8 39t22 47q0 12 -7 22.5t-24 12.5l1 20h16h34q5 13 14 31.5t19.5 38l21 38.5t19.5 33l48 58zM1110 397q10 0 13 -5.5
t3 -15.5q0 -14 -1.5 -25.5t-3.5 -22.5q-2 -10 -5.5 -21.5t-6.5 -22.5q-8 -24 -15.5 -56t-13.5 -85v-5q0 -16 10 -16q11 0 27.5 7.5t40.5 15.5l23.5 10.5t20.5 5.5q9 0 9 -9q3 -9 3 -15q0 -17 -12.5 -35.5t-31.5 -35t-40.5 -27t-39.5 -10.5q-24 0 -39 11t-23 28.5t-10.5 38
t-2.5 40.5q0 28 7 62t17 66t21 59t19 42q5 7 11 11t20 10zM1367 322q4 -1 7.5 -1.5t9.5 -0.5q12 0 28.5 7.5t16.5 16.5q0 16 -14 16q-15 0 -31 -9q-16 -10 -17 -29zM1328 -73q-8 -5 -13 -7t-16 -2q-15 0 -29 11q-14 10 -21 21q-6 10 -10 22t-5 26q-2 15 -2 28v25
q0 65 9.5 117.5t23.5 91.5q-104 42 -104 98q0 13 5 26q3 14 15 19q6 0 7.5 -8.5t1.5 -16.5q0 -5 4 -5q26 -22 51.5 -30t56.5 -13q7 6 16 15.5t21 19.5t27 16.5t34 6.5q10 0 22 -2.5t22.5 -10.5t17.5 -24t7 -43q0 -21 -13 -34t-32 -20t-39.5 -9.5t-33.5 -2.5h-5
q-14 -50 -17.5 -102.5t-3.5 -103.5q0 -58 3 -109zM1736 277l-67.5 -6.5t-64.5 -9.5t-48.5 -14.5t-19.5 -21.5q0 -9 8 -20t19 -21.5t24 -21t24 -18.5q25 -20 58 -36.5t68 -25.5l9 195h-10zM1446 633q-5 0 -11 -1t-15 -1q-16 0 -31 3q-16 4 -16 14q0 34 26 53t63 28.5t76 11.5
t65 2q69 0 150 -18l79 -20.5t76 -24.5q28 -9 62.5 -25t71.5 -37.5t75.5 -47.5t73.5 -55q36 -28 66.5 -60.5t53.5 -67.5t36 -72t13 -75q0 -36 -8.5 -65.5t-25.5 -56.5q-30 -49 -87 -83q-26 -17 -56.5 -29.5t-64.5 -20.5t-68 -12t-69 -4t-73 4.5t-72 10.5q-3 -8 -5.5 -16.5
l-7.5 -25.5q-9 -3 -16.5 -4t-18.5 -1l-23 2q-11 14 -16 34.5l-11 44.5q-70 40 -113.5 73t-63.5 57q-8 8 -17 19t-17 22q-17 23 -17 46t34 45q18 14 39.5 24t44.5 19q24 8 54.5 15t67.5 14l2 41q0 3 2.5 23t6.5 43q4 21 10.5 42t15.5 29q28 -22 35 -47.5t9 -58.5q1 -31 6 -64
h13q17 0 44.5 -1.5t59 -6.5t64 -13.5t58 -21.5t42 -32t16.5 -44q0 -9 -6 -21t-15.5 -22.5t-21.5 -18t-25 -7.5q-10 0 -24 3t-22 9q7 6 13 12.5t13 12.5q7 5 12 11t6 11q-8 8 -30 17t-51.5 16.5t-62.5 12t-62 4.5q-11 0 -16 -1t-11 -3l1 -216q12 -8 25 -13t26 -7
q14 -2 24 -2.5t20 -0.5q21 0 47 1t54 5t56.5 10t54.5 17q27 10 50.5 24.5t41 35t27.5 46.5t10 60q0 66 -38 124t-96 106t-127.5 85t-132.5 62q-45 17 -88.5 30t-88.5 22q-44 9 -90 12.5t-97 3.5q-20 0 -40.5 -1.5t-40.5 -6.5q-24 -5 -24 -13q0 -2 5.5 -4t12.5 -3.5t13 -3
t8 -2.5q5 -3 5 -8t-3 -7zM2363 515q1 -1 4 -1q4 0 5 1q5 7 14.5 17.5t21 22l23 22.5l20.5 19v1q0 2 -0.5 3t-0.5 2q-21 -5 -35.5 -12.5t-26.5 -20.5q-22 -23 -25 -54zM2423 479q0 -2 3 -5t5 -3h22q20 0 46.5 6.5t50 19t40 30.5t16.5 41q0 8 -2 16q-3 8 -23 8
q-22 0 -43.5 -9.5t-42 -25.5t-39 -36.5t-33.5 -41.5zM2419 355q30 -2 34 -15q10 -17 10 -45q1 -61 5.5 -124t4.5 -123q0 -12 -6 -24q-6 -11 -26 -11q-5 0 -13.5 2t-14.5 4q-5 1 -8.5 8t-5.5 16t-3.5 17.5t-1.5 11.5v30v17t0.5 15t1 18.5t1.5 25.5q1 11 3.5 52t12.5 117
q0 8 6 8zM2595 633h4q6 0 15.5 -3.5t18.5 -10t15.5 -17t6.5 -23.5q0 -28 -21 -60q-11 -15 -24 -28.5t-30 -24.5q-15 -11 -31 -20.5t-34 -17.5q-35 -16 -59 -16q-16 0 -33 2t-31 7q-8 -10 -13 -17t-16 -9q-9 2 -16 15t-10 30q0 6 4 16q-12 15 -19 28.5t-7 30.5q0 25 17 52
t44.5 50.5t62.5 38.5t71 16q33 0 56.5 -11t28.5 -28zM2562 267q-2 -2 -2 -3.5t2 -1.5q14 -5 27 -9t24 -8q11 0 24 -1t28 -3q13 -1 27.5 -1.5t28.5 -2.5q15 -1 28.5 -4.5t26.5 -8.5q23 -9 40 -29q9 -11 13.5 -23.5t4.5 -31.5q0 -40 -19 -65q-20 -21 -45 -33q-23 -11 -50 -14
q-26 -3 -37 -3q-32 0 -61.5 9.5t-52 23.5t-35.5 31.5t-13 32.5q0 18 8.5 30t22 18.5t30 9.5t31.5 3q29 0 64 -6.5t65 -23.5q2 -1 2 -5t-2 -5q-6 -7 -21 -14q-7 -4 -16 -5t-19 -1q-11 0 -24 3.5t-27 8t-28.5 8.5t-29.5 4q-6 0 -10.5 -1t-9.5 -3q-11 -6 -11 -21
q0 -10 7.5 -15.5t19.5 -8t26 -3t28 -0.5q6 0 33 3q14 2 27 4.5t27 5.5q14 4 25.5 8t22.5 9q23 11 23 24t-17 23t-41 16.5t-49.5 9.5t-41.5 4q-44 0 -69.5 2.5t-38.5 9t-17 17.5t-4 27q0 23 14 40t35.5 28t46.5 17.5t47.5 10t38 4.5t18.5 1q36 0 68 -5.5t57 -10.5q6 -2 9 -5
t3 -11q-2 -8 -8.5 -13.5t-14.5 -9.5q-5 -2 -15 -3.5t-17 -1.5q-13 -2 -37 -4l-49.5 -4t-48.5 -4t-35 -4q-26 -5 -38 -7.5t-19 -8.5zM3038 388q0 7 2 14t8 7q11 0 30 -17t37 -49q17 -32 29.5 -75.5t12.5 -96.5q0 -23 -5 -47t-15 -44t-24 -32.5t-33 -12.5q-14 0 -28.5 14
t-28 35t-26 45.5l-22.5 45.5t-17.5 35t-10.5 14t-8 -11q-1 -5 -1.5 -25t-1.5 -44t-2.5 -47t-4.5 -34q0 -5 -2 -13t-5 -15.5t-8.5 -13t-13.5 -5.5q-12 0 -20 9t-12 21.5t-5.5 26t-1.5 21.5q-1 21 3.5 60.5t13.5 79t22 69t29 29.5q6 0 13.5 -4.5t15.5 -16.5q8 -9 17 -22
l19 -27l18.5 -30l20.5 -33q10 -17 20 -31t21 -27q7 -8 6 -8q7 0 7 17v9q0 34 -3.5 58t-9.5 47t-14 48t-17 61l-5 11v4zM3412 82q0 -11 -6 -15q-10 -8 -26.5 -20t-36.5 -23t-43.5 -18.5t-48.5 -7.5q-40 0 -61 27q-19 23 -19 57q0 17 8.5 40t16.5 47q-2 8 -5 12.5t-3 13.5
q0 6 1.5 10l3.5 9q6 3 13 5.5t13 3.5l23 54l-18.5 8.5t-18 10t-14 12t-5.5 15.5q0 13 26 15q32 2 72 11t102 9q8 0 16.5 -1t24.5 -6q3 -5 8.5 -10t10.5 -11q12 -14 12 -28q0 -3 -5.5 -7t-14 -7.5t-17.5 -6t-16 -2.5q-17 -1 -27.5 -1.5t-18.5 -0.5h-35q-12 0 -14 -1
q-3 -4 -8.5 -13.5t-5.5 -27.5q0 -4 2.5 -7.5t7.5 -3.5h75l15 -2q4 -5 5 -13.5t1 -16.5q0 -6 -2 -14t-10 -9q-14 0 -45 -1t-70 -1q-3 0 -6 -6q-3 -17 -9.5 -33.5t-14.5 -33.5q5 0 32.5 5.5t75.5 10.5q8 1 17 1.5t18 0.5q8 0 16 -10q8 -9 8 -20zM3588 88q53 8 98 47
q23 20 33 44t10 56v8t-2 9q0 11 -10 11q-7 0 -16.5 -7.5t-19.5 -18t-19 -21.5l-15 -18q-4 -6 -12.5 -21.5l-17.5 -33l-17.5 -33.5zM3462 -279q-14 2 -26.5 8.5t-20.5 17.5q-21 24 -21 55q0 7 3.5 30t12 57.5t22.5 79t35 94.5q-8 17 -13.5 36.5t-5.5 37.5q0 20 4.5 39.5
t12.5 39.5q8 21 17 38.5t19 33.5l20.5 30.5t20.5 24.5q21 21 26 21q12 -2 15 -8t3 -19q0 -8 -3 -15t-8 -15l-13 -21t-20 -30q-13 -18 -24 -47q-7 -14 -11 -27.5t-4 -26.5q0 -10 4 -13h2l1 1q1 1 2 3q9 13 19.5 26l24.5 29l26.5 31.5t26.5 28.5l28.5 26.5t27.5 22.5
q25 21 45 21q19 0 32 -14t20.5 -34t10.5 -41t3 -36q0 -45 -26 -81q-22 -39 -56 -64q-18 -15 -35.5 -25t-36.5 -18q-18 -8 -34 -11.5t-28 -3.5q-5 0 -10.5 -0.5t-11.5 -1.5q-15 -43 -24.5 -75.5t-17 -62.5t-14.5 -61.5t-17 -72.5z" />
    <glyph glyph-name="quotesinglbase" unicode="&#x201a;" horiz-adv-x="255" 
d="M90 117q36 0 61.5 -15t42 -36t24.5 -44.5t8 -40.5q0 -26 -11.5 -48t-29 -39.5t-38.5 -30.5t-39.5 -21.5t-32.5 -12.5t-17 -4q-9 0 -14.5 6.5t-5.5 15.5q0 16 8 27t17 20l17 16.5t8 16.5q0 19 -8.5 27l-18.5 17.5t-18.5 26.5t-8.5 55q0 6 1.5 16.5t7.5 21t17 18.5t30 8z
" />
    <glyph glyph-name="quotedblbase" unicode="&#x201e;" horiz-adv-x="578" 
d="M42 -177q22 0 44 7.5t39.5 21t28 33t10.5 42.5q0 15 -6.5 23t-15.5 11q-11 0 -16 -8q-16 -16 -38 -16q-11 0 -22.5 5t-20.5 12.5t-15 17.5t-6 21q0 21 3.5 42.5t15.5 39.5t34.5 29t60.5 11q39 0 64 -21.5t40 -50t20.5 -57.5t5.5 -43q0 -34 -11 -65t-31 -55t-48.5 -38
t-63.5 -14q-27 0 -49 11.5t-33 40.5h10zM332 -177q22 0 44 7.5t39.5 21t28 33t10.5 42.5q0 15 -6.5 23t-15.5 11q-11 0 -16 -8q-16 -16 -38 -16q-11 0 -22.5 5t-20.5 12.5t-15 17.5t-6 21q0 21 3.5 42.5t15.5 39.5t34.5 29t60.5 11q39 0 64 -21.5t40 -50t20.5 -57.5t5.5 -43
q0 -34 -11 -65t-31 -55t-48.5 -38t-63.5 -14q-27 0 -49 11.5t-33 40.5h10z" />
    <glyph glyph-name="florin" unicode="&#x192;" horiz-adv-x="502" 
d="M143 292q-15 5 -25 12t-10 27q0 10 5 21.5t13 22t19 17.5t23 7q5 0 10 -0.5t16 -5.5q6 -4 21 -7q3 24 8 48t11 49q2 2 4.5 10.5l5.5 18.5l12.5 40t17.5 38t27.5 33.5t40.5 26.5q7 3 14.5 5.5t16.5 2.5q29 0 57 -13t52 -50q1 -5 1 -9v-5q0 -28 -13 -38.5t-27 -10.5
q-19 0 -38 7q-6 2 -12.5 3.5l-10.5 2.5q-19 -35 -31 -74t-20 -81q14 3 27.5 5t27.5 2q6 0 12.5 -6t11.5 -15.5t8 -20.5t3 -21q0 -14 -10 -25t-26 -18.5t-35.5 -12t-37.5 -6.5q-7 -42 -15.5 -85.5t-23.5 -85t-39 -79.5t-62 -68q-14 -11 -33 -17t-39 -6q-18 0 -33.5 6.5
t-27 18.5t-18 28t-6.5 34q0 20 7 26t22 6q5 0 10.5 -2.5t10.5 -5.5q2 -2 4 -2.5t4 -1.5l4 -2q2 0 10 5l-2 -1q28 20 47.5 46t32.5 56t21 64t13 69l-23.5 6.5t-25.5 8.5z" />
    <glyph glyph-name="less" unicode="&#x3c;" horiz-adv-x="310" 
d="M227 529q21 -12 33 -31.5t10 -42.5q-3 -33 -26 -58.5t-49 -48.5q-11 -9 -15.5 -12t-12.5 -14q8 -8 17 -14.5t19 -14.5q32 -26 58 -52.5t30 -62.5q0 -18 -5 -29.5t-12.5 -18t-16.5 -9.5t-18 -3q-11 0 -20.5 5t-17.5 12.5t-14.5 16t-10.5 14.5l-1 2q-23 33 -52.5 58
t-53.5 43q-16 12 -28.5 23t-26.5 28q17 26 28.5 37.5t25.5 20.5q17 11 40 30t57 61q4 3 6.5 8t4.5 10l10 21.5t16 18.5z" />
    <glyph glyph-name="perthousand" unicode="&#x2030;" horiz-adv-x="1064" 
d="M223 680q26 0 55.5 -21.5t50.5 -56.5q51 6 103.5 28.5t91.5 57.5q12 10 26 10q10 0 22 -6.5t22.5 -16.5t18 -21.5t7.5 -21.5q0 -8 -1 -12t-6 -9l-58 -74l-61 -80l-67.5 -89l-76.5 -102l-78 -104l-80 -102q-6 -7 -15.5 -11.5t-19.5 -4.5q-11 0 -22.5 6t-21.5 15t-16.5 20
t-6.5 21q0 17 12 29q90 87 164 188.5l144 206.5q-14 -3 -28 -5.5t-28 -4.5v-10q0 -33 -13 -60t-34 -46.5t-47.5 -30.5t-54.5 -11q-78 0 -121 41.5t-43 106.5q0 18 2.5 34t8.5 31t17 31t28 36q14 14 39 21t53 11zM700 198q0 19 4.5 43.5t18 47.5t39.5 41t68 25q13 6 26.5 8
t24.5 2q29 0 53.5 -15.5t42 -39.5t27 -54t9.5 -58q0 -33 -14 -60.5t-36.5 -47t-50.5 -30.5t-55 -11q-79 0 -118 41.5t-39 107.5zM368 205q0 19 4.5 43.5t18.5 47.5t40 41t68 25q12 5 26 7t24 2q29 0 53.5 -15.5t42 -39.5t27.5 -53.5t10 -57.5q0 -33 -14 -60.5t-36.5 -47.5
t-50.5 -31t-56 -11q-79 0 -118 42.5t-39 107.5zM462 211q0 -26 15.5 -43t43.5 -17q11 0 23 5t22 14t16.5 20.5t6.5 24.5q0 27 -12.5 45.5t-27.5 18.5h-6zM793 204q0 -26 16 -43t44 -17q11 0 23 5t22 14t16.5 20.5t6.5 24.5q0 27 -13 45.5t-27 18.5h-6zM161 572
q-10 -11 -17.5 -25.5t-7.5 -37.5q0 -27 19.5 -41t48.5 -14q21 0 38 16.5t17 41.5q0 7 -1 11q-14 2 -27.5 7l-27.5 10l3 17zM169 666l5 -12l4 9l-6 3h-3z" />
    <glyph glyph-name="greater" unicode="&#x3e;" horiz-adv-x="320" 
d="M118 527q11 -8 16 -18.5l10 -21.5q2 -5 4.5 -10t6.5 -8q34 -42 56.5 -61t39.5 -30q14 -10 26.5 -21t28.5 -37q-14 -17 -26.5 -28t-28.5 -23q-24 -18 -53.5 -43t-52.5 -58l-1 -2q-5 -6 -11 -14.5t-14 -16t-17.5 -12.5t-20.5 -5q-9 0 -18 3t-16.5 9.5t-12.5 18t-5 29.5
q4 36 30 62.5t58 52.5v1q14 11 19.5 14t16.5 15l-13.5 12l-14.5 13q-26 23 -49 48t-26 59q-2 23 10 42.5t33 31.5z" />
    <glyph glyph-name="braceleft" unicode="{" horiz-adv-x="304" 
d="M13 365q7 17 18 25.5t21 13.5q1 0 8 5q12 8 19 15t10 15.5t4 19t1 25.5q0 8 -0.5 19t-1.5 22.5t-1.5 22t-1.5 17.5v-1q-5 37 2.5 77t24.5 73t42.5 54.5t56.5 21.5q40 0 53.5 -15.5t13.5 -35.5q0 -22 -7 -41t-35 -27q-25 -8 -33.5 -31t-8.5 -52q0 -14 1 -29t2 -33
q2 -17 2.5 -36.5t0.5 -33.5q0 -32 -5 -51.5t-22 -39.5q14 -19 22.5 -42t12.5 -48t5.5 -50.5t2.5 -49.5q0 -5 0.5 -9t0.5 -9q2 -39 5.5 -64.5t11.5 -25.5q6 0 16.5 -5.5t20 -14.5t16.5 -19.5t7 -20.5q0 -18 -16 -30t-44 -12h-9q-11 0 -23 2t-25 10q-24 18 -37.5 37.5t-21 40
t-9.5 42t-2 43.5v42q0 29 -4 57t-24 54q-5 6 -11 9t-14 8q-11 5 -21 13t-20 19z" />
    <glyph glyph-name="braceright" unicode="}" horiz-adv-x="311" 
d="M299 342q-10 -11 -20 -19t-21 -13q-8 -5 -14 -8t-10 -9q-20 -26 -24.5 -54t-4.5 -57v-42q0 -22 -2 -43.5t-9 -42t-21 -40t-37 -37.5q-14 -8 -26 -10t-23 -2h-9q-28 0 -44 12t-16 30q0 10 7 20.5t16.5 19.5t20 14.5t16.5 5.5q8 0 12 26t6 65q0 4 0.5 8t0.5 9
q0 24 1.5 49.5t6 50.5t12.5 48t22 42q-14 18 -20.5 39t-6.5 52q0 15 0.5 33.5t2.5 36.5l2 33t1 29q0 29 -8 52t-34 31q-28 8 -35 27t-7 41q0 20 13.5 35.5t53.5 15.5q31 0 56.5 -21.5t42.5 -54.5t24 -73t3 -77v1q-1 -7 -1.5 -17.5l-1 -22l-1 -22.5t-0.5 -19q0 -15 0.5 -25.5
t4 -19t10 -15.5t18.5 -15q2 -1 4.5 -3t3.5 -2q11 -5 21.5 -14t17.5 -25z" />
    <glyph glyph-name="ordfeminine" unicode="&#xaa;" horiz-adv-x="868" 
d="M561 485q-14 33 -14 64q0 56 38 96q20 19 44.5 28t50.5 9q32 0 63 -13t57 -39t39 -56.5t13 -62.5q0 -26 -9 -50.5t-28 -44.5q-20 -20 -45 -29t-51 -9q-30 0 -60 12q17 -29 26 -62t9 -69q0 -53 -20.5 -100.5t-56 -82.5t-82.5 -55.5t-100 -20.5q-54 0 -101.5 20.5t-83 55.5
t-56 82.5t-20.5 100.5q0 36 9.5 69t26.5 62q-30 -12 -60 -12q-26 0 -50.5 9t-44.5 29q-38 40 -38 95q0 32 13 62.5t39 56.5t57.5 39t63.5 13q26 0 50.5 -9t44.5 -28q19 -20 28 -44.5t9 -50.5q0 -34 -13 -64q56 32 126 32t126 -33z" />
    <glyph glyph-name="q" unicode="Q" horiz-adv-x="868" 
d="M30 341q0 82 39 147.5t104 115.5t149.5 86.5t174.5 61.5q6 1 11.5 1.5t10.5 0.5q54 0 81 -57q233 -65 233 -260q0 -78 -34 -151.5t-98 -131.5t-157.5 -93t-211.5 -35q-145 0 -223.5 76t-78.5 239zM310 528q-37 -18 -62.5 -43.5t-41 -54t-22.5 -58.5t-7 -57
q0 -33 14.5 -63t38.5 -52.5t55 -36t63 -13.5q72 0 134 23.5t107.5 62t71 86.5t25.5 98q0 135 -178 171q-38 -8 -60.5 -40t-22.5 -77q0 -40 16 -81t42 -80.5t59 -76.5t67 -68t66 -55.5t56 -38.5q-16 -12 -25 -22.5l-17.5 -19.5t-18.5 -17t-28 -15q-28 13 -64.5 38.5
t-74.5 59.5t-75 74.5t-66 85t-46.5 90t-17.5 89.5q0 28 2.5 49.5t9.5 41.5zM770 -35q-25 4 -59 13t-69 22l89 74q25 -16 44 -31.5t19 -27.5q0 -25 -24 -50z" />
    <glyph glyph-name="q" unicode="q" horiz-adv-x="868" 
d="M30 341q0 82 39 147.5t104 115.5t149.5 86.5t174.5 61.5q6 1 11.5 1.5t10.5 0.5q54 0 81 -57q233 -65 233 -260q0 -78 -34 -151.5t-98 -131.5t-157.5 -93t-211.5 -35q-145 0 -223.5 76t-78.5 239zM310 528q-37 -18 -62.5 -43.5t-41 -54t-22.5 -58.5t-7 -57
q0 -33 14.5 -63t38.5 -52.5t55 -36t63 -13.5q72 0 134 23.5t107.5 62t71 86.5t25.5 98q0 135 -178 171q-38 -8 -60.5 -40t-22.5 -77q0 -40 16 -81t42 -80.5t59 -76.5t67 -68t66 -55.5t56 -38.5q-16 -12 -25 -22.5l-17.5 -19.5t-18.5 -17t-28 -15q-28 13 -64.5 38.5
t-74.5 59.5t-75 74.5t-66 85t-46.5 90t-17.5 89.5q0 28 2.5 49.5t9.5 41.5zM770 -35q-25 4 -59 13t-69 22l89 74q25 -16 44 -31.5t19 -27.5q0 -25 -24 -50z" />
    <glyph glyph-name="p" unicode="P" horiz-adv-x="685" 
d="M277 606q-4 -23 -7 -45t-5.5 -45t-3.5 -49t-1 -57v-61q56 7 102 17.5t79 27t51 41t18 61.5q0 43 -11 68.5t-29.5 37.5t-42.5 14t-49.5 0t-52 -6t-48.5 -4zM288 78q0 -89 -82 -89q-11 0 -26.5 5t-35.5 16q-14 62 -20.5 120t-6.5 126q0 31 1 69t3.5 78.5t6 81t8.5 75.5
q-26 -8 -40 -8q-31 0 -53.5 15t-22.5 48q0 23 15 43v-2q2 5 7 10.5l13 14.5q13 2 28 7l29 10h-2l26 9t29 8q43 8 97 15.5t109.5 8t108 -9t94 -34.5t66.5 -68t25 -110q0 -74 -33.5 -126t-89 -88.5t-128 -59t-151.5 -37.5z" />
    <glyph glyph-name="p" unicode="p" horiz-adv-x="685" 
d="M277 606q-4 -23 -7 -45t-5.5 -45t-3.5 -49t-1 -57v-61q56 7 102 17.5t79 27t51 41t18 61.5q0 43 -11 68.5t-29.5 37.5t-42.5 14t-49.5 0t-52 -6t-48.5 -4zM288 78q0 -89 -82 -89q-11 0 -26.5 5t-35.5 16q-14 62 -20.5 120t-6.5 126q0 31 1 69t3.5 78.5t6 81t8.5 75.5
q-26 -8 -40 -8q-31 0 -53.5 15t-22.5 48q0 23 15 43v-2q2 5 7 10.5l13 14.5q13 2 28 7l29 10h-2l26 9t29 8q43 8 97 15.5t109.5 8t108 -9t94 -34.5t66.5 -68t25 -110q0 -74 -33.5 -126t-89 -88.5t-128 -59t-151.5 -37.5z" />
    <glyph glyph-name="j" unicode="J" horiz-adv-x="567" 
d="M513 745q48 -51 48 -93q0 -13 -13 -19.5t-32 -10.5t-39.5 -7t-36.5 -8q29 -106 45.5 -222.5t16.5 -229.5q0 -32 -4 -63t-20 -55q-18 -28 -55.5 -42t-77.5 -14q-38 0 -94 13t-114 48q-15 9 -35 24t-38 34.5t-30.5 41t-12.5 43.5q0 42 26 92q7 -12 21 -27.5t32.5 -31.5
t41.5 -31t48 -27q31 -14 63 -23.5t64 -9.5q17 0 25.5 2.5t13.5 8.5q0 24 -1.5 59t-6.5 87.5t-14 126t-25 174.5q-35 -6 -60.5 -9.5t-46 -5.5t-37.5 -2.5t-34 -0.5q-105 0 -105 96v9q0 5 1 10l26 25q138 20 251.5 27.5t208.5 10.5z" />
    <glyph glyph-name="j" unicode="j" horiz-adv-x="567" 
d="M513 745q48 -51 48 -93q0 -13 -13 -19.5t-32 -10.5t-39.5 -7t-36.5 -8q29 -106 45.5 -222.5t16.5 -229.5q0 -32 -4 -63t-20 -55q-18 -28 -55.5 -42t-77.5 -14q-38 0 -94 13t-114 48q-15 9 -35 24t-38 34.5t-30.5 41t-12.5 43.5q0 42 26 92q7 -12 21 -27.5t32.5 -31.5
t41.5 -31t48 -27q31 -14 63 -23.5t64 -9.5q17 0 25.5 2.5t13.5 8.5q0 24 -1.5 59t-6.5 87.5t-14 126t-25 174.5q-35 -6 -60.5 -9.5t-46 -5.5t-37.5 -2.5t-34 -0.5q-105 0 -105 96v9q0 5 1 10l26 25q138 20 251.5 27.5t208.5 10.5z" />
    <glyph glyph-name="Ydieresis" unicode="&#x178;" horiz-adv-x="674" 
d="M279 -250q-9 -2 -19 -4.5t-27 -2.5q-38 0 -62 18t-37.5 46.5t-19 65t-5.5 72.5q0 29 2 56.5t6.5 57.5t11.5 65t18 78q-22 9 -45 28t-41.5 44t-30 52.5t-11.5 52.5q0 56 18.5 115t44.5 108t53 80t45 31q15 0 29 -14t14 -36t-10.5 -50.5l-23 -61t-23 -68t-10.5 -70.5
q0 -44 37 -76q11 36 27.5 81.5t37.5 92.5t47 91.5t56 79.5t63 56t69 21q47 0 79 -19.5t52 -48.5t29 -63t9 -64q0 -66 -27 -131t-74 -118.5t-110 -91.5t-135 -51q-8 -48 -14.5 -91t-11 -87t-7 -92.5t-2.5 -107.5v-31zM340 326q47 21 86 54.5t74 78.5q43 55 43 116
q0 10 -1.5 21.5t-6 21.5t-12.5 17t-21 7q-11 0 -27 -20.5t-33.5 -52.5t-34.5 -70l-31.5 -73t-24 -62.5t-11.5 -37.5zM446 946q16 0 31 -6.5t26.5 -18t18 -26.5t6.5 -32q0 -16 -6.5 -30.5t-17.5 -26t-25.5 -18.5t-29.5 -7q-17 0 -33 5.5t-28 16t-19.5 24t-7.5 30.5
q0 38 23.5 63.5t61.5 25.5zM220 946q16 0 31 -6.5t26.5 -18t18 -26.5t6.5 -32q0 -16 -6.5 -30.5t-17.5 -26t-25.5 -18.5t-30.5 -7q-17 0 -32.5 5.5t-27.5 16t-19.5 24t-7.5 30.5q0 38 23.5 63.5t61.5 25.5z" />
    <glyph glyph-name="yen" unicode="&#xa5;" horiz-adv-x="674" 
d="M279 -250q-9 -2 -19 -4.5t-27 -2.5q-38 0 -62 18t-37.5 46.5t-19 65t-5.5 72.5q0 29 2 56.5t6.5 57.5t11.5 65t18 78q-22 9 -45 28t-41.5 44t-30 52.5t-11.5 52.5q0 56 18.5 115t44.5 108t53 80t45 31q15 0 29 -14t14 -36t-10.5 -50.5l-23 -61t-23 -68t-10.5 -70.5
q0 -44 37 -76q11 36 27.5 81.5t37.5 92.5t47 91.5t56 79.5t63 56t69 21q47 0 79 -19.5t52 -48.5t29 -63t9 -64q0 -66 -27 -131t-74 -118.5t-110 -91.5t-135 -51q-8 -48 -14.5 -91t-11 -87t-7 -92.5t-2.5 -107.5v-31zM340 326q47 21 86 54.5t74 78.5q43 55 43 116
q0 10 -1.5 21.5t-6 21.5t-12.5 17t-21 7q-11 0 -27 -20.5t-33.5 -52.5t-34.5 -70l-31.5 -73t-24 -62.5t-11.5 -37.5zM73 228q0 -4 0.5 -7.5t1.5 -3.5q34 -8 67 -11.5t65 -3.5q13 0 29 0.5t40.5 2t61 3.5t91.5 6q10 1 20 1.5t21 1.5q9 0 18 -1.5t17 -8.5q5 -8 8 -19t3 -22
q0 -20 -8 -42t-28 -30q-19 3 -40 4.5t-35 1.5q-52 -3 -107 -7t-107 -4q-34 0 -68.5 3.5t-69.5 13.5q-31 9 -44 27t-13 37q0 22 21 39t56 19zM57 69q0 -4 0.5 -7.5t1.5 -3.5q34 -8 67 -11.5t65 -3.5q13 0 29 0.5t40.5 2t61 3.5t91.5 6q10 1 20 1.5t21 1.5q9 0 18 -1.5
t17 -8.5q5 -8 8 -19t3 -22q0 -20 -8 -42t-28 -30q-19 3 -40 4.5t-35 1.5q-52 -3 -107 -7t-107 -4q-34 0 -68.5 3.5t-69.5 13.5q-31 9 -44 27t-13 37q0 22 21 39t56 19z" />
    <glyph glyph-name="germandbls" unicode="&#xdf;" horiz-adv-x="1454" 
d="M1196 258q0 -9 -4 -13q-12 -13 -44 -28t-70 -15q-5 0 -23 6.5l-43 15t-52 15t-50 6.5t-38 -9.5t-15 -33.5q0 -8 13 -18t34 -19q23 -9 54 -14t66 -5q43 0 88 7.5t81.5 22t59.5 35.5t23 49q0 19 -16 34t-41.5 27t-58 21t-65.5 14.5t-63.5 8.5t-51.5 4q-86 2 -137.5 9
t-78.5 20.5t-35.5 36t-8.5 56.5q0 50 28 86t71 60t93.5 38t94.5 21.5t75 9.5t36 2q75 0 140.5 -11.5t115.5 -25.5q11 -2 16.5 -8t5.5 -24q-2 -20 -14.5 -31.5t-29.5 -17.5q-12 -3 -33 -7t-33 -6q-14 -2 -51 -4.5l-84.5 -6t-99 -8t-94.5 -12t-71 -18t-28 -24.5q0 -11 26 -17
t62 -10.5t74.5 -7t62.5 -5.5q72 -9 131.5 -19.5t102 -33t66 -63t23.5 -108.5q0 -52 -20.5 -90.5t-52 -65.5t-70.5 -44t-76 -27t-68 -13.5t-47 -3.5q-64 0 -122 19.5t-102 49.5t-70 66t-26 69q0 39 17 65t44 41t59 21t62 6q28 0 60.5 -4t66 -12.5t67 -21t64.5 -29.5
q4 -4 4 -8zM498 258q0 -9 -4 -13q-12 -13 -44 -28t-70 -15q-5 0 -23 6.5l-43 15t-52 15t-50 6.5t-38 -9.5t-15 -33.5q0 -8 13 -18t34 -19q23 -9 54 -14t66 -5q43 0 88 7.5t81.5 22t59.5 35.5t23 49q0 19 -16 34t-41.5 27t-58 21t-65.5 14.5t-63.5 8.5t-51.5 4
q-86 2 -137.5 9t-78.5 20.5t-35.5 36t-8.5 56.5q0 50 28 86t71 60t93.5 38t94.5 21.5t75 9.5t36 2q75 0 140.5 -11.5t115.5 -25.5q11 -2 16.5 -8t5.5 -24q-2 -20 -14.5 -31.5t-29.5 -17.5q-12 -3 -33 -7t-33 -6q-14 -2 -51 -4.5l-84.5 -6t-99 -8t-94.5 -12t-71 -18
t-28 -24.5q0 -11 26 -17t62 -10.5t74.5 -7t62.5 -5.5q72 -9 131.5 -19.5t102 -33t66 -63t23.5 -108.5q0 -52 -20.5 -90.5t-52 -65.5t-70.5 -44t-76 -27t-68 -13.5t-47 -3.5q-64 0 -122 19.5t-102 49.5t-70 66t-26 69q0 39 17 65t44 41t59 21t62 6q28 0 60.5 -4t66 -12.5
t67 -21t64.5 -29.5q4 -4 4 -8z" />
    <glyph glyph-name="OE" unicode="&#x152;" horiz-adv-x="1083" 
d="M96 78q-41 68 -58.5 132t-17.5 124q0 80 32 148.5t85 118t122.5 77.5t144.5 28q66 0 106 -17q39 -17 48 -32q2 0 4 0.5t4 0.5q31 1 65 7.5l74.5 14t89.5 13t111 5.5q14 0 32.5 -2.5t51.5 -11.5q8 -8 21 -19.5t26 -25t22 -27.5t9 -27q0 -8 -10.5 -15t-26.5 -13t-33.5 -10
t-31.5 -5q-32 -2 -53 -3t-38 -1.5t-33 -0.5q-15 0 -35 -1h-15t-14 -2q-4 -5 -9.5 -18t-5.5 -36q0 -14 3 -30q1 -6 5.5 -13t15.5 -7h148l28 -4q9 -11 13.5 -27.5t6.5 -30.5q1 -5 1 -16t-3 -21t-13 -11q-13 -1 -36 -2t-52.5 -2t-64.5 -1.5t-72 -0.5q-3 0 -6 -1t-5 -7
l-19 -61.5t-11 -66.5q0 -10 1 -15q1 -8 6 -14t16 -6q18 0 48 10l65 22.5t72 22.5t69 10q9 0 18.5 -5.5t18 -14.5t14 -19.5t7.5 -20.5q1 -4 1 -11q0 -14 -8 -19q-18 -16 -47 -39t-66 -44.5t-82 -37t-94 -15.5q-37 0 -68 12t-54 32.5t-38.5 47.5t-21.5 57q-73 -57 -164 -89
t-183 -36q-6 -18 -22 -32.5l-34 -31.5q-30 39 -45 73.5t-15 58.5v4zM524 502q-40 0 -74 -23t-64 -65.5t-58 -103t-56 -134.5h26q26 0 59 9.5t67 27t66.5 42t57.5 53.5t40.5 62t15.5 68q0 32 -22 48t-58 16zM431 609q10 3 19.5 5.5t19.5 4.5q-24 -4 -48 -10t-44 -13
q-63 -15 -108.5 -47t-75.5 -74t-44 -89.5t-14 -93.5q0 -15 1.5 -30t6.5 -30q32 82 63.5 146t64.5 110.5t69.5 75.5t78.5 42z" />
    <glyph glyph-name="AE" unicode="&#xc6;" horiz-adv-x="968" 
d="M370 756q5 8 9.5 9t12.5 1h12q10 0 19.5 -6t17.5 -15t13.5 -20t7.5 -21l11.5 -36l16 -49.5t16 -53.5t10.5 -47q2 -13 3.5 -25t3.5 -24l13.5 -100.5t10.5 -90.5t6.5 -89t2.5 -97v-44q0 -17 -0.5 -29t-2 -21t-3.5 -18q-9 -6 -22 -6q-29 0 -51 27.5t-39 66.5l-8 116h-64
q-26 0 -44.5 0.5t-31.5 0.5q-12 0 -20 0.5t-14 0.5q-10 0 -12 -2q-11 -4 -20 -19.5t-17 -38t-16.5 -49.5t-18.5 -55l-22 -58q-16 -16 -48 -16q-9 0 -18.5 2t-21.5 4q-21 23 -29.5 44.5t-8.5 53.5q0 36 14.5 80t41.5 92q0 24 -14 45.5t-46 26.5l4 38q6 -2 13 -2h15h66
l30 62.5t39 77l42 77.5t39 65l96 118zM298 342q14 -2 28 -2h28h29t29 2q0 14 -0.5 36.5t-3.5 46.5t-8.5 48t-15.5 41q-11 -3 -23.5 -23.5t-24.5 -47.5t-22.5 -55t-15.5 -46zM915 148q1 -4 1 -11q0 -14 -8 -19q-18 -16 -47 -39t-66 -44.5t-82 -37t-94 -15.5q-43 0 -77.5 16
t-58.5 42.5t-37 60.5t-13 70q0 32 9.5 70.5t17.5 78.5q-6 15 -15 27t-9 33q0 8 1.5 15l3.5 17q11 5 23.5 9.5t26.5 6.5l32 110l-40.5 17.5t-41.5 20.5t-32 25t-13 32q0 14 12.5 18.5t35.5 6.5q31 1 65 7.5l74.5 14t89.5 13t111 5.5q14 0 32.5 -2.5t51.5 -11.5q8 -8 21 -19.5
t26 -25t22 -27.5t9 -27q0 -8 -10.5 -15t-26.5 -13t-33.5 -10t-31.5 -5q-32 -2 -53 -3t-38 -1.5t-33 -0.5q-15 0 -35 -1h-15t-14 -2q-4 -5 -9.5 -18t-5.5 -36q0 -14 3 -30q1 -6 5.5 -13t15.5 -7h148l28 -4q9 -11 13.5 -27.5t6.5 -30.5q1 -5 1 -16t-3 -21t-13 -11
q-13 -1 -36 -2t-52.5 -2t-64.5 -1.5t-72 -0.5q-3 0 -6 -1t-5 -7l-19 -61.5t-11 -66.5q0 -10 1 -15q1 -8 6 -14t16 -6q18 0 48 10l65 22.5t72 22.5t69 10q9 0 18.5 -5.5t18 -14.5t14 -19.5t7.5 -20.5z" />
    <glyph glyph-name="bar" unicode="|" horiz-adv-x="338" 
d="M131 793q47 -2 68 -39t23 -105q2 -73 3.5 -154.5l3 -164.5t2.5 -164t1 -153q0 -14 -2.5 -29t-8.5 -27t-16.5 -19.5t-26.5 -7.5q-10 0 -24 4t-25 9q-8 4 -14 21t-10.5 37.5t-6.5 40t-3 28.5q2 91 3.5 168.5t4.5 157t7.5 170t11.5 209.5q1 18 9 18z" />
    <glyph glyph-name="Agrave" unicode="&#xc0;" horiz-adv-x="606" 
d="M370 756q5 8 9.5 9t12.5 1h12q10 0 19.5 -6t17.5 -15t13.5 -20t7.5 -21l11.5 -36l16 -49.5t16 -53.5t10.5 -47q2 -13 3.5 -25t3.5 -24l13.5 -100.5t10.5 -90.5t6.5 -89t2.5 -97v-44q0 -17 -0.5 -29t-2 -21t-3.5 -18q-9 -6 -22 -6q-29 0 -51 27.5t-39 66.5l-8 116h-64
q-26 0 -44.5 0.5t-31.5 0.5q-12 0 -20 0.5t-14 0.5q-10 0 -12 -2q-11 -4 -20 -19.5t-17 -38t-16.5 -49.5t-18.5 -55l-22 -58q-16 -16 -48 -16q-9 0 -18.5 2t-21.5 4q-21 23 -29.5 44.5t-8.5 53.5q0 36 14.5 80t41.5 92q0 24 -14 45.5t-46 26.5l4 38q6 -2 13 -2h15h66
l30 62.5t39 77l42 77.5t39 65l96 118zM298 342q14 -2 28 -2h28h29t29 2q0 14 -0.5 36.5t-3.5 46.5t-8.5 48t-15.5 41q-11 -3 -23.5 -23.5t-24.5 -47.5t-22.5 -55t-15.5 -46z" />
    <glyph glyph-name="Aacute" unicode="&#xc1;" horiz-adv-x="606" 
d="M370 756q5 8 9.5 9t12.5 1h12q10 0 19.5 -6t17.5 -15t13.5 -20t7.5 -21l11.5 -36l16 -49.5t16 -53.5t10.5 -47q2 -13 3.5 -25t3.5 -24l13.5 -100.5t10.5 -90.5t6.5 -89t2.5 -97v-44q0 -17 -0.5 -29t-2 -21t-3.5 -18q-9 -6 -22 -6q-29 0 -51 27.5t-39 66.5l-8 116h-64
q-26 0 -44.5 0.5t-31.5 0.5q-12 0 -20 0.5t-14 0.5q-10 0 -12 -2q-11 -4 -20 -19.5t-17 -38t-16.5 -49.5t-18.5 -55l-22 -58q-16 -16 -48 -16q-9 0 -18.5 2t-21.5 4q-21 23 -29.5 44.5t-8.5 53.5q0 36 14.5 80t41.5 92q0 24 -14 45.5t-46 26.5l4 38q6 -2 13 -2h15h66
l30 62.5t39 77l42 77.5t39 65l96 118zM298 342q14 -2 28 -2h28h29t29 2q0 14 -0.5 36.5t-3.5 46.5t-8.5 48t-15.5 41q-11 -3 -23.5 -23.5t-24.5 -47.5t-22.5 -55t-15.5 -46z" />
    <glyph glyph-name="Acircumflex" unicode="&#xc2;" horiz-adv-x="606" 
d="M370 756q5 8 9.5 9t12.5 1h12q10 0 19.5 -6t17.5 -15t13.5 -20t7.5 -21l11.5 -36l16 -49.5t16 -53.5t10.5 -47q2 -13 3.5 -25t3.5 -24l13.5 -100.5t10.5 -90.5t6.5 -89t2.5 -97v-44q0 -17 -0.5 -29t-2 -21t-3.5 -18q-9 -6 -22 -6q-29 0 -51 27.5t-39 66.5l-8 116h-64
q-26 0 -44.5 0.5t-31.5 0.5q-12 0 -20 0.5t-14 0.5q-10 0 -12 -2q-11 -4 -20 -19.5t-17 -38t-16.5 -49.5t-18.5 -55l-22 -58q-16 -16 -48 -16q-9 0 -18.5 2t-21.5 4q-21 23 -29.5 44.5t-8.5 53.5q0 36 14.5 80t41.5 92q0 24 -14 45.5t-46 26.5l4 38q6 -2 13 -2h15h66
l30 62.5t39 77l42 77.5t39 65l96 118zM298 342q14 -2 28 -2h28h29t29 2q0 14 -0.5 36.5t-3.5 46.5t-8.5 48t-15.5 41q-11 -3 -23.5 -23.5t-24.5 -47.5t-22.5 -55t-15.5 -46z" />
    <glyph glyph-name="Atilde" unicode="&#xc3;" horiz-adv-x="606" 
d="M370 756q5 8 9.5 9t12.5 1h12q10 0 19.5 -6t17.5 -15t13.5 -20t7.5 -21l11.5 -36l16 -49.5t16 -53.5t10.5 -47q2 -13 3.5 -25t3.5 -24l13.5 -100.5t10.5 -90.5t6.5 -89t2.5 -97v-44q0 -17 -0.5 -29t-2 -21t-3.5 -18q-9 -6 -22 -6q-29 0 -51 27.5t-39 66.5l-8 116h-64
q-26 0 -44.5 0.5t-31.5 0.5q-12 0 -20 0.5t-14 0.5q-10 0 -12 -2q-11 -4 -20 -19.5t-17 -38t-16.5 -49.5t-18.5 -55l-22 -58q-16 -16 -48 -16q-9 0 -18.5 2t-21.5 4q-21 23 -29.5 44.5t-8.5 53.5q0 36 14.5 80t41.5 92q0 24 -14 45.5t-46 26.5l4 38q6 -2 13 -2h15h66
l30 62.5t39 77l42 77.5t39 65l96 118zM298 342q14 -2 28 -2h28h29t29 2q0 14 -0.5 36.5t-3.5 46.5t-8.5 48t-15.5 41q-11 -3 -23.5 -23.5t-24.5 -47.5t-22.5 -55t-15.5 -46z" />
    <glyph glyph-name="Adieresis" unicode="&#xc4;" horiz-adv-x="606" 
d="M370 756q5 8 9.5 9t12.5 1h12q10 0 19.5 -6t17.5 -15t13.5 -20t7.5 -21l11.5 -36l16 -49.5t16 -53.5t10.5 -47q2 -13 3.5 -25t3.5 -24l13.5 -100.5t10.5 -90.5t6.5 -89t2.5 -97v-44q0 -17 -0.5 -29t-2 -21t-3.5 -18q-9 -6 -22 -6q-29 0 -51 27.5t-39 66.5l-8 116h-64
q-26 0 -44.5 0.5t-31.5 0.5q-12 0 -20 0.5t-14 0.5q-10 0 -12 -2q-11 -4 -20 -19.5t-17 -38t-16.5 -49.5t-18.5 -55l-22 -58q-16 -16 -48 -16q-9 0 -18.5 2t-21.5 4q-21 23 -29.5 44.5t-8.5 53.5q0 36 14.5 80t41.5 92q0 24 -14 45.5t-46 26.5l4 38q6 -2 13 -2h15h66
l30 62.5t39 77l42 77.5t39 65l96 118zM298 342q14 -2 28 -2h28h29t29 2q0 14 -0.5 36.5t-3.5 46.5t-8.5 48t-15.5 41q-11 -3 -23.5 -23.5t-24.5 -47.5t-22.5 -55t-15.5 -46z" />
    <glyph glyph-name="Aring" unicode="&#xc5;" horiz-adv-x="606" 
d="M370 756q5 8 9.5 9t12.5 1h12q10 0 19.5 -6t17.5 -15t13.5 -20t7.5 -21l11.5 -36l16 -49.5t16 -53.5t10.5 -47q2 -13 3.5 -25t3.5 -24l13.5 -100.5t10.5 -90.5t6.5 -89t2.5 -97v-44q0 -17 -0.5 -29t-2 -21t-3.5 -18q-9 -6 -22 -6q-29 0 -51 27.5t-39 66.5l-8 116h-64
q-26 0 -44.5 0.5t-31.5 0.5q-12 0 -20 0.5t-14 0.5q-10 0 -12 -2q-11 -4 -20 -19.5t-17 -38t-16.5 -49.5t-18.5 -55l-22 -58q-16 -16 -48 -16q-9 0 -18.5 2t-21.5 4q-21 23 -29.5 44.5t-8.5 53.5q0 36 14.5 80t41.5 92q0 24 -14 45.5t-46 26.5l4 38q6 -2 13 -2h15h66
l30 62.5t39 77l42 77.5t39 65l96 118zM298 342q14 -2 28 -2h28h29t29 2q0 14 -0.5 36.5t-3.5 46.5t-8.5 48t-15.5 41q-11 -3 -23.5 -23.5t-24.5 -47.5t-22.5 -55t-15.5 -46z" />
    <glyph glyph-name="agrave" unicode="&#xe0;" horiz-adv-x="606" 
d="M370 756q5 8 9.5 9t12.5 1h12q10 0 19.5 -6t17.5 -15t13.5 -20t7.5 -21l11.5 -36l16 -49.5t16 -53.5t10.5 -47q2 -13 3.5 -25t3.5 -24l13.5 -100.5t10.5 -90.5t6.5 -89t2.5 -97v-44q0 -17 -0.5 -29t-2 -21t-3.5 -18q-9 -6 -22 -6q-29 0 -51 27.5t-39 66.5l-8 116h-64
q-26 0 -44.5 0.5t-31.5 0.5q-12 0 -20 0.5t-14 0.5q-10 0 -12 -2q-11 -4 -20 -19.5t-17 -38t-16.5 -49.5t-18.5 -55l-22 -58q-16 -16 -48 -16q-9 0 -18.5 2t-21.5 4q-21 23 -29.5 44.5t-8.5 53.5q0 36 14.5 80t41.5 92q0 24 -14 45.5t-46 26.5l4 38q6 -2 13 -2h15h66
l30 62.5t39 77l42 77.5t39 65l96 118zM298 342q14 -2 28 -2h28h29t29 2q0 14 -0.5 36.5t-3.5 46.5t-8.5 48t-15.5 41q-11 -3 -23.5 -23.5t-24.5 -47.5t-22.5 -55t-15.5 -46z" />
    <glyph glyph-name="aacute" unicode="&#xe1;" horiz-adv-x="606" 
d="M370 756q5 8 9.5 9t12.5 1h12q10 0 19.5 -6t17.5 -15t13.5 -20t7.5 -21l11.5 -36l16 -49.5t16 -53.5t10.5 -47q2 -13 3.5 -25t3.5 -24l13.5 -100.5t10.5 -90.5t6.5 -89t2.5 -97v-44q0 -17 -0.5 -29t-2 -21t-3.5 -18q-9 -6 -22 -6q-29 0 -51 27.5t-39 66.5l-8 116h-64
q-26 0 -44.5 0.5t-31.5 0.5q-12 0 -20 0.5t-14 0.5q-10 0 -12 -2q-11 -4 -20 -19.5t-17 -38t-16.5 -49.5t-18.5 -55l-22 -58q-16 -16 -48 -16q-9 0 -18.5 2t-21.5 4q-21 23 -29.5 44.5t-8.5 53.5q0 36 14.5 80t41.5 92q0 24 -14 45.5t-46 26.5l4 38q6 -2 13 -2h15h66
l30 62.5t39 77l42 77.5t39 65l96 118zM298 342q14 -2 28 -2h28h29t29 2q0 14 -0.5 36.5t-3.5 46.5t-8.5 48t-15.5 41q-11 -3 -23.5 -23.5t-24.5 -47.5t-22.5 -55t-15.5 -46z" />
    <glyph glyph-name="acircumflex" unicode="&#xe2;" horiz-adv-x="606" 
d="M370 756q5 8 9.5 9t12.5 1h12q10 0 19.5 -6t17.5 -15t13.5 -20t7.5 -21l11.5 -36l16 -49.5t16 -53.5t10.5 -47q2 -13 3.5 -25t3.5 -24l13.5 -100.5t10.5 -90.5t6.5 -89t2.5 -97v-44q0 -17 -0.5 -29t-2 -21t-3.5 -18q-9 -6 -22 -6q-29 0 -51 27.5t-39 66.5l-8 116h-64
q-26 0 -44.5 0.5t-31.5 0.5q-12 0 -20 0.5t-14 0.5q-10 0 -12 -2q-11 -4 -20 -19.5t-17 -38t-16.5 -49.5t-18.5 -55l-22 -58q-16 -16 -48 -16q-9 0 -18.5 2t-21.5 4q-21 23 -29.5 44.5t-8.5 53.5q0 36 14.5 80t41.5 92q0 24 -14 45.5t-46 26.5l4 38q6 -2 13 -2h15h66
l30 62.5t39 77l42 77.5t39 65l96 118zM298 342q14 -2 28 -2h28h29t29 2q0 14 -0.5 36.5t-3.5 46.5t-8.5 48t-15.5 41q-11 -3 -23.5 -23.5t-24.5 -47.5t-22.5 -55t-15.5 -46z" />
    <glyph glyph-name="atilde" unicode="&#xe3;" horiz-adv-x="606" 
d="M370 756q5 8 9.5 9t12.5 1h12q10 0 19.5 -6t17.5 -15t13.5 -20t7.5 -21l11.5 -36l16 -49.5t16 -53.5t10.5 -47q2 -13 3.5 -25t3.5 -24l13.5 -100.5t10.5 -90.5t6.5 -89t2.5 -97v-44q0 -17 -0.5 -29t-2 -21t-3.5 -18q-9 -6 -22 -6q-29 0 -51 27.5t-39 66.5l-8 116h-64
q-26 0 -44.5 0.5t-31.5 0.5q-12 0 -20 0.5t-14 0.5q-10 0 -12 -2q-11 -4 -20 -19.5t-17 -38t-16.5 -49.5t-18.5 -55l-22 -58q-16 -16 -48 -16q-9 0 -18.5 2t-21.5 4q-21 23 -29.5 44.5t-8.5 53.5q0 36 14.5 80t41.5 92q0 24 -14 45.5t-46 26.5l4 38q6 -2 13 -2h15h66
l30 62.5t39 77l42 77.5t39 65l96 118zM298 342q14 -2 28 -2h28h29t29 2q0 14 -0.5 36.5t-3.5 46.5t-8.5 48t-15.5 41q-11 -3 -23.5 -23.5t-24.5 -47.5t-22.5 -55t-15.5 -46z" />
    <glyph glyph-name="adieresis" unicode="&#xe4;" horiz-adv-x="606" 
d="M370 756q5 8 9.5 9t12.5 1h12q10 0 19.5 -6t17.5 -15t13.5 -20t7.5 -21l11.5 -36l16 -49.5t16 -53.5t10.5 -47q2 -13 3.5 -25t3.5 -24l13.5 -100.5t10.5 -90.5t6.5 -89t2.5 -97v-44q0 -17 -0.5 -29t-2 -21t-3.5 -18q-9 -6 -22 -6q-29 0 -51 27.5t-39 66.5l-8 116h-64
q-26 0 -44.5 0.5t-31.5 0.5q-12 0 -20 0.5t-14 0.5q-10 0 -12 -2q-11 -4 -20 -19.5t-17 -38t-16.5 -49.5t-18.5 -55l-22 -58q-16 -16 -48 -16q-9 0 -18.5 2t-21.5 4q-21 23 -29.5 44.5t-8.5 53.5q0 36 14.5 80t41.5 92q0 24 -14 45.5t-46 26.5l4 38q6 -2 13 -2h15h66
l30 62.5t39 77l42 77.5t39 65l96 118zM298 342q14 -2 28 -2h28h29t29 2q0 14 -0.5 36.5t-3.5 46.5t-8.5 48t-15.5 41q-11 -3 -23.5 -23.5t-24.5 -47.5t-22.5 -55t-15.5 -46z" />
    <glyph glyph-name="aring" unicode="&#xe5;" horiz-adv-x="606" 
d="M370 756q5 8 9.5 9t12.5 1h12q10 0 19.5 -6t17.5 -15t13.5 -20t7.5 -21l11.5 -36l16 -49.5t16 -53.5t10.5 -47q2 -13 3.5 -25t3.5 -24l13.5 -100.5t10.5 -90.5t6.5 -89t2.5 -97v-44q0 -17 -0.5 -29t-2 -21t-3.5 -18q-9 -6 -22 -6q-29 0 -51 27.5t-39 66.5l-8 116h-64
q-26 0 -44.5 0.5t-31.5 0.5q-12 0 -20 0.5t-14 0.5q-10 0 -12 -2q-11 -4 -20 -19.5t-17 -38t-16.5 -49.5t-18.5 -55l-22 -58q-16 -16 -48 -16q-9 0 -18.5 2t-21.5 4q-21 23 -29.5 44.5t-8.5 53.5q0 36 14.5 80t41.5 92q0 24 -14 45.5t-46 26.5l4 38q6 -2 13 -2h15h66
l30 62.5t39 77l42 77.5t39 65l96 118zM298 342q14 -2 28 -2h28h29t29 2q0 14 -0.5 36.5t-3.5 46.5t-8.5 48t-15.5 41q-11 -3 -23.5 -23.5t-24.5 -47.5t-22.5 -55t-15.5 -46z" />
    <glyph glyph-name="ae" unicode="&#xe6;" horiz-adv-x="968" 
d="M370 756q5 8 9.5 9t12.5 1h12q10 0 19.5 -6t17.5 -15t13.5 -20t7.5 -21l11.5 -36l16 -49.5t16 -53.5t10.5 -47q2 -13 3.5 -25t3.5 -24l13.5 -100.5t10.5 -90.5t6.5 -89t2.5 -97v-44q0 -17 -0.5 -29t-2 -21t-3.5 -18q-9 -6 -22 -6q-29 0 -51 27.5t-39 66.5l-8 116h-64
q-26 0 -44.5 0.5t-31.5 0.5q-12 0 -20 0.5t-14 0.5q-10 0 -12 -2q-11 -4 -20 -19.5t-17 -38t-16.5 -49.5t-18.5 -55l-22 -58q-16 -16 -48 -16q-9 0 -18.5 2t-21.5 4q-21 23 -29.5 44.5t-8.5 53.5q0 36 14.5 80t41.5 92q0 24 -14 45.5t-46 26.5l4 38q6 -2 13 -2h15h66
l30 62.5t39 77l42 77.5t39 65l96 118zM298 342q14 -2 28 -2h28h29t29 2q0 14 -0.5 36.5t-3.5 46.5t-8.5 48t-15.5 41q-11 -3 -23.5 -23.5t-24.5 -47.5t-22.5 -55t-15.5 -46zM915 148q1 -4 1 -11q0 -14 -8 -19q-18 -16 -47 -39t-66 -44.5t-82 -37t-94 -15.5q-43 0 -77.5 16
t-58.5 42.5t-37 60.5t-13 70q0 32 9.5 70.5t17.5 78.5q-6 15 -15 27t-9 33q0 8 1.5 15l3.5 17q11 5 23.5 9.5t26.5 6.5l32 110l-40.5 17.5t-41.5 20.5t-32 25t-13 32q0 14 12.5 18.5t35.5 6.5q31 1 65 7.5l74.5 14t89.5 13t111 5.5q14 0 32.5 -2.5t51.5 -11.5q8 -8 21 -19.5
t26 -25t22 -27.5t9 -27q0 -8 -10.5 -15t-26.5 -13t-33.5 -10t-31.5 -5q-32 -2 -53 -3t-38 -1.5t-33 -0.5q-15 0 -35 -1h-15t-14 -2q-4 -5 -9.5 -18t-5.5 -36q0 -14 3 -30q1 -6 5.5 -13t15.5 -7h148l28 -4q9 -11 13.5 -27.5t6.5 -30.5q1 -5 1 -16t-3 -21t-13 -11
q-13 -1 -36 -2t-52.5 -2t-64.5 -1.5t-72 -0.5q-3 0 -6 -1t-5 -7l-19 -61.5t-11 -66.5q0 -10 1 -15q1 -8 6 -14t16 -6q18 0 48 10l65 22.5t72 22.5t69 10q9 0 18.5 -5.5t18 -14.5t14 -19.5t7.5 -20.5z" />
    <glyph glyph-name="Ccedilla" unicode="&#xc7;" horiz-adv-x="658" 
d="M558 174q13 -11 21.5 -26t8.5 -38q0 -24 -14 -42.5t-38 -32t-54 -22.5t-63 -14t-65 -7t-59 -2q-53 0 -103 31t-88 79.5t-61 108.5t-23 119q0 79 28 148t80.5 119.5t128 79.5t170.5 29q15 0 34.5 -1t38 -5.5t34.5 -13t24 -24.5q6 -13 10.5 -20.5t7 -14t3.5 -13.5t1 -18
q0 -14 -2 -28t-7 -32q-17 -8 -32.5 -13t-30.5 -5q-58 0 -96 62l-93 -26q-29 -8 -58 -24.5t-52.5 -44.5t-38 -67.5t-14.5 -93.5q0 -26 11.5 -59t33 -62t53 -49t71.5 -20q35 0 77.5 12t97.5 30h58zM306 53q8 4 24 4q20 0 39.5 -9.5t22.5 -29.5q-4 -14 -9.5 -23t-11.5 -17
q17 -21 30 -46.5t13 -54.5q0 -6 -0.5 -11t-2.5 -13l1 1q-8 -34 -31.5 -49t-52.5 -15q-23 0 -51.5 5t-45.5 22q-9 9 -12.5 19t-3.5 20q0 18 17 36t40 29q3 -27 15 -31.5t23 -4.5h3q-2 11 -12.5 23t-21.5 22l-11 11q-15 15 -15 34q0 21 15 35q10 10 16 16.5t13 17.5z" />
    <glyph glyph-name="ccedilla" unicode="&#xe7;" horiz-adv-x="658" 
d="M558 174q13 -11 21.5 -26t8.5 -38q0 -24 -14 -42.5t-38 -32t-54 -22.5t-63 -14t-65 -7t-59 -2q-53 0 -103 31t-88 79.5t-61 108.5t-23 119q0 79 28 148t80.5 119.5t128 79.5t170.5 29q15 0 34.5 -1t38 -5.5t34.5 -13t24 -24.5q6 -13 10.5 -20.5t7 -14t3.5 -13.5t1 -18
q0 -14 -2 -28t-7 -32q-17 -8 -32.5 -13t-30.5 -5q-58 0 -96 62l-93 -26q-29 -8 -58 -24.5t-52.5 -44.5t-38 -67.5t-14.5 -93.5q0 -26 11.5 -59t33 -62t53 -49t71.5 -20q35 0 77.5 12t97.5 30h58zM306 53q8 4 24 4q20 0 39.5 -9.5t22.5 -29.5q-4 -14 -9.5 -23t-11.5 -17
q17 -21 30 -46.5t13 -54.5q0 -6 -0.5 -11t-2.5 -13l1 1q-8 -34 -31.5 -49t-52.5 -15q-23 0 -51.5 5t-45.5 22q-9 9 -12.5 19t-3.5 20q0 18 17 36t40 29q3 -27 15 -31.5t23 -4.5h3q-2 11 -12.5 23t-21.5 22l-11 11q-15 15 -15 34q0 21 15 35q10 10 16 16.5t13 17.5z" />
    <glyph glyph-name="Egrave" unicode="&#xc8;" horiz-adv-x="610" 
d="M549 148q1 -4 1 -11q0 -14 -8 -19q-18 -16 -47 -39t-66 -44.5t-82 -37t-94 -15.5q-43 0 -77.5 16t-58.5 42.5t-37 60.5t-13 70q0 32 9.5 70.5t17.5 78.5q-6 15 -15 27t-9 33q0 8 1.5 15l3.5 17q11 5 23.5 9.5t26.5 6.5l32 110l-40.5 17.5t-41.5 20.5t-32 25t-13 32
q0 14 12.5 18.5t35.5 6.5q31 1 65 7.5l74.5 14t89.5 13t111 5.5q14 0 32.5 -2.5t51.5 -11.5q8 -8 21 -19.5t26 -25t22 -27.5t9 -27q0 -8 -10.5 -15t-26.5 -13t-33.5 -10t-31.5 -5q-32 -2 -53 -3t-38 -1.5t-33 -0.5q-15 0 -35 -1h-15t-14 -2q-4 -5 -9.5 -18t-5.5 -36
q0 -14 3 -30q1 -6 5.5 -13t15.5 -7h148l28 -4q9 -11 13.5 -27.5t6.5 -30.5q1 -5 1 -16t-3 -21t-13 -11q-13 -1 -36 -2t-52.5 -2t-64.5 -1.5t-72 -0.5q-3 0 -6 -1t-5 -7l-19 -61.5t-11 -66.5q0 -10 1 -15q1 -8 6 -14t16 -6q18 0 48 10l65 22.5t72 22.5t69 10q9 0 18.5 -5.5
t18 -14.5t14 -19.5t7.5 -20.5z" />
    <glyph glyph-name="Eacute" unicode="&#xc9;" horiz-adv-x="610" 
d="M549 148q1 -4 1 -11q0 -14 -8 -19q-18 -16 -47 -39t-66 -44.5t-82 -37t-94 -15.5q-43 0 -77.5 16t-58.5 42.5t-37 60.5t-13 70q0 32 9.5 70.5t17.5 78.5q-6 15 -15 27t-9 33q0 8 1.5 15l3.5 17q11 5 23.5 9.5t26.5 6.5l32 110l-40.5 17.5t-41.5 20.5t-32 25t-13 32
q0 14 12.5 18.5t35.5 6.5q31 1 65 7.5l74.5 14t89.5 13t111 5.5q14 0 32.5 -2.5t51.5 -11.5q8 -8 21 -19.5t26 -25t22 -27.5t9 -27q0 -8 -10.5 -15t-26.5 -13t-33.5 -10t-31.5 -5q-32 -2 -53 -3t-38 -1.5t-33 -0.5q-15 0 -35 -1h-15t-14 -2q-4 -5 -9.5 -18t-5.5 -36
q0 -14 3 -30q1 -6 5.5 -13t15.5 -7h148l28 -4q9 -11 13.5 -27.5t6.5 -30.5q1 -5 1 -16t-3 -21t-13 -11q-13 -1 -36 -2t-52.5 -2t-64.5 -1.5t-72 -0.5q-3 0 -6 -1t-5 -7l-19 -61.5t-11 -66.5q0 -10 1 -15q1 -8 6 -14t16 -6q18 0 48 10l65 22.5t72 22.5t69 10q9 0 18.5 -5.5
t18 -14.5t14 -19.5t7.5 -20.5z" />
    <glyph glyph-name="Ecircumflex" unicode="&#xca;" horiz-adv-x="610" 
d="M549 148q1 -4 1 -11q0 -14 -8 -19q-18 -16 -47 -39t-66 -44.5t-82 -37t-94 -15.5q-43 0 -77.5 16t-58.5 42.5t-37 60.5t-13 70q0 32 9.5 70.5t17.5 78.5q-6 15 -15 27t-9 33q0 8 1.5 15l3.5 17q11 5 23.5 9.5t26.5 6.5l32 110l-40.5 17.5t-41.5 20.5t-32 25t-13 32
q0 14 12.5 18.5t35.5 6.5q31 1 65 7.5l74.5 14t89.5 13t111 5.5q14 0 32.5 -2.5t51.5 -11.5q8 -8 21 -19.5t26 -25t22 -27.5t9 -27q0 -8 -10.5 -15t-26.5 -13t-33.5 -10t-31.5 -5q-32 -2 -53 -3t-38 -1.5t-33 -0.5q-15 0 -35 -1h-15t-14 -2q-4 -5 -9.5 -18t-5.5 -36
q0 -14 3 -30q1 -6 5.5 -13t15.5 -7h148l28 -4q9 -11 13.5 -27.5t6.5 -30.5q1 -5 1 -16t-3 -21t-13 -11q-13 -1 -36 -2t-52.5 -2t-64.5 -1.5t-72 -0.5q-3 0 -6 -1t-5 -7l-19 -61.5t-11 -66.5q0 -10 1 -15q1 -8 6 -14t16 -6q18 0 48 10l65 22.5t72 22.5t69 10q9 0 18.5 -5.5
t18 -14.5t14 -19.5t7.5 -20.5z" />
    <glyph glyph-name="Edieresis" unicode="&#xcb;" horiz-adv-x="610" 
d="M549 148q1 -4 1 -11q0 -14 -8 -19q-18 -16 -47 -39t-66 -44.5t-82 -37t-94 -15.5q-43 0 -77.5 16t-58.5 42.5t-37 60.5t-13 70q0 32 9.5 70.5t17.5 78.5q-6 15 -15 27t-9 33q0 8 1.5 15l3.5 17q11 5 23.5 9.5t26.5 6.5l32 110l-40.5 17.5t-41.5 20.5t-32 25t-13 32
q0 14 12.5 18.5t35.5 6.5q31 1 65 7.5l74.5 14t89.5 13t111 5.5q14 0 32.5 -2.5t51.5 -11.5q8 -8 21 -19.5t26 -25t22 -27.5t9 -27q0 -8 -10.5 -15t-26.5 -13t-33.5 -10t-31.5 -5q-32 -2 -53 -3t-38 -1.5t-33 -0.5q-15 0 -35 -1h-15t-14 -2q-4 -5 -9.5 -18t-5.5 -36
q0 -14 3 -30q1 -6 5.5 -13t15.5 -7h148l28 -4q9 -11 13.5 -27.5t6.5 -30.5q1 -5 1 -16t-3 -21t-13 -11q-13 -1 -36 -2t-52.5 -2t-64.5 -1.5t-72 -0.5q-3 0 -6 -1t-5 -7l-19 -61.5t-11 -66.5q0 -10 1 -15q1 -8 6 -14t16 -6q18 0 48 10l65 22.5t72 22.5t69 10q9 0 18.5 -5.5
t18 -14.5t14 -19.5t7.5 -20.5z" />
    <glyph glyph-name="egrave" unicode="&#xe8;" horiz-adv-x="610" 
d="M549 148q1 -4 1 -11q0 -14 -8 -19q-18 -16 -47 -39t-66 -44.5t-82 -37t-94 -15.5q-43 0 -77.5 16t-58.5 42.5t-37 60.5t-13 70q0 32 9.5 70.5t17.5 78.5q-6 15 -15 27t-9 33q0 8 1.5 15l3.5 17q11 5 23.5 9.5t26.5 6.5l32 110l-40.5 17.5t-41.5 20.5t-32 25t-13 32
q0 14 12.5 18.5t35.5 6.5q31 1 65 7.5l74.5 14t89.5 13t111 5.5q14 0 32.5 -2.5t51.5 -11.5q8 -8 21 -19.5t26 -25t22 -27.5t9 -27q0 -8 -10.5 -15t-26.5 -13t-33.5 -10t-31.5 -5q-32 -2 -53 -3t-38 -1.5t-33 -0.5q-15 0 -35 -1h-15t-14 -2q-4 -5 -9.5 -18t-5.5 -36
q0 -14 3 -30q1 -6 5.5 -13t15.5 -7h148l28 -4q9 -11 13.5 -27.5t6.5 -30.5q1 -5 1 -16t-3 -21t-13 -11q-13 -1 -36 -2t-52.5 -2t-64.5 -1.5t-72 -0.5q-3 0 -6 -1t-5 -7l-19 -61.5t-11 -66.5q0 -10 1 -15q1 -8 6 -14t16 -6q18 0 48 10l65 22.5t72 22.5t69 10q9 0 18.5 -5.5
t18 -14.5t14 -19.5t7.5 -20.5z" />
    <glyph glyph-name="eacute" unicode="&#xe9;" horiz-adv-x="610" 
d="M549 148q1 -4 1 -11q0 -14 -8 -19q-18 -16 -47 -39t-66 -44.5t-82 -37t-94 -15.5q-43 0 -77.5 16t-58.5 42.5t-37 60.5t-13 70q0 32 9.5 70.5t17.5 78.5q-6 15 -15 27t-9 33q0 8 1.5 15l3.5 17q11 5 23.5 9.5t26.5 6.5l32 110l-40.5 17.5t-41.5 20.5t-32 25t-13 32
q0 14 12.5 18.5t35.5 6.5q31 1 65 7.5l74.5 14t89.5 13t111 5.5q14 0 32.5 -2.5t51.5 -11.5q8 -8 21 -19.5t26 -25t22 -27.5t9 -27q0 -8 -10.5 -15t-26.5 -13t-33.5 -10t-31.5 -5q-32 -2 -53 -3t-38 -1.5t-33 -0.5q-15 0 -35 -1h-15t-14 -2q-4 -5 -9.5 -18t-5.5 -36
q0 -14 3 -30q1 -6 5.5 -13t15.5 -7h148l28 -4q9 -11 13.5 -27.5t6.5 -30.5q1 -5 1 -16t-3 -21t-13 -11q-13 -1 -36 -2t-52.5 -2t-64.5 -1.5t-72 -0.5q-3 0 -6 -1t-5 -7l-19 -61.5t-11 -66.5q0 -10 1 -15q1 -8 6 -14t16 -6q18 0 48 10l65 22.5t72 22.5t69 10q9 0 18.5 -5.5
t18 -14.5t14 -19.5t7.5 -20.5z" />
    <glyph glyph-name="ecircumflex" unicode="&#xea;" horiz-adv-x="610" 
d="M549 148q1 -4 1 -11q0 -14 -8 -19q-18 -16 -47 -39t-66 -44.5t-82 -37t-94 -15.5q-43 0 -77.5 16t-58.5 42.5t-37 60.5t-13 70q0 32 9.5 70.5t17.5 78.5q-6 15 -15 27t-9 33q0 8 1.5 15l3.5 17q11 5 23.5 9.5t26.5 6.5l32 110l-40.5 17.5t-41.5 20.5t-32 25t-13 32
q0 14 12.5 18.5t35.5 6.5q31 1 65 7.5l74.5 14t89.5 13t111 5.5q14 0 32.5 -2.5t51.5 -11.5q8 -8 21 -19.5t26 -25t22 -27.5t9 -27q0 -8 -10.5 -15t-26.5 -13t-33.5 -10t-31.5 -5q-32 -2 -53 -3t-38 -1.5t-33 -0.5q-15 0 -35 -1h-15t-14 -2q-4 -5 -9.5 -18t-5.5 -36
q0 -14 3 -30q1 -6 5.5 -13t15.5 -7h148l28 -4q9 -11 13.5 -27.5t6.5 -30.5q1 -5 1 -16t-3 -21t-13 -11q-13 -1 -36 -2t-52.5 -2t-64.5 -1.5t-72 -0.5q-3 0 -6 -1t-5 -7l-19 -61.5t-11 -66.5q0 -10 1 -15q1 -8 6 -14t16 -6q18 0 48 10l65 22.5t72 22.5t69 10q9 0 18.5 -5.5
t18 -14.5t14 -19.5t7.5 -20.5z" />
    <glyph glyph-name="edieresis" unicode="&#xeb;" horiz-adv-x="610" 
d="M549 148q1 -4 1 -11q0 -14 -8 -19q-18 -16 -47 -39t-66 -44.5t-82 -37t-94 -15.5q-43 0 -77.5 16t-58.5 42.5t-37 60.5t-13 70q0 32 9.5 70.5t17.5 78.5q-6 15 -15 27t-9 33q0 8 1.5 15l3.5 17q11 5 23.5 9.5t26.5 6.5l32 110l-40.5 17.5t-41.5 20.5t-32 25t-13 32
q0 14 12.5 18.5t35.5 6.5q31 1 65 7.5l74.5 14t89.5 13t111 5.5q14 0 32.5 -2.5t51.5 -11.5q8 -8 21 -19.5t26 -25t22 -27.5t9 -27q0 -8 -10.5 -15t-26.5 -13t-33.5 -10t-31.5 -5q-32 -2 -53 -3t-38 -1.5t-33 -0.5q-15 0 -35 -1h-15t-14 -2q-4 -5 -9.5 -18t-5.5 -36
q0 -14 3 -30q1 -6 5.5 -13t15.5 -7h148l28 -4q9 -11 13.5 -27.5t6.5 -30.5q1 -5 1 -16t-3 -21t-13 -11q-13 -1 -36 -2t-52.5 -2t-64.5 -1.5t-72 -0.5q-3 0 -6 -1t-5 -7l-19 -61.5t-11 -66.5q0 -10 1 -15q1 -8 6 -14t16 -6q18 0 48 10l65 22.5t72 22.5t69 10q9 0 18.5 -5.5
t18 -14.5t14 -19.5t7.5 -20.5z" />
    <glyph glyph-name="Igrave" unicode="&#xcc;" horiz-adv-x="338" 
d="M126 720q54 -2 78.5 -32.5t26.5 -87.5q2 -61 4 -129t3.5 -137.5t2.5 -137.5t1 -128q0 -12 -2.5 -24.5t-9.5 -22.5t-19 -16.5t-31 -6.5q-12 0 -28 3.5t-28 8.5q-10 3 -17 17t-12 31.5t-7.5 33.5t-3.5 24q0 24 0.5 45.5t1.5 45.5t2.5 54.5l3.5 74.5q1 15 1 48q0 34 1.5 83
t6 109.5t13.5 129.5q2 8 4 11t8 3z" />
    <glyph glyph-name="Iacute" unicode="&#xcd;" horiz-adv-x="338" 
d="M126 720q54 -2 78.5 -32.5t26.5 -87.5q2 -61 4 -129t3.5 -137.5t2.5 -137.5t1 -128q0 -12 -2.5 -24.5t-9.5 -22.5t-19 -16.5t-31 -6.5q-12 0 -28 3.5t-28 8.5q-10 3 -17 17t-12 31.5t-7.5 33.5t-3.5 24q0 24 0.5 45.5t1.5 45.5t2.5 54.5l3.5 74.5q1 15 1 48q0 34 1.5 83
t6 109.5t13.5 129.5q2 8 4 11t8 3z" />
    <glyph glyph-name="Icircumflex" unicode="&#xce;" horiz-adv-x="338" 
d="M126 720q54 -2 78.5 -32.5t26.5 -87.5q2 -61 4 -129t3.5 -137.5t2.5 -137.5t1 -128q0 -12 -2.5 -24.5t-9.5 -22.5t-19 -16.5t-31 -6.5q-12 0 -28 3.5t-28 8.5q-10 3 -17 17t-12 31.5t-7.5 33.5t-3.5 24q0 24 0.5 45.5t1.5 45.5t2.5 54.5l3.5 74.5q1 15 1 48q0 34 1.5 83
t6 109.5t13.5 129.5q2 8 4 11t8 3z" />
    <glyph glyph-name="Idieresis" unicode="&#xcf;" horiz-adv-x="338" 
d="M126 720q54 -2 78.5 -32.5t26.5 -87.5q2 -61 4 -129t3.5 -137.5t2.5 -137.5t1 -128q0 -12 -2.5 -24.5t-9.5 -22.5t-19 -16.5t-31 -6.5q-12 0 -28 3.5t-28 8.5q-10 3 -17 17t-12 31.5t-7.5 33.5t-3.5 24q0 24 0.5 45.5t1.5 45.5t2.5 54.5l3.5 74.5q1 15 1 48q0 34 1.5 83
t6 109.5t13.5 129.5q2 8 4 11t8 3z" />
    <glyph glyph-name="igrave" unicode="&#xec;" horiz-adv-x="338" 
d="M126 720q54 -2 78.5 -32.5t26.5 -87.5q2 -61 4 -129t3.5 -137.5t2.5 -137.5t1 -128q0 -12 -2.5 -24.5t-9.5 -22.5t-19 -16.5t-31 -6.5q-12 0 -28 3.5t-28 8.5q-10 3 -17 17t-12 31.5t-7.5 33.5t-3.5 24q0 24 0.5 45.5t1.5 45.5t2.5 54.5l3.5 74.5q1 15 1 48q0 34 1.5 83
t6 109.5t13.5 129.5q2 8 4 11t8 3z" />
    <glyph glyph-name="iacute" unicode="&#xed;" horiz-adv-x="338" 
d="M126 720q54 -2 78.5 -32.5t26.5 -87.5q2 -61 4 -129t3.5 -137.5t2.5 -137.5t1 -128q0 -12 -2.5 -24.5t-9.5 -22.5t-19 -16.5t-31 -6.5q-12 0 -28 3.5t-28 8.5q-10 3 -17 17t-12 31.5t-7.5 33.5t-3.5 24q0 24 0.5 45.5t1.5 45.5t2.5 54.5l3.5 74.5q1 15 1 48q0 34 1.5 83
t6 109.5t13.5 129.5q2 8 4 11t8 3z" />
    <glyph glyph-name="icircumflex" unicode="&#xee;" horiz-adv-x="338" 
d="M126 720q54 -2 78.5 -32.5t26.5 -87.5q2 -61 4 -129t3.5 -137.5t2.5 -137.5t1 -128q0 -12 -2.5 -24.5t-9.5 -22.5t-19 -16.5t-31 -6.5q-12 0 -28 3.5t-28 8.5q-10 3 -17 17t-12 31.5t-7.5 33.5t-3.5 24q0 24 0.5 45.5t1.5 45.5t2.5 54.5l3.5 74.5q1 15 1 48q0 34 1.5 83
t6 109.5t13.5 129.5q2 8 4 11t8 3z" />
    <glyph glyph-name="idieresis" unicode="&#xef;" horiz-adv-x="338" 
d="M126 720q54 -2 78.5 -32.5t26.5 -87.5q2 -61 4 -129t3.5 -137.5t2.5 -137.5t1 -128q0 -12 -2.5 -24.5t-9.5 -22.5t-19 -16.5t-31 -6.5q-12 0 -28 3.5t-28 8.5q-10 3 -17 17t-12 31.5t-7.5 33.5t-3.5 24q0 24 0.5 45.5t1.5 45.5t2.5 54.5l3.5 74.5q1 15 1 48q0 34 1.5 83
t6 109.5t13.5 129.5q2 8 4 11t8 3z" />
    <glyph glyph-name="Ograve" unicode="&#xd2;" horiz-adv-x="736" 
d="M96 78q-41 68 -58.5 132t-17.5 124q0 80 32 148.5t85 118t122.5 77.5t144.5 28q66 0 106 -17q50 -20 50 -39q0 -12 -15 -18t-29 -8h4q33 0 68.5 -8.5t67.5 -29.5q13 -8 24 -26.5t19 -41.5t12.5 -47.5t4.5 -44.5q0 -92 -45 -168t-117 -130.5t-162 -86t-180 -35.5
q-6 -18 -22 -32.5l-34 -31.5q-30 39 -45 73.5t-15 58.5v4zM524 502q-40 0 -74 -23t-64 -65.5t-58 -103t-56 -134.5h26q26 0 59 9.5t67 27t66.5 42t57.5 53.5t40.5 62t15.5 68q0 32 -22 48t-58 16zM431 609q18 5 35 9t36 6q-30 -3 -63.5 -11t-60.5 -17q-63 -15 -108.5 -47
t-75.5 -74t-44 -89.5t-14 -93.5q0 -15 1.5 -30t6.5 -30q32 82 63.5 146t64.5 110.5t69.5 75.5t78.5 42z" />
    <glyph glyph-name="Oacute" unicode="&#xd3;" horiz-adv-x="736" 
d="M96 78q-41 68 -58.5 132t-17.5 124q0 80 32 148.5t85 118t122.5 77.5t144.5 28q66 0 106 -17q50 -20 50 -39q0 -12 -15 -18t-29 -8h4q33 0 68.5 -8.5t67.5 -29.5q13 -8 24 -26.5t19 -41.5t12.5 -47.5t4.5 -44.5q0 -92 -45 -168t-117 -130.5t-162 -86t-180 -35.5
q-6 -18 -22 -32.5l-34 -31.5q-30 39 -45 73.5t-15 58.5v4zM524 502q-40 0 -74 -23t-64 -65.5t-58 -103t-56 -134.5h26q26 0 59 9.5t67 27t66.5 42t57.5 53.5t40.5 62t15.5 68q0 32 -22 48t-58 16zM431 609q18 5 35 9t36 6q-30 -3 -63.5 -11t-60.5 -17q-63 -15 -108.5 -47
t-75.5 -74t-44 -89.5t-14 -93.5q0 -15 1.5 -30t6.5 -30q32 82 63.5 146t64.5 110.5t69.5 75.5t78.5 42z" />
    <glyph glyph-name="Ocircumflex" unicode="&#xd4;" horiz-adv-x="736" 
d="M96 78q-41 68 -58.5 132t-17.5 124q0 80 32 148.5t85 118t122.5 77.5t144.5 28q66 0 106 -17q50 -20 50 -39q0 -12 -15 -18t-29 -8h4q33 0 68.5 -8.5t67.5 -29.5q13 -8 24 -26.5t19 -41.5t12.5 -47.5t4.5 -44.5q0 -92 -45 -168t-117 -130.5t-162 -86t-180 -35.5
q-6 -18 -22 -32.5l-34 -31.5q-30 39 -45 73.5t-15 58.5v4zM524 502q-40 0 -74 -23t-64 -65.5t-58 -103t-56 -134.5h26q26 0 59 9.5t67 27t66.5 42t57.5 53.5t40.5 62t15.5 68q0 32 -22 48t-58 16zM431 609q18 5 35 9t36 6q-30 -3 -63.5 -11t-60.5 -17q-63 -15 -108.5 -47
t-75.5 -74t-44 -89.5t-14 -93.5q0 -15 1.5 -30t6.5 -30q32 82 63.5 146t64.5 110.5t69.5 75.5t78.5 42z" />
    <glyph glyph-name="Otilde" unicode="&#xd5;" horiz-adv-x="736" 
d="M96 78q-41 68 -58.5 132t-17.5 124q0 80 32 148.5t85 118t122.5 77.5t144.5 28q66 0 106 -17q50 -20 50 -39q0 -12 -15 -18t-29 -8h4q33 0 68.5 -8.5t67.5 -29.5q13 -8 24 -26.5t19 -41.5t12.5 -47.5t4.5 -44.5q0 -92 -45 -168t-117 -130.5t-162 -86t-180 -35.5
q-6 -18 -22 -32.5l-34 -31.5q-30 39 -45 73.5t-15 58.5v4zM524 502q-40 0 -74 -23t-64 -65.5t-58 -103t-56 -134.5h26q26 0 59 9.5t67 27t66.5 42t57.5 53.5t40.5 62t15.5 68q0 32 -22 48t-58 16zM431 609q18 5 35 9t36 6q-30 -3 -63.5 -11t-60.5 -17q-63 -15 -108.5 -47
t-75.5 -74t-44 -89.5t-14 -93.5q0 -15 1.5 -30t6.5 -30q32 82 63.5 146t64.5 110.5t69.5 75.5t78.5 42z" />
    <glyph glyph-name="Odieresis" unicode="&#xd6;" horiz-adv-x="736" 
d="M96 78q-41 68 -58.5 132t-17.5 124q0 80 32 148.5t85 118t122.5 77.5t144.5 28q66 0 106 -17q50 -20 50 -39q0 -12 -15 -18t-29 -8h4q33 0 68.5 -8.5t67.5 -29.5q13 -8 24 -26.5t19 -41.5t12.5 -47.5t4.5 -44.5q0 -92 -45 -168t-117 -130.5t-162 -86t-180 -35.5
q-6 -18 -22 -32.5l-34 -31.5q-30 39 -45 73.5t-15 58.5v4zM524 502q-40 0 -74 -23t-64 -65.5t-58 -103t-56 -134.5h26q26 0 59 9.5t67 27t66.5 42t57.5 53.5t40.5 62t15.5 68q0 32 -22 48t-58 16zM431 609q18 5 35 9t36 6q-30 -3 -63.5 -11t-60.5 -17q-63 -15 -108.5 -47
t-75.5 -74t-44 -89.5t-14 -93.5q0 -15 1.5 -30t6.5 -30q32 82 63.5 146t64.5 110.5t69.5 75.5t78.5 42z" />
    <glyph glyph-name="Oslash" unicode="&#xd8;" horiz-adv-x="736" 
d="M96 78q-41 68 -58.5 132t-17.5 124q0 80 32 148.5t85 118t122.5 77.5t144.5 28q66 0 106 -17q50 -20 50 -39q0 -12 -15 -18t-29 -8h4q33 0 68.5 -8.5t67.5 -29.5q13 -8 24 -26.5t19 -41.5t12.5 -47.5t4.5 -44.5q0 -92 -45 -168t-117 -130.5t-162 -86t-180 -35.5
q-6 -18 -22 -32.5l-34 -31.5q-30 39 -45 73.5t-15 58.5v4zM524 502q-40 0 -74 -23t-64 -65.5t-58 -103t-56 -134.5h26q26 0 59 9.5t67 27t66.5 42t57.5 53.5t40.5 62t15.5 68q0 32 -22 48t-58 16zM431 609q18 5 35 9t36 6q-30 -3 -63.5 -11t-60.5 -17q-63 -15 -108.5 -47
t-75.5 -74t-44 -89.5t-14 -93.5q0 -15 1.5 -30t6.5 -30q32 82 63.5 146t64.5 110.5t69.5 75.5t78.5 42z" />
    <glyph glyph-name="ograve" unicode="&#xf2;" horiz-adv-x="736" 
d="M96 78q-41 68 -58.5 132t-17.5 124q0 80 32 148.5t85 118t122.5 77.5t144.5 28q66 0 106 -17q50 -20 50 -39q0 -12 -15 -18t-29 -8h4q33 0 68.5 -8.5t67.5 -29.5q13 -8 24 -26.5t19 -41.5t12.5 -47.5t4.5 -44.5q0 -92 -45 -168t-117 -130.5t-162 -86t-180 -35.5
q-6 -18 -22 -32.5l-34 -31.5q-30 39 -45 73.5t-15 58.5v4zM524 502q-40 0 -74 -23t-64 -65.5t-58 -103t-56 -134.5h26q26 0 59 9.5t67 27t66.5 42t57.5 53.5t40.5 62t15.5 68q0 32 -22 48t-58 16zM431 609q18 5 35 9t36 6q-30 -3 -63.5 -11t-60.5 -17q-63 -15 -108.5 -47
t-75.5 -74t-44 -89.5t-14 -93.5q0 -15 1.5 -30t6.5 -30q32 82 63.5 146t64.5 110.5t69.5 75.5t78.5 42z" />
    <glyph glyph-name="oacute" unicode="&#xf3;" horiz-adv-x="736" 
d="M96 78q-41 68 -58.5 132t-17.5 124q0 80 32 148.5t85 118t122.5 77.5t144.5 28q66 0 106 -17q50 -20 50 -39q0 -12 -15 -18t-29 -8h4q33 0 68.5 -8.5t67.5 -29.5q13 -8 24 -26.5t19 -41.5t12.5 -47.5t4.5 -44.5q0 -92 -45 -168t-117 -130.5t-162 -86t-180 -35.5
q-6 -18 -22 -32.5l-34 -31.5q-30 39 -45 73.5t-15 58.5v4zM524 502q-40 0 -74 -23t-64 -65.5t-58 -103t-56 -134.5h26q26 0 59 9.5t67 27t66.5 42t57.5 53.5t40.5 62t15.5 68q0 32 -22 48t-58 16zM431 609q18 5 35 9t36 6q-30 -3 -63.5 -11t-60.5 -17q-63 -15 -108.5 -47
t-75.5 -74t-44 -89.5t-14 -93.5q0 -15 1.5 -30t6.5 -30q32 82 63.5 146t64.5 110.5t69.5 75.5t78.5 42z" />
    <glyph glyph-name="ocircumflex" unicode="&#xf4;" horiz-adv-x="736" 
d="M96 78q-41 68 -58.5 132t-17.5 124q0 80 32 148.5t85 118t122.5 77.5t144.5 28q66 0 106 -17q50 -20 50 -39q0 -12 -15 -18t-29 -8h4q33 0 68.5 -8.5t67.5 -29.5q13 -8 24 -26.5t19 -41.5t12.5 -47.5t4.5 -44.5q0 -92 -45 -168t-117 -130.5t-162 -86t-180 -35.5
q-6 -18 -22 -32.5l-34 -31.5q-30 39 -45 73.5t-15 58.5v4zM524 502q-40 0 -74 -23t-64 -65.5t-58 -103t-56 -134.5h26q26 0 59 9.5t67 27t66.5 42t57.5 53.5t40.5 62t15.5 68q0 32 -22 48t-58 16zM431 609q18 5 35 9t36 6q-30 -3 -63.5 -11t-60.5 -17q-63 -15 -108.5 -47
t-75.5 -74t-44 -89.5t-14 -93.5q0 -15 1.5 -30t6.5 -30q32 82 63.5 146t64.5 110.5t69.5 75.5t78.5 42z" />
    <glyph glyph-name="otilde" unicode="&#xf5;" horiz-adv-x="736" 
d="M96 78q-41 68 -58.5 132t-17.5 124q0 80 32 148.5t85 118t122.5 77.5t144.5 28q66 0 106 -17q50 -20 50 -39q0 -12 -15 -18t-29 -8h4q33 0 68.5 -8.5t67.5 -29.5q13 -8 24 -26.5t19 -41.5t12.5 -47.5t4.5 -44.5q0 -92 -45 -168t-117 -130.5t-162 -86t-180 -35.5
q-6 -18 -22 -32.5l-34 -31.5q-30 39 -45 73.5t-15 58.5v4zM524 502q-40 0 -74 -23t-64 -65.5t-58 -103t-56 -134.5h26q26 0 59 9.5t67 27t66.5 42t57.5 53.5t40.5 62t15.5 68q0 32 -22 48t-58 16zM431 609q18 5 35 9t36 6q-30 -3 -63.5 -11t-60.5 -17q-63 -15 -108.5 -47
t-75.5 -74t-44 -89.5t-14 -93.5q0 -15 1.5 -30t6.5 -30q32 82 63.5 146t64.5 110.5t69.5 75.5t78.5 42z" />
    <glyph glyph-name="odieresis" unicode="&#xf6;" horiz-adv-x="736" 
d="M96 78q-41 68 -58.5 132t-17.5 124q0 80 32 148.5t85 118t122.5 77.5t144.5 28q66 0 106 -17q50 -20 50 -39q0 -12 -15 -18t-29 -8h4q33 0 68.5 -8.5t67.5 -29.5q13 -8 24 -26.5t19 -41.5t12.5 -47.5t4.5 -44.5q0 -92 -45 -168t-117 -130.5t-162 -86t-180 -35.5
q-6 -18 -22 -32.5l-34 -31.5q-30 39 -45 73.5t-15 58.5v4zM524 502q-40 0 -74 -23t-64 -65.5t-58 -103t-56 -134.5h26q26 0 59 9.5t67 27t66.5 42t57.5 53.5t40.5 62t15.5 68q0 32 -22 48t-58 16zM431 609q18 5 35 9t36 6q-30 -3 -63.5 -11t-60.5 -17q-63 -15 -108.5 -47
t-75.5 -74t-44 -89.5t-14 -93.5q0 -15 1.5 -30t6.5 -30q32 82 63.5 146t64.5 110.5t69.5 75.5t78.5 42z" />
    <glyph glyph-name="oslash" unicode="&#xf8;" horiz-adv-x="736" 
d="M96 78q-41 68 -58.5 132t-17.5 124q0 80 32 148.5t85 118t122.5 77.5t144.5 28q66 0 106 -17q50 -20 50 -39q0 -12 -15 -18t-29 -8h4q33 0 68.5 -8.5t67.5 -29.5q13 -8 24 -26.5t19 -41.5t12.5 -47.5t4.5 -44.5q0 -92 -45 -168t-117 -130.5t-162 -86t-180 -35.5
q-6 -18 -22 -32.5l-34 -31.5q-30 39 -45 73.5t-15 58.5v4zM524 502q-40 0 -74 -23t-64 -65.5t-58 -103t-56 -134.5h26q26 0 59 9.5t67 27t66.5 42t57.5 53.5t40.5 62t15.5 68q0 32 -22 48t-58 16zM431 609q18 5 35 9t36 6q-30 -3 -63.5 -11t-60.5 -17q-63 -15 -108.5 -47
t-75.5 -74t-44 -89.5t-14 -93.5q0 -15 1.5 -30t6.5 -30q32 82 63.5 146t64.5 110.5t69.5 75.5t78.5 42z" />
    <glyph glyph-name="Ugrave" unicode="&#xd9;" 
d="M76 90q-14 45 -20 89.5t-6 86.5q0 122 48.5 241t143.5 235q6 5 14.5 7.5t13.5 2.5q22 0 28 -40q-29 -95 -54 -188.5t-41 -191.5q-4 -24 -6.5 -47t-2.5 -43q0 -48 12.5 -76t51.5 -28q34 0 60 33t48.5 88.5t44 126.5t47.5 148q36 88 62 88q8 0 16.5 -11t17.5 -37
q25 -67 41.5 -121.5t27.5 -100t17 -84.5t10 -74l10 -98v-20q0 -41 -15 -62.5t-47 -21.5q-14 0 -25 2.5l-25 5.5q-12 17 -18 35.5t-6 36.5q0 26 -2.5 55.5t-7.5 58.5l-8 80q-20 -70 -48 -120t-62.5 -82.5t-75.5 -48t-86 -15.5h-2q-57 2 -95 25t-61 65z" />
    <glyph glyph-name="Uacute" unicode="&#xda;" 
d="M76 90q-14 45 -20 89.5t-6 86.5q0 122 48.5 241t143.5 235q6 5 14.5 7.5t13.5 2.5q22 0 28 -40q-29 -95 -54 -188.5t-41 -191.5q-4 -24 -6.5 -47t-2.5 -43q0 -48 12.5 -76t51.5 -28q34 0 60 33t48.5 88.5t44 126.5t47.5 148q36 88 62 88q8 0 16.5 -11t17.5 -37
q25 -67 41.5 -121.5t27.5 -100t17 -84.5t10 -74l10 -98v-20q0 -41 -15 -62.5t-47 -21.5q-14 0 -25 2.5l-25 5.5q-12 17 -18 35.5t-6 36.5q0 26 -2.5 55.5t-7.5 58.5l-8 80q-20 -70 -48 -120t-62.5 -82.5t-75.5 -48t-86 -15.5h-2q-57 2 -95 25t-61 65z" />
    <glyph glyph-name="Ucircumflex" unicode="&#xdb;" 
d="M76 90q-14 45 -20 89.5t-6 86.5q0 122 48.5 241t143.5 235q6 5 14.5 7.5t13.5 2.5q22 0 28 -40q-29 -95 -54 -188.5t-41 -191.5q-4 -24 -6.5 -47t-2.5 -43q0 -48 12.5 -76t51.5 -28q34 0 60 33t48.5 88.5t44 126.5t47.5 148q36 88 62 88q8 0 16.5 -11t17.5 -37
q25 -67 41.5 -121.5t27.5 -100t17 -84.5t10 -74l10 -98v-20q0 -41 -15 -62.5t-47 -21.5q-14 0 -25 2.5l-25 5.5q-12 17 -18 35.5t-6 36.5q0 26 -2.5 55.5t-7.5 58.5l-8 80q-20 -70 -48 -120t-62.5 -82.5t-75.5 -48t-86 -15.5h-2q-57 2 -95 25t-61 65z" />
    <glyph glyph-name="Udieresis" unicode="&#xdc;" 
d="M76 90q-14 45 -20 89.5t-6 86.5q0 122 48.5 241t143.5 235q6 5 14.5 7.5t13.5 2.5q22 0 28 -40q-29 -95 -54 -188.5t-41 -191.5q-4 -24 -6.5 -47t-2.5 -43q0 -48 12.5 -76t51.5 -28q34 0 60 33t48.5 88.5t44 126.5t47.5 148q36 88 62 88q8 0 16.5 -11t17.5 -37
q25 -67 41.5 -121.5t27.5 -100t17 -84.5t10 -74l10 -98v-20q0 -41 -15 -62.5t-47 -21.5q-14 0 -25 2.5l-25 5.5q-12 17 -18 35.5t-6 36.5q0 26 -2.5 55.5t-7.5 58.5l-8 80q-20 -70 -48 -120t-62.5 -82.5t-75.5 -48t-86 -15.5h-2q-57 2 -95 25t-61 65z" />
    <glyph glyph-name="ugrave" unicode="&#xf9;" 
d="M76 90q-14 45 -20 89.5t-6 86.5q0 122 48.5 241t143.5 235q6 5 14.5 7.5t13.5 2.5q22 0 28 -40q-29 -95 -54 -188.5t-41 -191.5q-4 -24 -6.5 -47t-2.5 -43q0 -48 12.5 -76t51.5 -28q34 0 60 33t48.5 88.5t44 126.5t47.5 148q36 88 62 88q8 0 16.5 -11t17.5 -37
q25 -67 41.5 -121.5t27.5 -100t17 -84.5t10 -74l10 -98v-20q0 -41 -15 -62.5t-47 -21.5q-14 0 -25 2.5l-25 5.5q-12 17 -18 35.5t-6 36.5q0 26 -2.5 55.5t-7.5 58.5l-8 80q-20 -70 -48 -120t-62.5 -82.5t-75.5 -48t-86 -15.5h-2q-57 2 -95 25t-61 65z" />
    <glyph glyph-name="uacute" unicode="&#xfa;" 
d="M76 90q-14 45 -20 89.5t-6 86.5q0 122 48.5 241t143.5 235q6 5 14.5 7.5t13.5 2.5q22 0 28 -40q-29 -95 -54 -188.5t-41 -191.5q-4 -24 -6.5 -47t-2.5 -43q0 -48 12.5 -76t51.5 -28q34 0 60 33t48.5 88.5t44 126.5t47.5 148q36 88 62 88q8 0 16.5 -11t17.5 -37
q25 -67 41.5 -121.5t27.5 -100t17 -84.5t10 -74l10 -98v-20q0 -41 -15 -62.5t-47 -21.5q-14 0 -25 2.5l-25 5.5q-12 17 -18 35.5t-6 36.5q0 26 -2.5 55.5t-7.5 58.5l-8 80q-20 -70 -48 -120t-62.5 -82.5t-75.5 -48t-86 -15.5h-2q-57 2 -95 25t-61 65z" />
    <glyph glyph-name="ucircumflex" unicode="&#xfb;" 
d="M76 90q-14 45 -20 89.5t-6 86.5q0 122 48.5 241t143.5 235q6 5 14.5 7.5t13.5 2.5q22 0 28 -40q-29 -95 -54 -188.5t-41 -191.5q-4 -24 -6.5 -47t-2.5 -43q0 -48 12.5 -76t51.5 -28q34 0 60 33t48.5 88.5t44 126.5t47.5 148q36 88 62 88q8 0 16.5 -11t17.5 -37
q25 -67 41.5 -121.5t27.5 -100t17 -84.5t10 -74l10 -98v-20q0 -41 -15 -62.5t-47 -21.5q-14 0 -25 2.5l-25 5.5q-12 17 -18 35.5t-6 36.5q0 26 -2.5 55.5t-7.5 58.5l-8 80q-20 -70 -48 -120t-62.5 -82.5t-75.5 -48t-86 -15.5h-2q-57 2 -95 25t-61 65z" />
    <glyph glyph-name="udieresis" unicode="&#xfc;" 
d="M76 90q-14 45 -20 89.5t-6 86.5q0 122 48.5 241t143.5 235q6 5 14.5 7.5t13.5 2.5q22 0 28 -40q-29 -95 -54 -188.5t-41 -191.5q-4 -24 -6.5 -47t-2.5 -43q0 -48 12.5 -76t51.5 -28q34 0 60 33t48.5 88.5t44 126.5t47.5 148q36 88 62 88q8 0 16.5 -11t17.5 -37
q25 -67 41.5 -121.5t27.5 -100t17 -84.5t10 -74l10 -98v-20q0 -41 -15 -62.5t-47 -21.5q-14 0 -25 2.5l-25 5.5q-12 17 -18 35.5t-6 36.5q0 26 -2.5 55.5t-7.5 58.5l-8 80q-20 -70 -48 -120t-62.5 -82.5t-75.5 -48t-86 -15.5h-2q-57 2 -95 25t-61 65z" />
    <glyph glyph-name="ydieresis" unicode="&#xff;" horiz-adv-x="674" 
d="M279 -250q-9 -2 -19 -4.5t-27 -2.5q-38 0 -62 18t-37.5 46.5t-19 65t-5.5 72.5q0 29 2 56.5t6.5 57.5t11.5 65t18 78q-22 9 -45 28t-41.5 44t-30 52.5t-11.5 52.5q0 56 18.5 115t44.5 108t53 80t45 31q15 0 29 -14t14 -36t-10.5 -50.5l-23 -61t-23 -68t-10.5 -70.5
q0 -44 37 -76q11 36 27.5 81.5t37.5 92.5t47 91.5t56 79.5t63 56t69 21q47 0 79 -19.5t52 -48.5t29 -63t9 -64q0 -66 -27 -131t-74 -118.5t-110 -91.5t-135 -51q-8 -48 -14.5 -91t-11 -87t-7 -92.5t-2.5 -107.5v-31zM340 326q47 21 86 54.5t74 78.5q43 55 43 116
q0 10 -1.5 21.5t-6 21.5t-12.5 17t-21 7q-11 0 -27 -20.5t-33.5 -52.5t-34.5 -70l-31.5 -73t-24 -62.5t-11.5 -37.5z" />
    <glyph glyph-name="Ntilde" unicode="&#xd1;" horiz-adv-x="664" 
d="M390 746q0 12 3 27t17 15t35.5 -16t45.5 -45.5t48 -72t43.5 -95.5t31.5 -115.5t12 -131.5q0 -46 -10.5 -93.5t-30 -86.5t-48 -63.5t-65.5 -24.5q-29 0 -58 27.5t-56.5 69t-51.5 89.5l-44 89.5t-34.5 69t-21.5 27.5q-3 0 -7 -5t-7 -17q-2 -6 -3 -26t-2.5 -47.5t-3 -60
l-3 -63.5t-4 -57.5t-4.5 -41.5l-1 -7q-2 -12 -6 -27t-10.5 -28.5t-17 -22.5t-25.5 -9q-24 0 -39 18t-24 43t-12 52t-3 45q0 26 4 71t12.5 97.5t20.5 106.5t27 98t33.5 71.5t40.5 27.5q15 0 34.5 -19t42.5 -50.5t48.5 -72l52.5 -83l54 -83.5t54 -74q6 -6 9 -11t5 -5
q9 0 10.5 13t1.5 39q0 46 -3 82.5t-8.5 68t-13.5 61t-18 61.5l-21.5 69t-23.5 84l-6 24v8z" />
    <glyph glyph-name="ntilde" unicode="&#xf1;" horiz-adv-x="664" 
d="M390 746q0 12 3 27t17 15t35.5 -16t45.5 -45.5t48 -72t43.5 -95.5t31.5 -115.5t12 -131.5q0 -46 -10.5 -93.5t-30 -86.5t-48 -63.5t-65.5 -24.5q-29 0 -58 27.5t-56.5 69t-51.5 89.5l-44 89.5t-34.5 69t-21.5 27.5q-3 0 -7 -5t-7 -17q-2 -6 -3 -26t-2.5 -47.5t-3 -60
l-3 -63.5t-4 -57.5t-4.5 -41.5l-1 -7q-2 -12 -6 -27t-10.5 -28.5t-17 -22.5t-25.5 -9q-24 0 -39 18t-24 43t-12 52t-3 45q0 26 4 71t12.5 97.5t20.5 106.5t27 98t33.5 71.5t40.5 27.5q15 0 34.5 -19t42.5 -50.5t48.5 -72l52.5 -83l54 -83.5t54 -74q6 -6 9 -11t5 -5
q9 0 10.5 13t1.5 39q0 46 -3 82.5t-8.5 68t-13.5 61t-18 61.5l-21.5 69t-23.5 84l-6 24v8z" />
    <glyph glyph-name="a" unicode="A" horiz-adv-x="642" 
d="M208 49q-1 -11 -3.5 -19.5t-9 -15.5t-19.5 -12.5t-36 -10.5q-31 7 -50.5 28t-31 55t-15.5 82t-4 111q0 48 11 100t30.5 103t44.5 96.5t53.5 80.5t58 55.5t56.5 20.5q48 0 87.5 -25.5t69.5 -63t50 -80.5t29 -78l33 -118q16 1 26.5 3.5t18 5t14.5 5.5t15 5q1 -4 1 -12
q0 -11 -6 -36l-19 -77l-8 -12l-7 -7q7 -72 9 -100.5t2 -29.5q0 -18 -9.5 -37.5t-25.5 -36t-37 -27t-44 -10.5q-11 0 -16.5 11.5t-5.5 31.5q0 14 1 35.5t1 44.5q0 29 -3.5 54.5t-16.5 36.5l-253 34zM433 340q-1 24 -4.5 49.5t-14.5 51.5l-34.5 80t-24 46.5t-18 21.5t-16.5 5
q-12 0 -24 -9.5t-20 -29.5l-41.5 -98.5t-28.5 -103.5z" />
    <glyph glyph-name="a" unicode="a" horiz-adv-x="642" 
d="M208 49q-1 -11 -3.5 -19.5t-9 -15.5t-19.5 -12.5t-36 -10.5q-31 7 -50.5 28t-31 55t-15.5 82t-4 111q0 48 11 100t30.5 103t44.5 96.5t53.5 80.5t58 55.5t56.5 20.5q48 0 87.5 -25.5t69.5 -63t50 -80.5t29 -78l33 -118q16 1 26.5 3.5t18 5t14.5 5.5t15 5q1 -4 1 -12
q0 -11 -6 -36l-19 -77l-8 -12l-7 -7q7 -72 9 -100.5t2 -29.5q0 -18 -9.5 -37.5t-25.5 -36t-37 -27t-44 -10.5q-11 0 -16.5 11.5t-5.5 31.5q0 14 1 35.5t1 44.5q0 29 -3.5 54.5t-16.5 36.5l-253 34zM433 340q-1 24 -4.5 49.5t-14.5 51.5l-34.5 80t-24 46.5t-18 21.5t-16.5 5
q-12 0 -24 -9.5t-20 -29.5l-41.5 -98.5t-28.5 -103.5z" />
    <glyph glyph-name="v" unicode="V" horiz-adv-x="655" 
d="M648 709q8 -13 11 -25.5t4 -23.5q0 -7 -0.5 -15t-2.5 -16q-35 -68 -71.5 -128.5l-70.5 -121t-63.5 -124t-51.5 -136.5q-6 -20 -16.5 -47t-27 -52t-38.5 -43t-52 -19q-23 -1 -33 9.5t-13 34.5q-3 79 -19.5 161.5t-45 161.5t-69 151.5t-89.5 132.5q-11 9 -20 21.5t-10 29.5
q0 9 6.5 17.5t20.5 19.5q29 24 48 25q4 0 6 -1q50 -33 90 -76t72 -97t58.5 -119t49.5 -141q31 84 60.5 143.5t55 100.5t46.5 66.5t36 40.5q35 35 62 53.5t50 18.5h9t8 -2z" />
    <glyph glyph-name="v" unicode="v" horiz-adv-x="655" 
d="M648 709q8 -13 11 -25.5t4 -23.5q0 -7 -0.5 -15t-2.5 -16q-35 -68 -71.5 -128.5l-70.5 -121t-63.5 -124t-51.5 -136.5q-6 -20 -16.5 -47t-27 -52t-38.5 -43t-52 -19q-23 -1 -33 9.5t-13 34.5q-3 79 -19.5 161.5t-45 161.5t-69 151.5t-89.5 132.5q-11 9 -20 21.5t-10 29.5
q0 9 6.5 17.5t20.5 19.5q29 24 48 25q4 0 6 -1q50 -33 90 -76t72 -97t58.5 -119t49.5 -141q31 84 60.5 143.5t55 100.5t46.5 66.5t36 40.5q35 35 62 53.5t50 18.5h9t8 -2z" />
    <glyph glyph-name=".null" horiz-adv-x="0" 
 />
    <glyph glyph-name="nonmarkingreturn" horiz-adv-x="520" 
 />
    <glyph glyph-name="a.01" horiz-adv-x="606" 
d="M370 756q5 8 9.5 9t12.5 1h12q10 0 19.5 -6t17.5 -15t13.5 -20t7.5 -21l11.5 -36l16 -49.5t16 -53.5t10.5 -47q2 -13 3.5 -25t3.5 -24l13.5 -100.5t10.5 -90.5t6.5 -89t2.5 -97v-44q0 -17 -0.5 -29t-2 -21t-3.5 -18q-9 -6 -22 -6q-29 0 -51 27.5t-39 66.5l-8 116h-64
q-26 0 -44.5 0.5t-31.5 0.5q-12 0 -20 0.5t-14 0.5q-10 0 -12 -2q-11 -4 -20 -19.5t-17 -38t-16.5 -49.5t-18.5 -55l-22 -58q-16 -16 -48 -16q-9 0 -18.5 2t-21.5 4q-21 23 -29.5 44.5t-8.5 53.5q0 36 14.5 80t41.5 92q0 24 -14 45.5t-46 26.5l4 38q6 -2 13 -2h15h66
l30 62.5t39 77l42 77.5t39 65l96 118zM298 342q14 -2 28 -2h28h29t29 2q0 14 -0.5 36.5t-3.5 46.5t-8.5 48t-15.5 41q-11 -3 -23.5 -23.5t-24.5 -47.5t-22.5 -55t-15.5 -46z" />
    <glyph glyph-name="v.02" horiz-adv-x="690" 
d="M136 710q15 -26 27 -62.5t32 -83.5l101 -336q2 -8 6.5 -18t13.5 -22l90 197.5l62 139.5l40 92t25 55t16 28t13 12q2 2 10 2q10 0 25 -5.5t29.5 -14.5t25 -19.5t10.5 -20.5t-2 -20.5t-9 -31.5t-20.5 -55.5l-37.5 -92.5l-60 -143l-87 -205q-9 -21 -20 -41.5t-26 -38.5
l-46.5 -26t-46.5 -12q-35 0 -63 26.5t-51.5 70.5t-42 99.5t-34.5 113t-29.5 112.5t-26 97t-24 67t-24.5 22v14q0 57 46 100h78z" />
    <glyph glyph-name="brokenbar" unicode="&#xa6;" horiz-adv-x="153" 
d="M37 697q5 5 10.5 7l11.5 4l4 1q1 0 3 1t3.5 1.5t3.5 1.5q13 -5 27 -15t26 -24q2 -13 4 -27.5t6 -33.5v-257q-17 -10 -35.5 -14t-31.5 -4q-20 0 -33 6.5t-13 22.5v224q0 28 1.5 54t6.5 43zM20 38v58t0.5 70t1.5 74.5l2 71.5q15 2 33.5 3.5t32.5 1.5t26 -5.5t23 -21.5
q2 -89 3 -139l1.5 -75t0.5 -31v-7q0 -23 -7.5 -37.5t-30.5 -27.5q-44 0 -75 28l-3 10q-4 8 -6 13.5t-2 13.5z" />
    <glyph glyph-name="onesuperior" unicode="&#xb9;" horiz-adv-x="315" 
d="M114 602q-17 0 -27 6.5t-18 16.5q-4 7 -4 14q0 3 1 7t6 10q17 9 30.5 31.5t16.5 51.5q5 13 13 18t18 5q5 0 14 -2t18 -5.5t16.5 -9t9.5 -11.5q2 -106 4.5 -212t4.5 -212q-7 -15 -12.5 -20t-19.5 -5q-3 0 -9.5 0.5t-14 1.5t-14.5 2.5t-11 3.5q-7 11 -8 20.5t-1 18.5
q-1 69 -3 136t-5 135z" />
    <glyph glyph-name="twosuperior" unicode="&#xb2;" horiz-adv-x="421" 
d="M214 534l18.5 21.5t22 29t18.5 31.5t8 29q0 7 -4.5 14.5t-11.5 13.5t-15 9.5t-14 3.5q-25 0 -41 -4t-26.5 -10.5t-17 -15l-13.5 -18.5q0 -1 -2 -11v-3q-4 -13 -10.5 -23.5t-26.5 -10.5q-21 2 -27.5 18t-6.5 32v12t1 7q3 28 17.5 47.5t36 31.5t47 17.5t50.5 5.5
q7 0 13 -0.5t11 -1.5q21 -3 42.5 -12.5t38.5 -25.5t27.5 -38.5t10.5 -51.5q0 -32 -18 -63t-44 -61t-55 -59.5t-51 -56.5q11 -6 28.5 -11t49.5 -5q34 0 64 9.5t44 29.5q18 -4 23.5 -20t5.5 -32q-23 -30 -60.5 -49t-73.5 -19q-40 0 -74 8t-74 8q-11 0 -20 -4.5t-19 -10
t-20.5 -10t-23.5 -4.5q-14 0 -23.5 11t-9.5 26z" />
    <glyph glyph-name="threesuperior" unicode="&#xb3;" horiz-adv-x="415" 
d="M126 675q5 -7 21 -20.5l27 -22.5q-7 1 -12 1h-10q-10 0 -15 -0.5t-9 -1.5t-7.5 -1.5t-9.5 -0.5q-25 0 -35.5 15t-10.5 36q0 23 11 45t31 28q20 7 36.5 10.5t39.5 3.5q34 0 67 -6t58.5 -21.5t41.5 -41.5t17 -66q-1 -20 -10.5 -47t-27.5 -47q13 -8 22 -17t14.5 -21t8 -28.5
t2.5 -40.5q0 -42 -16 -69t-41 -42.5t-56 -21t-60 -5.5q-38 0 -66.5 12t-48 29t-29 37t-9.5 35q0 24 3.5 35t18.5 11q6 0 15.5 -4.5t18.5 -17.5q17 -26 42 -41.5t59 -15.5q10 0 24.5 3t27 10.5t21.5 19.5t9 29q0 18 -6 28t-28 21q-17 -6 -37.5 -8.5t-39.5 -2.5q-39 0 -66 15
t-27 37q0 19 14 30.5t32 17.5t34.5 8t20.5 2q33 0 65 -9q7 2 12.5 9t9.5 16t6 18t2 15q0 16 -9 26.5t-23.5 16.5t-32 8t-35.5 2q-11 0 -23.5 -1.5t-22.5 -5.5z" />
    <glyph glyph-name="Euro" unicode="&#x20ac;" horiz-adv-x="608" 
d="M-13 354q-2 0 -3 -0.5t-4 -0.5q-36 0 -36 35q0 5 4.5 14.5t12 19.5t16.5 18t17 9q38 5 72 6q14 36 39.5 71.5t66.5 63t99.5 44.5t139.5 17q22 0 49.5 -7t52 -21.5t41.5 -36.5t17 -53q0 -6 -5 -14t-12 -15.5t-16 -13t-16 -5.5q-14 0 -18 5t-12 13q-5 6 -12.5 13t-17.5 13
t-23 10.5t-29 4.5h-2q-77 -2 -130 -25t-83 -65h103q52 0 106 3h3q22 0 31.5 -15t9.5 -29q0 -7 -6.5 -15.5t-15.5 -16t-19.5 -13t-18.5 -6.5q-14 -2 -28 -2h-24h-103h-38t-35 1q-1 -8 -1 -15v-15q0 -24 3 -42h202q17 0 31 -9t14 -26q0 -6 -7.5 -15.5t-18.5 -18.5t-22.5 -16
t-18.5 -7q-31 -2 -68 -3t-73 -1q29 -40 67 -60.5t70 -20.5q50 0 99 14t94 29l22 -5q17 -13 22.5 -25.5t5.5 -25.5q0 -6 -2.5 -16t-4.5 -21q-25 -15 -54.5 -28.5t-60.5 -24t-63 -17t-62 -6.5q-44 0 -85.5 13.5t-78 39.5t-65 65t-44.5 89h-84q-23 0 -32 8.5t-9 28.5
q0 6 4.5 15.5t12 19t16.5 16t18 6.5h56q-1 8 -1 17v18v17t1 20q-12 -1 -24 -1.5t-24 -2.5l-5 -1h-3z" />
    <glyph glyph-name="zcaron" unicode="&#x17e;" horiz-adv-x="646" 
d="M301 891q3 -2 6 -4.5t6 -4.5q13 16 33 30q17 11 30.5 16t35.5 5q13 0 24.5 -6.5t19 -17t12 -23t4.5 -23.5q0 -8 -4 -17.5t-15 -25.5q-16 8 -21.5 9.5t-10.5 1.5q-13 0 -21.5 -8t-18.5 -22q-7 -8 -10 -16l-9 -25q-4 -20 -20.5 -32.5t-33.5 -12.5q-16 0 -30 8.5t-20 26.5
q-2 5 -3.5 9.5t-2.5 10.5l1 -2q-2 10 -5.5 20t-11.5 21q-2 4 -13.5 7.5t-21.5 3.5q-22 0 -32.5 15t-10.5 34q0 9 2.5 19t8 18.5t13.5 14t19 5.5q24 0 51.5 -9.5t43.5 -21.5q3 -3 5 -4zM388 26q-53 -5 -103.5 -11.5t-100.5 -6.5q-44 0 -92 6q-30 6 -47 26t-17 44q0 27 22 52
q40 52 87 101l94.5 98.5l92 100.5t80.5 108q-24 -8 -49.5 -12t-46.5 -4q-37 0 -86 6.5t-93.5 22.5t-75.5 43t-31 68q0 8 1.5 18.5t4.5 21.5q40 -2 77 -8.5l71.5 -13t68 -11.5t67.5 -5q39 0 79 7.5t85 30.5q8 3 16.5 5.5t17.5 2.5q26 0 45.5 -16.5t22.5 -45.5l4 -38
q-9 -73 -41 -134.5t-77 -116.5t-98.5 -105.5l-105.5 -99.5q62 5 121 13.5t121 8.5h26q13 0 28 -2q36 -2 53 -23.5t17 -48.5t-18.5 -50.5t-57.5 -23.5h-4q-11 2 -22 2h-22q-29 0 -56.5 -3.5t-57.5 -6.5z" />
    <glyph glyph-name="Zcaron" unicode="&#x17d;" horiz-adv-x="646" 
d="M301 891q3 -2 6 -4.5t6 -4.5q13 16 33 30q17 11 30.5 16t35.5 5q13 0 24.5 -6.5t19 -17t12 -23t4.5 -23.5q0 -8 -4 -17.5t-15 -25.5q-16 8 -21.5 9.5t-10.5 1.5q-13 0 -21.5 -8t-18.5 -22q-7 -8 -10 -16l-9 -25q-4 -20 -20.5 -32.5t-33.5 -12.5q-16 0 -30 8.5t-20 26.5
q-2 5 -3.5 9.5t-2.5 10.5l1 -2q-2 10 -5.5 20t-11.5 21q-2 4 -13.5 7.5t-21.5 3.5q-22 0 -32.5 15t-10.5 34q0 9 2.5 19t8 18.5t13.5 14t19 5.5q24 0 51.5 -9.5t43.5 -21.5q3 -3 5 -4zM388 26q-53 -5 -103.5 -11.5t-100.5 -6.5q-44 0 -92 6q-30 6 -47 26t-17 44q0 27 22 52
q40 52 87 101l94.5 98.5l92 100.5t80.5 108q-24 -8 -49.5 -12t-46.5 -4q-37 0 -86 6.5t-93.5 22.5t-75.5 43t-31 68q0 8 1.5 18.5t4.5 21.5q40 -2 77 -8.5l71.5 -13t68 -11.5t67.5 -5q39 0 79 7.5t85 30.5q8 3 16.5 5.5t17.5 2.5q26 0 45.5 -16.5t22.5 -45.5l4 -38
q-9 -73 -41 -134.5t-77 -116.5t-98.5 -105.5l-105.5 -99.5q62 5 121 13.5t121 8.5h26q13 0 28 -2q36 -2 53 -23.5t17 -48.5t-18.5 -50.5t-57.5 -23.5h-4q-11 2 -22 2h-22q-29 0 -56.5 -3.5t-57.5 -6.5z" />
    <glyph glyph-name="onequarter" unicode="&#xbc;" horiz-adv-x="808" 
d="M114 602q-17 0 -27 6.5t-18 16.5q-4 7 -4 14q0 3 1 7t6 10q17 9 30.5 31.5t16.5 51.5q5 13 13 18t18 5q5 0 14 -2t18 -5.5t16.5 -9t9.5 -11.5q2 -106 4.5 -212t4.5 -212q-7 -15 -12.5 -20t-19.5 -5q-3 0 -9.5 0.5t-14 1.5t-14.5 2.5t-11 3.5q-7 11 -8 20.5t-1 18.5
q-1 69 -3 136t-5 135zM533 581q-20 -33 -45.5 -80.5l-54 -102.5l-58 -114.5l-56.5 -118t-49 -113t-36 -98.5q-3 -8 -11.5 -16.5t-22.5 -8.5q-25 0 -42.5 20t-26.5 43q-3 9 -3 14t1 8l66.5 131.5l58.5 114.5l70 133l60 117t53 115t50 127q5 13 12.5 17t18.5 4q27 0 49.5 -13
t31.5 -30q6 -11 6 -19q0 -6 -3 -12zM682 -39q-16 0 -34.5 6.5t-23.5 20.5q-2 12 -5 44t-3 67v17q-39 1 -79 13.5t-67 45.5q-7 24 -7 52q0 22 4.5 46.5t13 48.5t19 46.5t22.5 42.5q7 11 11 14t14 3q25 0 25 -28q0 -11 -4.5 -24.5t-7.5 -21.5q-10 -26 -16 -55t-6 -55
q0 -22 4 -37q14 -11 36.5 -16.5t37.5 -6.5v33q0 27 1 64.5t6.5 72t17.5 59t34 24.5q23 0 37.5 -15.5t23 -39.5t11.5 -54t3 -60q0 -28 -1.5 -49.5t-6.5 -38t-15.5 -29t-28.5 -22.5q0 -9 0.5 -23.5t2 -31t4 -33.5t7.5 -32q1 -3 2 -5.5t1 -5.5q0 -9 -5.5 -20.5t-19.5 -16.5h-8z
M702 251q0 31 -1 62t-7 56q-2 -11 -3.5 -27t-3 -34.5t-2 -37t-0.5 -33.5q0 -11 0.5 -19t1.5 -13q4 3 7 9t4.5 13t2.5 13.5t1 10.5z" />
    <glyph glyph-name="onehalf" unicode="&#xbd;" horiz-adv-x="857" 
d="M114 602q-17 0 -27 6.5t-18 16.5q-4 7 -4 14q0 3 1 7t6 10q17 9 30.5 31.5t16.5 51.5q5 13 13 18t18 5q5 0 14 -2t18 -5.5t16.5 -9t9.5 -11.5q2 -106 4.5 -212t4.5 -212q-7 -15 -12.5 -20t-19.5 -5q-3 0 -9.5 0.5t-14 1.5t-14.5 2.5t-11 3.5q-7 11 -8 20.5t-1 18.5
q-1 69 -3 136t-5 135zM533 581q-20 -33 -45.5 -80.5l-54 -102.5l-58 -114.5l-56.5 -118t-49 -113t-36 -98.5q-3 -8 -11.5 -16.5t-22.5 -8.5q-25 0 -42.5 20t-26.5 43q-3 9 -3 14t1 8l66.5 131.5l58.5 114.5l70 133l60 117t53 115t50 127q5 13 12.5 17t18.5 4q27 0 49.5 -13
t31.5 -30q6 -11 6 -19q0 -6 -3 -12zM631 225l18.5 21.5t22 29t18.5 31.5t8 29q0 7 -4.5 14.5t-11.5 13.5t-15 9.5t-14 3.5q-25 0 -41 -4t-26.5 -10.5t-17 -15l-13.5 -18.5q0 -1 -2 -11v-3q-4 -13 -10.5 -23.5t-26.5 -10.5q-21 2 -27.5 18t-6.5 32v12t1 7q3 28 17.5 47.5
t36 31.5t47 17.5t50.5 5.5q7 0 13 -0.5t11 -1.5q21 -3 42.5 -12.5t38.5 -25.5t27.5 -38.5t10.5 -51.5q0 -32 -18 -63t-44 -61t-55 -59.5t-51 -56.5q11 -6 28.5 -11t49.5 -5q34 0 64 9.5t44 29.5q18 -4 23.5 -20t5.5 -32q-23 -30 -60.5 -49t-73.5 -19q-40 0 -74 8t-74 8
q-11 0 -20 -4.5t-19 -10t-20.5 -10t-23.5 -4.5q-14 0 -23.5 11t-9.5 26z" />
    <glyph glyph-name="threequarters" unicode="&#xbe;" horiz-adv-x="852" 
d="M114 602q-17 0 -27 6.5t-18 16.5q-4 7 -4 14q0 3 1 7t6 10q17 9 30.5 31.5t16.5 51.5q5 13 13 18t18 5q5 0 14 -2t18 -5.5t16.5 -9t9.5 -11.5q2 -106 4.5 -212t4.5 -212q-7 -15 -12.5 -20t-19.5 -5q-3 0 -9.5 0.5t-14 1.5t-14.5 2.5t-11 3.5q-7 11 -8 20.5t-1 18.5
q-1 69 -3 136t-5 135zM533 581q-20 -33 -45.5 -80.5l-54 -102.5l-58 -114.5l-56.5 -118t-49 -113t-36 -98.5q-3 -8 -11.5 -16.5t-22.5 -8.5q-25 0 -42.5 20t-26.5 43q-3 9 -3 14t1 8l66.5 131.5l58.5 114.5l70 133l60 117t53 115t50 127q5 13 12.5 17t18.5 4q27 0 49.5 -13
t31.5 -30q6 -11 6 -19q0 -6 -3 -12zM553 333q5 -7 21 -20.5l27 -22.5q-7 1 -12 1h-10q-10 0 -15 -0.5t-9 -1.5t-7.5 -1.5t-9.5 -0.5q-25 0 -35.5 15t-10.5 36q0 23 11 45t31 28q20 7 36.5 10.5t39.5 3.5q34 0 67 -6t58.5 -21.5t41.5 -41.5t17 -66q-1 -20 -10.5 -47
t-27.5 -47q13 -8 22 -17t14.5 -21t8 -28.5t2.5 -40.5q0 -42 -16 -69t-41 -42.5t-56 -21t-60 -5.5q-38 0 -66.5 12t-48 29t-29 37t-9.5 35q0 24 3.5 35t18.5 11q6 0 15.5 -4.5t18.5 -17.5q17 -26 42 -41.5t59 -15.5q10 0 24.5 3t27 10.5t21.5 19.5t9 29q0 18 -6 28t-28 21
q-17 -6 -37.5 -8.5t-39.5 -2.5q-39 0 -66 15t-27 37q0 19 14 30.5t32 17.5t34.5 8t20.5 2q33 0 65 -9q7 2 12.5 9t9.5 16t6 18t2 15q0 16 -9 26.5t-23.5 16.5t-32 8t-35.5 2q-11 0 -23.5 -1.5t-22.5 -5.5z" />
    <glyph glyph-name="Yacute" unicode="&#xdd;" horiz-adv-x="674" 
d="M279 -250q-9 -2 -19 -4.5t-27 -2.5q-38 0 -62 18t-37.5 46.5t-19 65t-5.5 72.5q0 29 2 56.5t6.5 57.5t11.5 65t18 78q-22 9 -45 28t-41.5 44t-30 52.5t-11.5 52.5q0 56 18.5 115t44.5 108t53 80t45 31q15 0 29 -14t14 -36t-10.5 -50.5l-23 -61t-23 -68t-10.5 -70.5
q0 -44 37 -76q11 36 27.5 81.5t37.5 92.5t47 91.5t56 79.5t63 56t69 21q47 0 79 -19.5t52 -48.5t29 -63t9 -64q0 -66 -27 -131t-74 -118.5t-110 -91.5t-135 -51q-8 -48 -14.5 -91t-11 -87t-7 -92.5t-2.5 -107.5v-31zM340 326q47 21 86 54.5t74 78.5q43 55 43 116
q0 10 -1.5 21.5t-6 21.5t-12.5 17t-21 7q-11 0 -27 -20.5t-33.5 -52.5t-34.5 -70l-31.5 -73t-24 -62.5t-11.5 -37.5z" />
    <glyph glyph-name="yacute" unicode="&#xfd;" horiz-adv-x="674" 
d="M279 -250q-9 -2 -19 -4.5t-27 -2.5q-38 0 -62 18t-37.5 46.5t-19 65t-5.5 72.5q0 29 2 56.5t6.5 57.5t11.5 65t18 78q-22 9 -45 28t-41.5 44t-30 52.5t-11.5 52.5q0 56 18.5 115t44.5 108t53 80t45 31q15 0 29 -14t14 -36t-10.5 -50.5l-23 -61t-23 -68t-10.5 -70.5
q0 -44 37 -76q11 36 27.5 81.5t37.5 92.5t47 91.5t56 79.5t63 56t69 21q47 0 79 -19.5t52 -48.5t29 -63t9 -64q0 -66 -27 -131t-74 -118.5t-110 -91.5t-135 -51q-8 -48 -14.5 -91t-11 -87t-7 -92.5t-2.5 -107.5v-31zM340 326q47 21 86 54.5t74 78.5q43 55 43 116
q0 10 -1.5 21.5t-6 21.5t-12.5 17t-21 7q-11 0 -27 -20.5t-33.5 -52.5t-34.5 -70l-31.5 -73t-24 -62.5t-11.5 -37.5z" />
    <glyph glyph-name="Scaron" unicode="&#x160;" horiz-adv-x="733" 
d="M498 258q0 -9 -4 -13q-12 -13 -44 -28t-70 -15q-5 0 -23 6.5l-43 15t-52 15t-50 6.5t-38 -9.5t-15 -33.5q0 -8 13 -18t34 -19q23 -9 54 -14t66 -5q43 0 88 7.5t81.5 22t59.5 35.5t23 49q0 19 -16 34t-41.5 27t-58 21t-65.5 14.5t-63.5 8.5t-51.5 4q-86 2 -137.5 9
t-78.5 20.5t-35.5 36t-8.5 56.5q0 50 28 86t71 60t93.5 38t94.5 21.5t75 9.5t36 2q75 0 140.5 -11.5t115.5 -25.5q11 -2 16.5 -8t5.5 -24q-2 -20 -14.5 -31.5t-29.5 -17.5q-12 -3 -33 -7t-33 -6q-14 -2 -51 -4.5l-84.5 -6t-99 -8t-94.5 -12t-71 -18t-28 -24.5q0 -11 26 -17
t62 -10.5t74.5 -7t62.5 -5.5q72 -9 131.5 -19.5t102 -33t66 -63t23.5 -108.5q0 -52 -20.5 -90.5t-52 -65.5t-70.5 -44t-76 -27t-68 -13.5t-47 -3.5q-64 0 -122 19.5t-102 49.5t-70 66t-26 69q0 39 17 65t44 41t59 21t62 6q28 0 60.5 -4t66 -12.5t67 -21t64.5 -29.5
q4 -4 4 -8z" />
    <glyph glyph-name="scaron" unicode="&#x161;" horiz-adv-x="733" 
d="M498 258q0 -9 -4 -13q-12 -13 -44 -28t-70 -15q-5 0 -23 6.5l-43 15t-52 15t-50 6.5t-38 -9.5t-15 -33.5q0 -8 13 -18t34 -19q23 -9 54 -14t66 -5q43 0 88 7.5t81.5 22t59.5 35.5t23 49q0 19 -16 34t-41.5 27t-58 21t-65.5 14.5t-63.5 8.5t-51.5 4q-86 2 -137.5 9
t-78.5 20.5t-35.5 36t-8.5 56.5q0 50 28 86t71 60t93.5 38t94.5 21.5t75 9.5t36 2q75 0 140.5 -11.5t115.5 -25.5q11 -2 16.5 -8t5.5 -24q-2 -20 -14.5 -31.5t-29.5 -17.5q-12 -3 -33 -7t-33 -6q-14 -2 -51 -4.5l-84.5 -6t-99 -8t-94.5 -12t-71 -18t-28 -24.5q0 -11 26 -17
t62 -10.5t74.5 -7t62.5 -5.5q72 -9 131.5 -19.5t102 -33t66 -63t23.5 -108.5q0 -52 -20.5 -90.5t-52 -65.5t-70.5 -44t-76 -27t-68 -13.5t-47 -3.5q-64 0 -122 19.5t-102 49.5t-70 66t-26 69q0 39 17 65t44 41t59 21t62 6q28 0 60.5 -4t66 -12.5t67 -21t64.5 -29.5
q4 -4 4 -8z" />
    <glyph glyph-name="eth" unicode="&#xd0;" horiz-adv-x="766" 
d="M52 626q-2 6 -2 11v11q0 35 25.5 55t76.5 31q18 2 28 2h28q110 0 206.5 -33t168 -92t112.5 -141t41 -180q0 -63 -34.5 -117t-89.5 -94t-123.5 -62.5t-136.5 -22.5h-12q-11 -26 -54 -50h-16q-38 0 -55 19.5t-17 60.5v8q-134 86 -134 170q0 41 24 80q17 -23 40.5 -40
t55.5 -32q-1 6 -1.5 19t-0.5 29v35v35q-17 2 -33.5 7.5t-33.5 13.5q-19 8 -27 26t-8 35q0 20 17 39t46 30v-24q11 -5 21 -8.5t21 -5.5q8 79 35.5 112t75.5 33h14q5 -35 7 -68t3 -66q14 2 29 3t31 1q8 0 17 -3.5t14 -11.5q3 -6 4.5 -15.5t1.5 -19.5q0 -19 -7 -40.5t-21 -32.5
q-28 7 -47 7q-5 0 -10.5 -0.5t-11.5 -1.5v-182q21 -9 45 -10.5t39 -1.5q30 0 64 15t63 37.5t48 49t19 50.5q0 73 -38 134.5t-101 106.5t-144.5 70t-168.5 25h-24l-44 -42z" />
    <glyph glyph-name="eth" unicode="&#xf0;" horiz-adv-x="766" 
d="M52 626q-2 6 -2 11v11q0 35 25.5 55t76.5 31q18 2 28 2h28q110 0 206.5 -33t168 -92t112.5 -141t41 -180q0 -63 -34.5 -117t-89.5 -94t-123.5 -62.5t-136.5 -22.5h-12q-11 -26 -54 -50h-16q-38 0 -55 19.5t-17 60.5v8q-134 86 -134 170q0 41 24 80q17 -23 40.5 -40
t55.5 -32q-1 6 -1.5 19t-0.5 29v35v35q-17 2 -33.5 7.5t-33.5 13.5q-19 8 -27 26t-8 35q0 20 17 39t46 30v-24q11 -5 21 -8.5t21 -5.5q8 79 35.5 112t75.5 33h14q5 -35 7 -68t3 -66q14 2 29 3t31 1q8 0 17 -3.5t14 -11.5q3 -6 4.5 -15.5t1.5 -19.5q0 -19 -7 -40.5t-21 -32.5
q-28 7 -47 7q-5 0 -10.5 -0.5t-11.5 -1.5v-182q21 -9 45 -10.5t39 -1.5q30 0 64 15t63 37.5t48 49t19 50.5q0 73 -38 134.5t-101 106.5t-144.5 70t-168.5 25h-24l-44 -42z" />
    <glyph glyph-name="thorn" unicode="&#xde;" horiz-adv-x="685" 
d="M277 476l-7 -40t-5.5 -34.5t-3.5 -39t-1 -52.5v-31q18 4 43.5 6t53.5 5t55 8t49 13.5t35.5 21.5t13.5 33q0 37 -8.5 61t-22.5 37t-33.5 18t-40.5 5q-32 0 -65.5 -5.5t-62.5 -5.5zM268 78q0 -45 -11 -67t-51 -22q-11 0 -26.5 5t-35.5 16q-16 44 -22 97t-6 98q0 30 2 56.5
t5 52.5l6.5 54t6.5 62q-26 -8 -40 -8q-31 0 -53.5 15t-22.5 48q0 23 15 43v-2q2 5 7 10.5l13 14.5q13 2 28 7l29 10h-2l19 6.5t21 6.5q2 0 3.5 16.5t3 36t2.5 36.5t1 19q3 12 15.5 20.5t26.5 9.5q5 0 17 -2t25 -5.5t23.5 -9.5t12.5 -13q5 -23 5 -50q0 -21 -3 -36
q23 2 46.5 3.5t47.5 1.5q55 0 107 -9.5t92.5 -34.5t65 -68t24.5 -109q0 -74 -37 -119.5t-95 -72t-129.5 -39.5t-140.5 -20z" />
    <glyph glyph-name="thorn" unicode="&#xfe;" horiz-adv-x="685" 
d="M277 476l-7 -40t-5.5 -34.5t-3.5 -39t-1 -52.5v-31q18 4 43.5 6t53.5 5t55 8t49 13.5t35.5 21.5t13.5 33q0 37 -8.5 61t-22.5 37t-33.5 18t-40.5 5q-32 0 -65.5 -5.5t-62.5 -5.5zM268 78q0 -45 -11 -67t-51 -22q-11 0 -26.5 5t-35.5 16q-16 44 -22 97t-6 98q0 30 2 56.5
t5 52.5l6.5 54t6.5 62q-26 -8 -40 -8q-31 0 -53.5 15t-22.5 48q0 23 15 43v-2q2 5 7 10.5l13 14.5q13 2 28 7l29 10h-2l19 6.5t21 6.5q2 0 3.5 16.5t3 36t2.5 36.5t1 19q3 12 15.5 20.5t26.5 9.5q5 0 17 -2t25 -5.5t23.5 -9.5t12.5 -13q5 -23 5 -50q0 -21 -3 -36
q23 2 46.5 3.5t47.5 1.5q55 0 107 -9.5t92.5 -34.5t65 -68t24.5 -109q0 -74 -37 -119.5t-95 -72t-129.5 -39.5t-140.5 -20z" />
    </font>
</defs>
</svg>
